<svg width="120" height="100" xmlns="http://www.w3.org/2000/svg">
 <!-- Created with Method Draw - http://github.com/duopixel/Method-Draw/ -->
 <g>
  <title>background</title>
  <rect fill="none" id="canvas_background" height="102" width="122" y="-1" x="-1"/>
 </g>
 <g>
  <title>Layer 1</title>
  <g id="svg_1" stroke="null">
   <g id="svg_39" stroke="null">
    <g id="svg_22" stroke="null">
     <path d="m46.119,27.276c-3.511,0 -6.812,-0.497 -9.349,-1.411c-2.97,-1.071 -4.62,-2.65 -4.647,-4.445l1.967,-0.029c0.012,0.879 1.295,1.884 3.347,2.625c2.449,0.883 5.725,1.355 9.197,1.291c3.482,-0.05 6.734,-0.604 9.155,-1.558c2.03,-0.799 3.283,-1.842 3.27,-2.72l1.968,-0.029c0.027,1.795 -1.577,3.421 -4.515,4.578c-2.637,1.039 -6.135,1.64 -9.848,1.694c-0.183,0.003 -0.364,0.004 -0.545,0.004z" id="svg_21" stroke="null" fill="#f9f9f9"/>
    </g>
    <g id="svg_24" stroke="null">
     <path d="m32.961,79c-0.026,-1.795 1.577,-3.421 4.516,-4.578c2.637,-1.039 6.135,-1.641 9.848,-1.694c3.711,-0.062 7.227,0.445 9.893,1.407c2.971,1.071 4.621,2.649 4.647,4.445l-1.967,0.029c-0.012,-0.878 -1.295,-1.884 -3.347,-2.624c-2.449,-0.883 -5.713,-1.345 -9.197,-1.291c-3.482,0.05 -6.734,0.603 -9.155,1.557c-2.03,0.8 -3.283,1.842 -3.27,2.721l-1.968,0.028z" id="svg_23" stroke="null" fill="#f9f9f9"/>
    </g>
    <g id="svg_26" stroke="null">
     <path d="m16.529,49.057c-0.56,0 -1.076,-0.128 -1.529,-0.383l0.965,-1.714c0.291,0.164 0.694,0.176 1.197,0.033c2.392,-0.678 5.857,-4.391 8.424,-9.029c3.774,-6.815 4.023,-12.163 2.539,-12.997l0.965,-1.714c3.412,1.919 1.628,9.502 -1.783,15.662c-2.891,5.22 -6.662,9.133 -9.609,9.968c-0.403,0.117 -0.795,0.174 -1.169,0.174z" id="svg_25" stroke="null" fill="#f9f9f9"/>
    </g>
    <g id="svg_28" stroke="null">
     <path d="m29.877,77.254l-1.014,-1.684c1.458,-0.877 1.053,-6.217 -2.917,-12.918c-2.702,-4.562 -6.273,-8.172 -8.684,-8.781c-0.507,-0.127 -0.909,-0.105 -1.196,0.067l-1.014,-1.684c0.743,-0.447 1.674,-0.547 2.691,-0.29c2.97,0.75 6.854,4.551 9.895,9.685c3.589,6.059 5.594,13.587 2.239,15.605z" id="svg_27" stroke="null" fill="#f9f9f9"/>
    </g>
    <g id="svg_30" stroke="null">
     <path d="m51.732,65c-4.988,0 -9.106,-4.125 -9.179,-9.148c-0.036,-2.467 0.884,-4.539 2.59,-6.309c1.709,-1.773 4.001,-2.543 6.454,-2.543l0.135,0c4.988,0 9.105,3.844 9.178,8.867c0.074,5.095 -3.983,9.133 -9.044,9.133l-0.134,0zm0,-16l-0.106,0c-1.925,0 -3.724,0.512 -5.066,1.904c-1.344,1.394 -2.068,3.106 -2.04,5.051c0.057,3.955 3.293,7.045 7.212,7.045l0.105,0c3.976,0 7.164,-3.093 7.105,-7.105c-0.057,-3.955 -3.292,-6.895 -7.21,-6.895z" id="svg_29" stroke="null" fill="#f9f9f9"/>
    </g>
    <g id="svg_32" stroke="null">
     <path d="m64.898,76.745c-3.413,-1.92 -1.628,-9.502 1.783,-15.662c3.706,-6.694 6.656,-9.186 11.692,-9.875l0.267,1.948c-4.358,0.595 -6.847,2.753 -10.238,8.879c-3.774,6.814 -4.023,12.162 -2.54,12.997l-0.964,1.713z" id="svg_31" stroke="null" fill="#f9f9f9"/>
    </g>
    <g id="svg_34" stroke="null">
     <path d="m78.081,48.152c-5.042,-0.635 -8.02,-3.095 -11.798,-9.749c-3.477,-6.124 -5.341,-13.687 -1.95,-15.642l0.984,1.703c-1.475,0.85 -1.168,6.195 2.678,12.969c3.456,6.089 5.968,8.22 10.332,8.769l-0.246,1.95z" id="svg_33" stroke="null" fill="#f9f9f9"/>
    </g>
    <g id="svg_36" stroke="null">
     <path d="m104.016,53.165l-1.661,0c-0.544,0 -0.984,-0.44 -0.984,-0.983s0.44,-0.983 0.984,-0.983l1.661,0c0.544,0 0.984,0.44 0.984,0.983s-0.44,0.983 -0.984,0.983zm-7.032,0l-2.578,0c-0.544,0 -0.984,-0.44 -0.984,-0.983s0.44,-0.983 0.984,-0.983l2.578,0c0.544,0 0.984,0.44 0.984,0.983s-0.44,0.983 -0.984,0.983zm-7.95,0l-2.578,0c-0.544,0 -0.984,-0.44 -0.984,-0.983s0.44,-0.983 0.984,-0.983l2.578,0c0.544,0 0.984,0.44 0.984,0.983s-0.44,0.983 -0.984,0.983zm-7.949,0l-2.578,0c-0.544,0 -0.984,-0.44 -0.984,-0.983s0.44,-0.983 0.984,-0.983l2.578,0c0.544,0 0.984,0.44 0.984,0.983s-0.441,0.983 -0.984,0.983z" id="svg_35" stroke="null" fill="#f9f9f9"/>
    </g>
    <g id="svg_38" stroke="null">
     <path d="m78.204,48.159c-0.539,0 -0.978,-0.433 -0.984,-0.972c-0.006,-0.543 0.43,-0.988 0.973,-0.994l2.578,-0.027c0.004,0 0.008,0 0.011,0c0.539,0 0.978,0.433 0.984,0.972c0.006,0.543 -0.43,0.988 -0.973,0.994l-2.578,0.027c-0.005,0 -0.009,0 -0.011,0zm7.949,-0.085c-0.539,0 -0.978,-0.433 -0.984,-0.972c-0.006,-0.543 0.43,-0.988 0.973,-0.994l2.578,-0.027c0.004,0 0.008,0 0.011,0c0.539,0 0.978,0.433 0.984,0.972c0.006,0.543 -0.43,0.988 -0.973,0.994l-2.578,0.027c-0.004,0 -0.008,0 -0.011,0zm7.949,-0.084c-0.539,0 -0.978,-0.433 -0.984,-0.972c-0.006,-0.543 0.429,-0.988 0.973,-0.994l2.578,-0.028c0.581,0.017 0.989,0.429 0.994,0.972c0.006,0.543 -0.429,0.988 -0.973,0.994l-2.578,0.028c-0.003,0 -0.006,0 -0.01,0zm7.95,-0.085c-0.539,0 -0.978,-0.433 -0.984,-0.972c-0.006,-0.543 0.43,-0.988 0.973,-0.994l1.66,-0.018c0.538,0.024 0.989,0.43 0.994,0.972c0.006,0.543 -0.43,0.988 -0.973,0.994l-1.66,0.018c-0.004,0 -0.006,0 -0.01,0z" id="svg_37" stroke="null" fill="#f9f9f9"/>
    </g>
   </g>
  </g>
 </g>
</svg>