<?xml version="1.0" encoding="iso-8859-1"?>
<!-- Generator: Adobe Illustrator 19.0.0, SVG Export Plug-In . SVG Version: 6.00 Build 0)  -->
<svg version="1.1" id="Capa_1" xmlns="http://www.w3.org/2000/svg" xmlns:xlink="http://www.w3.org/1999/xlink" x="0px" y="0px"
	 viewBox="0 0 512 512" style="enable-background:new 0 0 512 512;" xml:space="preserve">
<rect x="131.643" y="61.693" style="fill:#7C899B;" width="248.713" height="77.723"/>
<polygon style="fill:#69788D;" points="147.188,123.871 147.188,61.693 131.643,61.693 131.643,139.416 380.357,139.416 
	380.357,123.871 "/>
<rect x="380.357" y="61.693" style="fill:#B4BBC6;" width="116.584" height="77.723"/>
<polygon style="fill:#A1ABB8;" points="395.901,123.871 395.901,61.693 380.357,61.693 380.357,139.416 496.941,139.416 
	496.941,123.871 "/>
<rect x="15.059" y="61.693" style="fill:#B4BBC6;" width="116.584" height="77.723"/>
<polygon style="fill:#A1ABB8;" points="30.603,123.871 30.603,61.693 15.059,61.693 15.059,139.416 131.643,139.416 
	131.643,123.871 "/>
<rect x="256" y="139.416" style="fill:#B4BBC6;" width="240.941" height="77.723"/>
<polygon style="fill:#A1ABB8;" points="271.545,201.594 271.545,139.416 256,139.416 256,217.139 496.941,217.139 496.941,201.594 
	"/>
<rect x="15.059" y="139.416" style="fill:#7C899B;" width="240.941" height="77.723"/>
<polygon style="fill:#69788D;" points="30.603,201.594 30.603,139.416 15.059,139.416 15.059,217.139 263.772,217.139 
	263.772,201.594 "/>
<rect x="256" y="294.861" style="fill:#7C899B;" width="240.941" height="77.723"/>
<polygon style="fill:#69788D;" points="271.545,357.04 271.545,294.861 256,294.861 256,372.584 496.941,372.584 496.941,357.04 "/>
<rect x="15.059" y="294.861" style="fill:#B4BBC6;" width="240.941" height="77.723"/>
<polygon style="fill:#A1ABB8;" points="30.603,357.04 30.603,294.861 15.059,294.861 15.059,372.584 256,372.584 256,357.04 "/>
<rect x="131.643" y="217.139" style="fill:#7C899B;" width="248.713" height="77.723"/>
<g>
	<rect x="380.357" y="217.139" style="fill:#B4BBC6;" width="116.584" height="77.723"/>
	<rect x="15.059" y="217.139" style="fill:#B4BBC6;" width="116.584" height="77.723"/>
</g>
<g>
	<polygon style="fill:#A1ABB8;" points="30.603,279.317 30.603,217.139 15.059,217.139 15.059,294.861 131.643,294.861 
		131.643,279.317 	"/>
	<polygon style="fill:#A1ABB8;" points="395.901,279.317 395.901,217.139 380.357,217.139 380.357,294.861 496.941,294.861 
		496.941,279.317 	"/>
</g>
<polygon style="fill:#69788D;" points="147.188,271.545 147.188,209.366 131.643,209.366 131.643,287.089 380.357,287.089 
	380.357,271.545 "/>
<rect x="131.643" y="372.584" style="fill:#7C899B;" width="248.713" height="77.723"/>
<rect x="380.357" y="372.584" style="fill:#B4BBC6;" width="116.584" height="77.723"/>
<polygon style="fill:#A1ABB8;" points="395.901,434.763 395.901,372.584 380.357,372.584 380.357,450.307 496.941,450.307 
	496.941,434.763 "/>
<rect x="15.059" y="372.584" style="fill:#B4BBC6;" width="116.584" height="77.723"/>
<polygon style="fill:#69788D;" points="147.188,434.763 147.188,372.584 131.643,372.584 131.643,450.307 380.357,450.307 
	380.357,434.763 "/>
<polygon style="fill:#A1ABB8;" points="30.603,434.763 30.603,372.584 15.059,372.584 15.059,450.307 131.643,450.307 
	131.643,434.763 "/>
<path style="fill:#DB6B5E;" d="M302.634,217.139L256,92.782l-62.178,170.991l-37.639-18.031
	c-10.115,21.528-16.767,41.523-16.767,56.892c0,64.388,52.197,116.584,116.584,116.584s116.584-52.197,116.584-116.584
	c0-26.725-20.087-67.414-43.584-105.874L302.634,217.139z"/>
<path style="fill:#F7C14D;" d="M201.594,341.495c0-30.048,54.406-108.812,54.406-108.812s54.406,78.764,54.406,108.812
	c0,30.048-24.358,54.406-54.406,54.406S201.594,371.543,201.594,341.495z"/>
<path style="fill:#FFDB66;" d="M256,372.584c-17.143,0-31.089-13.946-31.089-31.089c0-0.51,0.273-12.978,24.055-53.974
	c2.368-4.081,4.738-8.049,7.033-11.812c2.344,3.842,4.765,7.895,7.179,12.059c23.64,40.8,23.911,53.218,23.911,53.727
	C287.089,358.638,273.143,372.584,256,372.584z"/>
<path d="M330.32,189.593c-2.036-0.375-4.138,0.134-5.776,1.401l-18.554,14.341L262.822,90.224c-2.326-6.2-11.407-6.158-13.671,0.068
	l-59.431,163.437L159.33,239.17c-3.601-1.724-8.049-0.134-9.743,3.473c-11.748,25.003-17.459,44.627-17.459,59.99
	c0,68.303,55.568,123.871,123.871,123.871s123.871-55.568,123.871-123.871c0-24.276-15.024-61.175-44.653-109.673
	C334.139,191.193,332.357,189.969,330.32,189.593z M256,411.932c-60.266,0-109.298-49.031-109.298-109.298
	c0-11.69,4.38-27.518,13.029-47.113l30.942,14.823c3.83,1.834,8.548-0.1,9.996-4.081l55.436-152.449l39.706,105.883
	c1.692,4.514,7.458,6.16,11.279,3.207l19.895-15.377c25.089,42.165,38.313,74.953,38.313,95.108
	C365.298,362.901,316.266,411.932,256,411.932z"/>
<path d="M291.883,291.234c-3.586,1.826-5.012,6.214-3.187,9.8c11.921,23.412,14.423,34.926,14.423,40.462
	c0,25.982-21.138,47.12-47.12,47.12s-47.12-21.138-47.12-47.12c0-20.124,29.945-69.719,47.104-95.745
	c3.858,5.864,9.206,14.178,14.907,23.595c2.085,3.442,6.566,4.542,10.007,2.46c3.443-2.085,4.544-6.565,2.46-10.007
	c-11.283-18.638-20.957-32.668-21.363-33.256c-2.848-4.122-9.143-4.122-11.991,0c-5.701,8.252-55.697,81.54-55.697,112.953
	c0,34.017,27.675,61.693,61.693,61.693s61.693-27.675,61.693-61.693c0-10.519-5.238-25.917-16.01-47.075
	C299.857,290.834,295.469,289.409,291.883,291.234z"/>
<path d="M15.059,132.129c-4.025,0-7.287,3.262-7.287,7.287s3.261,7.287,7.287,7.287H218.11c4.025,0,7.287-3.262,7.287-7.287
	s-3.261-7.287-7.287-7.287h-79.18v-63.15h234.14v63.15h-78.209c-4.025,0-7.287,3.262-7.287,7.287s3.261,7.287,7.287,7.287h202.08
	c4.025,0,7.287-3.262,7.287-7.287s-3.261-7.287-7.287-7.287H387.643v-63.15h109.298c4.025,0,7.287-3.262,7.287-7.287
	s-3.261-7.287-7.287-7.287H15.059c-4.025,0-7.287,3.262-7.287,7.287s3.261,7.287,7.287,7.287h109.298v63.15H15.059z"/>
<path d="M15.059,224.425h109.298v16.03c0,4.024,3.261,7.287,7.287,7.287s7.287-3.262,7.287-7.287v-16.03h46.148
	c4.025,0,7.287-3.262,7.287-7.287s-3.261-7.287-7.287-7.287H15.059c-4.025,0-7.287,3.262-7.287,7.287S11.034,224.425,15.059,224.425
	z"/>
<path d="M496.941,209.852H363.841c-4.025,0-7.287,3.262-7.287,7.287s3.261,7.287,7.287,7.287h9.23v16.03
	c0,4.024,3.261,7.287,7.287,7.287c4.025,0,7.287-3.262,7.287-7.287v-16.03h109.298c4.025,0,7.287-3.262,7.287-7.287
	S500.966,209.852,496.941,209.852z"/>
<path d="M496.941,287.575h-101.04c-4.025,0-7.287,3.262-7.287,7.287s3.261,7.287,7.287,7.287h101.04
	c4.025,0,7.287-3.262,7.287-7.287S500.966,287.575,496.941,287.575z"/>
<path d="M15.059,302.148h101.04c4.025,0,7.287-3.262,7.287-7.287s-3.261-7.287-7.287-7.287H15.059c-4.025,0-7.287,3.262-7.287,7.287
	S11.034,302.148,15.059,302.148z"/>
<path d="M504.713,443.021h-117.07v-63.15h117.07c4.025,0,7.287-3.262,7.287-7.287s-3.261-7.287-7.287-7.287h-117.07v-8.258
	c0-4.024-3.261-7.287-7.287-7.287c-4.025,0-7.287,3.262-7.287,7.287v85.981H138.93V357.04c0-4.024-3.261-7.287-7.287-7.287
	s-7.287,3.262-7.287,7.287v8.258H7.287c-4.025,0-7.287,3.262-7.287,7.287s3.261,7.287,7.287,7.287h117.07v63.15H7.287
	c-4.025,0-7.287,3.262-7.287,7.287s3.261,7.287,7.287,7.287h497.427c4.025,0,7.287-3.262,7.287-7.287
	S508.739,443.021,504.713,443.021z"/>
<g>
</g>
<g>
</g>
<g>
</g>
<g>
</g>
<g>
</g>
<g>
</g>
<g>
</g>
<g>
</g>
<g>
</g>
<g>
</g>
<g>
</g>
<g>
</g>
<g>
</g>
<g>
</g>
<g>
</g>
</svg>
