<?xml version="1.0" encoding="iso-8859-1"?>
<!-- Generator: Adobe Illustrator 19.0.0, SVG Export Plug-In . SVG Version: 6.00 Build 0)  -->
<svg version="1.1" id="Capa_1" xmlns="http://www.w3.org/2000/svg" xmlns:xlink="http://www.w3.org/1999/xlink" x="0px" y="0px"
	 viewBox="0 0 512 512" style="enable-background:new 0 0 512 512;" xml:space="preserve">
<rect x="7.515" y="55.609" style="fill:#ECEEF1;" width="496.971" height="400.783"/>
<rect x="7.515" y="55.609" style="fill:#D9DDE2;" width="32.063" height="400.783"/>
<rect x="7.515" y="55.609" style="fill:#69788D;" width="496.971" height="80.157"/>
<rect x="7.515" y="55.609" style="fill:#435670;" width="32.063" height="80.157"/>
<circle style="fill:#FF8C78;" cx="464.407" cy="95.687" r="16.031"/>
<circle style="fill:#FFDB66;" cx="400.282" cy="95.687" r="16.031"/>
<circle style="fill:#7EC97D;" cx="336.157" cy="95.687" r="16.031"/>
<ellipse style="fill:#FF8C78;" cx="256" cy="272.031" rx="56.11" ry="72.141"/>
<path style="fill:#DB6B5E;" d="M280.047,336.157c-30.989,0-56.11-32.298-56.11-72.141c0-27.887,12.316-52.062,30.329-64.069
	c-30.184,1.181-54.376,32.989-54.376,72.085c0,39.843,25.121,72.141,56.11,72.141c9.298,0,18.059-2.925,25.78-8.072
	C281.203,336.122,280.628,336.157,280.047,336.157z"/>
<circle style="fill:#F7C14D;" cx="256" cy="360.204" r="24.047"/>
<path style="fill:#F09B24;" d="M272.031,376.235c-13.281,0-24.047-10.766-24.047-24.047c0-6.119,2.289-11.701,6.053-15.945
	c-12.362,1-22.084,11.341-22.084,23.961c0,13.281,10.766,24.047,24.047,24.047c7.162,0,13.589-3.134,17.994-8.102
	C273.346,376.201,272.693,376.235,272.031,376.235z"/>
<g>
	<path style="fill:#FFDB66;" d="M462.169,281.074l-40.078-56.11c-3.861-5.406-11.372-6.655-16.772-2.795
		c-5.405,3.86-6.656,11.369-2.795,16.772l35.087,49.121l-35.087,49.121c-3.861,5.404-2.609,12.913,2.795,16.772
		c2.118,1.514,4.56,2.24,6.979,2.24c3.75,0,7.448-1.75,9.793-5.036l40.078-56.11C465.155,290.871,465.155,285.254,462.169,281.074z"
		/>
	<path style="fill:#FFDB66;" d="M49.831,281.074l40.078-56.11c3.861-5.406,11.372-6.655,16.772-2.795
		c5.405,3.86,6.656,11.369,2.795,16.772l-35.086,49.122l35.087,49.121c3.861,5.404,2.609,12.913-2.795,16.772
		c-2.118,1.514-4.56,2.24-6.979,2.24c-3.75,0-7.448-1.75-9.793-5.036l-40.078-56.11C46.845,290.871,46.845,285.254,49.831,281.074z"
		/>
</g>
<path d="M504.485,48.094H7.515C3.364,48.094,0,51.458,0,55.609v400.783c0,4.151,3.364,7.515,7.515,7.515h496.971
	c4.151,0,7.515-3.364,7.515-7.515V55.609C512,51.458,508.636,48.094,504.485,48.094z M15.029,448.877V143.28H395.94
	c4.151,0,7.515-3.364,7.515-7.515s-3.364-7.515-7.515-7.515H15.029V63.123h481.941v65.127h-64.625c-4.151,0-7.515,3.364-7.515,7.515
	s3.364,7.515,7.515,7.515h64.625v305.597H15.029z"/>
<path d="M464.407,119.233c12.983,0,23.546-10.563,23.546-23.546s-10.563-23.546-23.546-23.546s-23.546,10.563-23.546,23.546
	S451.424,119.233,464.407,119.233z M464.407,87.17c4.696,0,8.517,3.82,8.517,8.517s-3.82,8.517-8.517,8.517
	c-4.696,0-8.517-3.82-8.517-8.517S459.711,87.17,464.407,87.17z"/>
<path d="M423.828,95.687c0-12.983-10.563-23.546-23.546-23.546s-23.546,10.563-23.546,23.546s10.563,23.546,23.546,23.546
	S423.828,108.67,423.828,95.687z M400.282,104.204c-4.696,0-8.517-3.82-8.517-8.517s3.82-8.517,8.517-8.517
	c4.696,0,8.517,3.82,8.517,8.517S404.978,104.204,400.282,104.204z"/>
<path d="M336.157,72.141c-12.983,0-23.546,10.563-23.546,23.546s10.563,23.546,23.546,23.546s23.546-10.563,23.546-23.546
	S349.14,72.141,336.157,72.141z M336.157,104.204c-4.696,0-8.517-3.82-8.517-8.517s3.82-8.517,8.517-8.517
	c4.696,0,8.517,3.82,8.517,8.517S340.853,104.204,336.157,104.204z"/>
<path d="M47.593,88.172h-8.016c-4.151,0-7.515,3.364-7.515,7.515c0,4.151,3.364,7.515,7.515,7.515h8.016
	c4.151,0,7.515-3.364,7.515-7.515C55.108,91.536,51.744,88.172,47.593,88.172z"/>
<path d="M87.671,88.172H71.64c-4.151,0-7.515,3.364-7.515,7.515c0,4.151,3.364,7.515,7.515,7.515h16.031
	c4.151,0,7.515-3.364,7.515-7.515C95.186,91.536,91.822,88.172,87.671,88.172z"/>
<path d="M119.734,88.172h-8.016c-4.151,0-7.515,3.364-7.515,7.515c0,4.151,3.364,7.515,7.515,7.515h8.016
	c4.151,0,7.515-3.364,7.515-7.515C127.249,91.536,123.885,88.172,119.734,88.172z"/>
<path d="M364.859,273.326l-28.161,14.081l-17.16-11.439c0.052-1.308,0.087-2.618,0.087-3.936c0-12.441-2.294-24.223-6.374-34.725
	l25.107,5.022c3.119,0.626,6.374-0.846,7.972-3.594l20.373-35.068c2.084-3.589,0.865-8.188-2.723-10.273
	c-3.589-2.084-8.188-0.865-10.273,2.723l-17.673,30.42l-31.797-6.36c-11.678-17.002-28.964-27.801-48.236-27.801
	s-36.558,10.799-48.236,27.8l-31.797,6.36l-17.673-30.42c-2.086-3.59-6.685-4.807-10.273-2.723
	c-3.588,2.085-4.807,6.684-2.723,10.273l20.373,35.068c1.597,2.748,4.852,4.22,7.972,3.594l25.107-5.022
	c-4.079,10.501-6.373,22.284-6.373,34.725c0,1.318,0.036,2.629,0.087,3.936l-17.16,11.439l-28.161-14.081
	c-3.713-1.859-8.227-0.352-10.083,3.361c-1.857,3.712-0.352,8.226,3.361,10.083l32.063,16.031c2.389,1.195,5.307,1.012,7.53-0.469
	l14.547-9.698c2.53,11.775,7.177,22.626,13.486,31.728l-20.34,13.559c-2.091,1.394-3.347,3.739-3.347,6.252v32.063
	c0,4.151,3.364,7.515,7.515,7.515s7.515-3.364,7.515-7.515v-28.041l18.513-12.342c3.39,3.186,7.052,5.968,10.955,8.269
	c-2.803,4.713-4.42,10.212-4.42,16.082c0,17.403,14.159,31.562,31.562,31.562s31.562-14.159,31.562-31.562
	c0-5.87-1.616-11.369-4.42-16.082c3.904-2.303,7.566-5.083,10.955-8.269l18.513,12.342v28.041c0,4.151,3.364,7.515,7.515,7.515
	s7.515-3.364,7.515-7.515v-32.063c0-2.513-1.255-4.859-3.347-6.252l-20.34-13.559c6.31-9.102,10.956-19.953,13.486-31.728
	l14.547,9.698c2.221,1.481,5.141,1.664,7.53,0.469l32.063-16.031c3.711-1.857,5.216-6.369,3.361-10.083
	C373.085,272.974,368.573,271.471,364.859,273.326z M256,376.736c-9.116,0-16.532-7.417-16.532-16.532s7.416-16.532,16.532-16.532
	s16.532,7.417,16.532,16.532S265.116,376.736,256,376.736z M272.018,333.024c-4.699-2.779-10.174-4.383-16.018-4.383
	s-11.319,1.603-16.018,4.383c-19.494-9.128-32.577-33.596-32.577-60.993c0-15.26,4.007-29.292,10.683-40.361
	c0.377-0.466,0.69-0.979,0.947-1.521c8.92-13.903,22.177-22.744,36.965-22.744c14.788,0,28.045,8.841,36.965,22.745
	c0.257,0.542,0.57,1.055,0.947,1.521c6.676,11.068,10.683,25.1,10.683,40.36C304.595,299.429,291.512,323.897,272.018,333.024z"/>
<path d="M256,232.454c-4.151,0-7.515,3.364-7.515,7.515v40.078c0,4.151,3.364,7.515,7.515,7.515c4.151,0,7.515-3.364,7.515-7.515
	v-40.078C263.515,235.818,260.151,232.454,256,232.454z"/>
<path d="M261.31,298.784c-1.743-1.753-4.338-2.556-6.783-2.055c-3.473,0.67-6.042,3.837-6.042,7.365
	c0,4.093,3.422,7.515,7.515,7.515c4.088,0,7.515-3.424,7.515-7.515c0-1.018-0.298-2.238-0.581-2.876
	C262.736,300.774,262.007,299.461,261.31,298.784z"/>
<path d="M428.205,220.598c-6.185-8.663-18.582-10.739-27.254-4.544c-8.663,6.186-10.74,18.582-4.543,27.255l31.965,44.753
	l-31.965,44.753c-6.196,8.672-4.12,21.068,4.541,27.254c8.661,6.187,21.073,4.116,27.255-4.542l40.078-56.11
	c4.853-6.792,4.853-15.92,0-22.712L428.205,220.598z M456.054,290.683l-40.079,56.111c-1.354,1.895-4.003,2.44-5.998,1.239
	c-2.219-1.336-2.845-4.374-1.34-6.482l35.088-49.121c1.866-2.612,1.866-6.123,0-8.736l-35.088-49.121
	c-1.428-2.001-0.949-4.863,1.05-6.29s4.861-0.947,6.288,1.05l40.078,56.11C457.173,287.01,457.173,289.116,456.054,290.683z"/>
<path d="M118.966,228.741c-0.858-5.148-3.67-9.654-7.915-12.685c-8.671-6.196-21.071-4.121-27.255,4.541l-40.078,56.11
	c-4.853,6.792-4.853,15.92,0,22.712l40.077,56.109c6.182,8.657,18.593,10.732,27.254,4.544c8.663-6.186,10.74-18.582,4.543-27.255
	l-31.965-44.753l31.965-44.753C118.627,239.063,119.824,233.89,118.966,228.741z M103.363,234.573l-35.088,49.121
	c-1.866,2.612-1.866,6.123,0,8.736l35.088,49.121c1.51,2.116,0.872,5.135-1.342,6.482c-1.989,1.21-4.648,0.646-5.997-1.241
	l-40.078-56.11c-1.119-1.567-1.119-3.673,0-5.24l40.079-56.111c1.427-1.998,4.291-2.475,6.289-1.047
	C104.313,229.712,104.791,232.573,103.363,234.573z"/>
<g>
</g>
<g>
</g>
<g>
</g>
<g>
</g>
<g>
</g>
<g>
</g>
<g>
</g>
<g>
</g>
<g>
</g>
<g>
</g>
<g>
</g>
<g>
</g>
<g>
</g>
<g>
</g>
<g>
</g>
</svg>
