<svg width="496" height="496" xmlns="http://www.w3.org/2000/svg">

 <g>
  <title>background</title>
  <rect fill="none" id="canvas_background" height="402" width="582" y="-1" x="-1"/>
 </g>
 <g>
  <title>Layer 1</title>
  <g id="svg_1">
   <path id="svg_2" fill="#6b7b9e" d="m328,168l0,188c0,14.616 4.832,29.112 13.6,40.808c6.704,8.936 10.4,20.016 10.4,31.192l0,44c0,13.232 10.768,24 24,24s24,-10.768 24,-24l0,-44c0,-11.176 3.696,-22.256 10.4,-31.192c8.776,-11.696 13.6,-26.184 13.6,-40.808l0,-188l-96,0z"/>
   <path id="svg_3" fill="#6b7b9e" d="m168,208c-13.256,0 -24,-10.744 -24,-24l0,-32l-48,0l0,288c0,26.512 21.488,48 48,48s48,-21.488 48,-48l0,-256c0,13.256 -10.744,24 -24,24z"/>
  </g>
  <path id="svg_4" d="m424,128l-8,0l0,-88c0,-22.056 -17.944,-40 -40,-40s-40,17.944 -40,40l0,88l-8,0c-13.232,0 -24,10.768 -24,24s10.768,24 24,24l48,0l0,-16l-48,0c-4.416,0 -8,-3.592 -8,-8s3.584,-8 8,-8l96,0c4.416,0 8,3.592 8,8s-3.584,8 -8,8l-32,0l0,16l32,0c13.232,0 24,-10.768 24,-24s-10.768,-24 -24,-24zm-72,-88c0,-13.232 10.768,-24 24,-24s24,10.768 24,24l0,88l-48,0l0,-88z"/>
  <rect id="svg_5" height="16" width="48" y="208" x="376"/>
  <rect id="svg_6" height="16" width="32" y="256" x="392"/>
  <rect id="svg_7" height="16" width="48" y="312" x="376"/>
  <rect id="svg_8" height="16" width="16" y="232" x="152"/>
  <rect id="svg_9" height="16" width="16" y="360" x="136"/>
  <rect id="svg_10" height="16" width="16" y="408" x="120"/>
  <rect id="svg_11" height="16" width="16" y="80" x="128"/>
  <rect id="svg_12" height="16" width="16" y="56" x="168"/>
  <rect id="svg_13" height="16" width="16" y="40" x="104"/>
  <path id="svg_14" d="m216,64c0,-26.472 -21.528,-48 -48,-48c-5.984,0 -11.96,1.184 -17.6,3.456c-9.112,-12.448 -23.536,-19.664 -39.344,-19.448c-25.632,0.496 -46.744,21.768 -47.056,47.424c-0.08,6.592 1.36,12.968 3.92,18.968c-11.664,4.784 -19.92,16.232 -19.92,29.6c0,11.792 6.48,22 16,27.552l0,36.448l24,0l0,280c0,30.88 25.128,56 56,56s56,-25.12 56,-56l0,-196.448c4.728,2.752 10.144,4.448 16,4.448c17.648,0 32,-14.352 32,-32l0,-120c0,-17.648 -14.352,-32 -32,-32zm-136,64l56,0l0,16l-56,0l0,-16zm24,128.808c18.232,3.72 32,19.872 32,39.192s-13.768,35.472 -32,39.192l0,-78.384zm40,223.192c-22.056,0 -40,-17.944 -40,-40l0,-88.64c27.088,-3.904 48,-27.208 48,-55.36s-20.912,-51.456 -48,-55.36l0,-80.64l32,0l0,24c0,17.648 14.352,32 32,32c5.856,0 11.272,-1.696 16,-4.448l0,157.256c-18.232,3.72 -32,19.872 -32,39.192c0,19.056 13.424,34.992 31.296,38.984c-3.328,18.72 -19.632,33.016 -39.296,33.016zm24,-72c0,-10.416 6.712,-19.216 16,-22.528l0,45.048c-9.288,-3.304 -16,-12.104 -16,-22.52zm64,-192c0,8.824 -7.176,16 -16,16s-16,-7.176 -16,-16l0,-32l0,-32l0,-40l-16,0l0,40l0,32c0,8.824 -7.176,16 -16,16s-16,-7.176 -16,-16l0,-72l-72,0c-8.824,0 -16,-7.176 -16,-16s7.176,-16 16,-16s16,7.176 16,16l16,0c0,-15.984 -11.816,-29.152 -27.16,-31.512c-3.184,-5.16 -4.912,-10.904 -4.84,-16.864c0.2,-16.816 14.568,-31.288 31.368,-31.616c12.016,-0.184 23.336,6.464 28.92,17.472l3.888,7.688l7.384,-4.456c5.176,-3.128 10.704,-4.712 16.44,-4.712c17.648,0 32,14.352 32,32c0,2.144 -0.216,4.296 -0.648,6.416l-1.936,9.584l18.584,0c8.824,0 16,7.176 16,16l0,120z"/>
  <g id="svg_15"/>
  <g id="svg_16"/>
  <g id="svg_17"/>
  <g id="svg_18"/>
  <g id="svg_19"/>
  <g id="svg_20"/>
  <g id="svg_21"/>
  <g id="svg_22"/>
  <g id="svg_23"/>
  <g id="svg_24"/>
  <g id="svg_25"/>
  <g id="svg_26"/>
  <g id="svg_27"/>
  <g id="svg_28"/>
  <g id="svg_29"/>
 </g>
</svg>