<?xml version="1.0" encoding="iso-8859-1"?>
<!-- Generator: Adobe Illustrator 19.0.0, SVG Export Plug-In . SVG Version: 6.00 Build 0)  -->
<svg version="1.1" id="Capa_1" xmlns="http://www.w3.org/2000/svg" xmlns:xlink="http://www.w3.org/1999/xlink" x="0px" y="0px"
	 viewBox="0 0 504.123 504.123" style="enable-background:new 0 0 504.123 504.123;" xml:space="preserve">
<circle style="fill:#2AA0DA;" cx="203.71" cy="304.837" r="199.286"/>
<g>
	<rect x="451.046" y="36.234" style="fill:#183651;" width="15.754" height="15.754"/>
	<rect x="451.046" y="85.071" style="fill:#183651;" width="15.754" height="15.754"/>
	<rect x="451.046" y="133.908" style="fill:#183651;" width="15.754" height="15.754"/>
	<rect x="451.046" y="183.532" style="fill:#183651;" width="15.754" height="15.754"/>
	<rect x="451.046" y="232.369" style="fill:#183651;" width="15.754" height="15.754"/>
	<rect x="451.046" y="281.206" style="fill:#183651;" width="15.754" height="15.754"/>
</g>
<path style="fill:#FFFFFF;" d="M86.344,447.409h234.732c29.145-29.932,47.262-70.105,47.262-115.003
	c0-55.926-27.569-105.551-70.105-134.695c-28.357-19.692-47.262-51.2-47.262-85.858V7.877h-94.523v103.975
	c0,34.658-18.117,66.166-46.474,85.858c-47.262,33.083-76.406,90.585-69.317,153.6C44.597,388.332,61.138,422.203,86.344,447.409z"
	/>
<path id="SVGCleanerId_0" style="fill:#183651;" d="M321.077,455.286H86.344c-2.363,0-3.938-0.788-5.514-2.363
	c-26.782-27.569-44.111-63.015-48.049-100.825c-7.089-63.015,21.268-125.243,73.255-161.477
	c26.782-18.905,43.323-48.049,43.323-78.769V7.877c0-4.726,3.151-7.877,7.877-7.877h94.523c4.726,0,7.877,3.151,7.877,7.877v103.975
	c0,30.72,15.754,59.865,43.323,79.557c46.474,32.295,74.043,85.071,74.043,140.997c0,44.898-17.329,87.434-48.837,120.517
	C325.015,454.498,323.44,455.286,321.077,455.286z M89.495,439.532h228.431c27.569-29.145,42.535-66.954,42.535-107.126
	c0-51.2-25.206-99.249-66.954-128.394c-31.508-22.055-50.412-56.714-50.412-92.16V15.754h-78.769v96.098
	c0,36.234-18.905,70.105-50.412,92.16c-47.262,33.083-72.468,89.009-66.166,146.511C51.686,383.606,66.652,415.114,89.495,439.532z"
	/>
<path style="fill:#E1E6E8;" d="M86.344,447.409h234.732c29.145-29.932,47.262-70.105,47.262-115.003
	c0-23.631-4.726-45.686-14.178-65.378c-32.295,18.117-41.748,26.782-70.892-3.938c-11.815-12.603-33.871-15.754-51.2,2.363
	c-13.391,14.178-35.446,14.178-48.837,0c-13.391-14.178-35.446-14.178-48.837,0c-8.665,8.665-24.418,29.145-48.837,17.329
	l-32.295-15.754c-11.815,26.782-16.542,57.502-11.815,89.009C46.172,391.483,62.714,422.991,86.344,447.409z"/>
<g>
	<path id="SVGCleanerId_0_1_" style="fill:#183651;" d="M321.077,455.286H86.344c-2.363,0-3.938-0.788-5.514-2.363
		c-26.782-27.569-44.111-63.015-48.049-100.825c-7.089-63.015,21.268-125.243,73.255-161.477
		c26.782-18.905,43.323-48.049,43.323-78.769V7.877c0-4.726,3.151-7.877,7.877-7.877h94.523c4.726,0,7.877,3.151,7.877,7.877
		v103.975c0,30.72,15.754,59.865,43.323,79.557c46.474,32.295,74.043,85.071,74.043,140.997c0,44.898-17.329,87.434-48.837,120.517
		C325.015,454.498,323.44,455.286,321.077,455.286z M89.495,439.532h228.431c27.569-29.145,42.535-66.954,42.535-107.126
		c0-51.2-25.206-99.249-66.954-128.394c-31.508-22.055-50.412-56.714-50.412-92.16V15.754h-78.769v96.098
		c0,36.234-18.905,70.105-50.412,92.16c-47.262,33.083-72.468,89.009-66.166,146.511C51.686,383.606,66.652,415.114,89.495,439.532z
		"/>
</g>
<path style="fill:#183651;" d="M267.514,15.754H139.907c-4.726,0-7.877-3.151-7.877-7.877S135.181,0,139.907,0h128.394
	c4.726,0,7.877,3.151,7.877,7.877C275.39,11.815,272.24,15.754,267.514,15.754z"/>
<g>
	<circle style="fill:#E1E6E8;" cx="187.169" cy="208.738" r="18.905"/>
	<circle style="fill:#E1E6E8;" cx="206.074" cy="92.948" r="18.905"/>
</g>
<path style="fill:#183651;" d="M393.544,445.046c-6.302,0-11.815-11.815-67.742-122.88l-26.782,59.077
	c-0.788,2.363-3.151,3.938-4.726,3.938c-2.363,0.788-4.726,0-6.302-0.788l-31.508-20.48l-39.385,43.323
	c-2.363,3.151-7.089,3.151-10.24,0.788l-29.932-21.268h-53.563c-4.726,0-7.877-3.151-7.877-7.877c0-4.726,3.151-7.877,7.877-7.877
	h55.926c1.575,0,3.151,0.788,4.726,1.575l25.206,18.117l39.385-43.323c2.363-3.151,7.089-3.151,10.24-1.575l29.932,19.692
	l29.932-65.378c1.575-3.151,3.938-4.726,7.089-4.726s5.514,1.575,7.089,4.726c18.905,37.809,48.049,94.523,60.652,119.729
	c4.726-10.24,14.178-25.994,29.145-53.563c2.363-3.938,6.302-4.726,10.24-3.151l62.228,29.145c3.938,1.575,5.514,6.302,3.938,10.24
	c-1.575,3.938-6.302,5.514-10.24,3.938l-55.926-25.994c-14.178,25.994-29.145,52.775-30.72,57.502
	C400.634,441.895,397.483,445.046,393.544,445.046z"/>
<g>
</g>
<g>
</g>
<g>
</g>
<g>
</g>
<g>
</g>
<g>
</g>
<g>
</g>
<g>
</g>
<g>
</g>
<g>
</g>
<g>
</g>
<g>
</g>
<g>
</g>
<g>
</g>
<g>
</g>
</svg>
