<svg width="512" height="512" xmlns="http://www.w3.org/2000/svg">

 <g>
  <title>background</title>
  <rect fill="none" id="canvas_background" height="402" width="582" y="-1" x="-1"/>
 </g>
 <g>
  <title>Layer 1</title>
  <rect id="svg_1" fill="#7C899B" height="77.723" width="248.713" y="61.693" x="131.643"/>
  <polygon id="svg_2" fill="#69788D" points="147.188,123.871 147.188,61.693 131.643,61.693 131.643,139.416 380.357,139.416   380.357,123.871 "/>
  <rect id="svg_3" fill="#B4BBC6" height="77.723" width="116.584" y="61.693" x="380.357"/>
  <polygon id="svg_4" fill="#A1ABB8" points="395.901,123.871 395.901,61.693 380.357,61.693 380.357,139.416 496.941,139.416   496.941,123.871 "/>
  <rect id="svg_5" fill="#B4BBC6" height="77.723" width="116.584" y="61.693" x="15.059"/>
  <polygon id="svg_6" fill="#A1ABB8" points="30.603,123.871 30.603,61.693 15.059,61.693 15.059,139.416 131.643,139.416   131.643,123.871 "/>
  <rect id="svg_7" fill="#B4BBC6" height="77.723" width="240.941" y="139.416" x="256"/>
  <polygon id="svg_8" fill="#A1ABB8" points="271.545,201.594 271.545,139.416 256,139.416 256,217.139 496.941,217.139 496.941,201.594   "/>
  <rect id="svg_9" fill="#7C899B" height="77.723" width="240.941" y="139.416" x="15.059"/>
  <polygon id="svg_10" fill="#69788D" points="30.603,201.594 30.603,139.416 15.059,139.416 15.059,217.139 263.772,217.139   263.772,201.594 "/>
  <rect id="svg_11" fill="#7C899B" height="77.723" width="240.941" y="294.861" x="256"/>
  <polygon id="svg_12" fill="#69788D" points="271.545,357.04 271.545,294.861 256,294.861 256,372.584 496.941,372.584 496.941,357.04 "/>
  <rect id="svg_13" fill="#B4BBC6" height="77.723" width="240.941" y="294.861" x="15.059"/>
  <polygon id="svg_14" fill="#A1ABB8" points="30.603,357.04 30.603,294.861 15.059,294.861 15.059,372.584 256,372.584 256,357.04 "/>
  <rect id="svg_15" fill="#7C899B" height="77.723" width="248.713" y="217.139" x="131.643"/>
  <g id="svg_16">
   <rect id="svg_17" fill="#B4BBC6" height="77.723" width="116.584" y="217.139" x="380.357"/>
   <rect id="svg_18" fill="#B4BBC6" height="77.723" width="116.584" y="217.139" x="15.059"/>
  </g>
  <g id="svg_19">
   <polygon id="svg_20" fill="#A1ABB8" points="30.603,279.317 30.603,217.139 15.059,217.139 15.059,294.861 131.643,294.861    131.643,279.317  "/>
   <polygon id="svg_21" fill="#A1ABB8" points="395.901,279.317 395.901,217.139 380.357,217.139 380.357,294.861 496.941,294.861    496.941,279.317  "/>
  </g>
  <polygon id="svg_22" fill="#69788D" points="147.188,271.545 147.188,209.366 131.643,209.366 131.643,287.089 380.357,287.089   380.357,271.545 "/>
  <rect id="svg_23" fill="#7C899B" height="77.723" width="248.713" y="372.584" x="131.643"/>
  <rect id="svg_24" fill="#B4BBC6" height="77.723" width="116.584" y="372.584" x="380.357"/>
  <polygon id="svg_25" fill="#A1ABB8" points="395.901,434.763 395.901,372.584 380.357,372.584 380.357,450.307 496.941,450.307   496.941,434.763 "/>
  <rect id="svg_26" fill="#B4BBC6" height="77.723" width="116.584" y="372.584" x="15.059"/>
  <polygon id="svg_27" fill="#69788D" points="147.188,434.763 147.188,372.584 131.643,372.584 131.643,450.307 380.357,450.307   380.357,434.763 "/>
  <polygon id="svg_28" fill="#A1ABB8" points="30.603,434.763 30.603,372.584 15.059,372.584 15.059,450.307 131.643,450.307   131.643,434.763 "/>
  <path id="svg_29" fill="#6b7b9e" d="m302.634,217.139l-46.634,-124.357l-62.178,170.991l-37.639,-18.031c-10.115,21.528 -16.767,41.523 -16.767,56.892c0,64.388 52.197,116.584 116.584,116.584s116.584,-52.197 116.584,-116.584c0,-26.725 -20.087,-67.414 -43.584,-105.874l-26.366,20.379z"/>
  <path id="svg_30" fill="#F7C14D" d="m201.594,341.495c0,-30.048 54.406,-108.812 54.406,-108.812s54.406,78.764 54.406,108.812c0,30.048 -24.358,54.406 -54.406,54.406s-54.406,-24.358 -54.406,-54.406z"/>
  <path id="svg_31" fill="#FFDB66" d="m256,372.584c-17.143,0 -31.089,-13.946 -31.089,-31.089c0,-0.51 0.273,-12.978 24.055,-53.974c2.368,-4.081 4.738,-8.049 7.033,-11.812c2.344,3.842 4.765,7.895 7.179,12.059c23.64,40.8 23.911,53.218 23.911,53.727c0,17.143 -13.946,31.089 -31.089,31.089z"/>
  <path id="svg_32" d="m330.32,189.593c-2.036,-0.375 -4.138,0.134 -5.776,1.401l-18.554,14.341l-43.168,-115.111c-2.326,-6.2 -11.407,-6.158 -13.671,0.068l-59.431,163.437l-30.39,-14.559c-3.601,-1.724 -8.049,-0.134 -9.743,3.473c-11.748,25.003 -17.459,44.627 -17.459,59.99c0,68.303 55.568,123.871 123.871,123.871s123.871,-55.568 123.871,-123.871c0,-24.276 -15.024,-61.175 -44.653,-109.673c-1.078,-1.767 -2.86,-2.991 -4.897,-3.367zm-74.32,222.339c-60.266,0 -109.298,-49.031 -109.298,-109.298c0,-11.69 4.38,-27.518 13.029,-47.113l30.942,14.823c3.83,1.834 8.548,-0.1 9.996,-4.081l55.436,-152.449l39.706,105.883c1.692,4.514 7.458,6.16 11.279,3.207l19.895,-15.377c25.089,42.165 38.313,74.953 38.313,95.108c0,60.266 -49.032,109.297 -109.298,109.297z"/>
  <path id="svg_33" d="m291.883,291.234c-3.586,1.826 -5.012,6.214 -3.187,9.8c11.921,23.412 14.423,34.926 14.423,40.462c0,25.982 -21.138,47.12 -47.12,47.12s-47.12,-21.138 -47.12,-47.12c0,-20.124 29.945,-69.719 47.104,-95.745c3.858,5.864 9.206,14.178 14.907,23.595c2.085,3.442 6.566,4.542 10.007,2.46c3.443,-2.085 4.544,-6.565 2.46,-10.007c-11.283,-18.638 -20.957,-32.668 -21.363,-33.256c-2.848,-4.122 -9.143,-4.122 -11.991,0c-5.701,8.252 -55.697,81.54 -55.697,112.953c0,34.017 27.675,61.693 61.693,61.693s61.693,-27.675 61.693,-61.693c0,-10.519 -5.238,-25.917 -16.01,-47.075c-1.825,-3.587 -6.213,-5.012 -9.799,-3.187z"/>
  <path id="svg_34" d="m15.059,132.129c-4.025,0 -7.287,3.262 -7.287,7.287s3.261,7.287 7.287,7.287l203.051,0c4.025,0 7.287,-3.262 7.287,-7.287s-3.261,-7.287 -7.287,-7.287l-79.18,0l0,-63.15l234.14,0l0,63.15l-78.209,0c-4.025,0 -7.287,3.262 -7.287,7.287s3.261,7.287 7.287,7.287l202.08,0c4.025,0 7.287,-3.262 7.287,-7.287s-3.261,-7.287 -7.287,-7.287l-109.298,0l0,-63.15l109.298,0c4.025,0 7.287,-3.262 7.287,-7.287s-3.261,-7.287 -7.287,-7.287l-481.882,0c-4.025,0 -7.287,3.262 -7.287,7.287s3.261,7.287 7.287,7.287l109.298,0l0,63.15l-109.298,0z"/>
  <path id="svg_35" d="m15.059,224.425l109.298,0l0,16.03c0,4.024 3.261,7.287 7.287,7.287s7.287,-3.262 7.287,-7.287l0,-16.03l46.148,0c4.025,0 7.287,-3.262 7.287,-7.287s-3.261,-7.287 -7.287,-7.287l-170.02,0c-4.025,0 -7.287,3.262 -7.287,7.287s3.262,7.287 7.287,7.287z"/>
  <path id="svg_36" d="m496.941,209.852l-133.1,0c-4.025,0 -7.287,3.262 -7.287,7.287s3.261,7.287 7.287,7.287l9.23,0l0,16.03c0,4.024 3.261,7.287 7.287,7.287c4.025,0 7.287,-3.262 7.287,-7.287l0,-16.03l109.298,0c4.025,0 7.287,-3.262 7.287,-7.287s-3.264,-7.287 -7.289,-7.287z"/>
  <path id="svg_37" d="m496.941,287.575l-101.04,0c-4.025,0 -7.287,3.262 -7.287,7.287s3.261,7.287 7.287,7.287l101.04,0c4.025,0 7.287,-3.262 7.287,-7.287s-3.262,-7.287 -7.287,-7.287z"/>
  <path id="svg_38" d="m15.059,302.148l101.04,0c4.025,0 7.287,-3.262 7.287,-7.287s-3.261,-7.287 -7.287,-7.287l-101.04,0c-4.025,0 -7.287,3.262 -7.287,7.287s3.262,7.287 7.287,7.287z"/>
  <path id="svg_39" d="m504.713,443.021l-117.07,0l0,-63.15l117.07,0c4.025,0 7.287,-3.262 7.287,-7.287s-3.261,-7.287 -7.287,-7.287l-117.07,0l0,-8.258c0,-4.024 -3.261,-7.287 -7.287,-7.287c-4.025,0 -7.287,3.262 -7.287,7.287l0,85.981l-234.139,0l0,-85.98c0,-4.024 -3.261,-7.287 -7.287,-7.287s-7.287,3.262 -7.287,7.287l0,8.258l-117.069,0c-4.025,0 -7.287,3.262 -7.287,7.287s3.261,7.287 7.287,7.287l117.07,0l0,63.15l-117.07,0c-4.025,0 -7.287,3.262 -7.287,7.287s3.261,7.287 7.287,7.287l497.427,0c4.025,0 7.287,-3.262 7.287,-7.287s-3.262,-7.288 -7.288,-7.288z"/>
  <g id="svg_40"/>
  <g id="svg_41"/>
  <g id="svg_42"/>
  <g id="svg_43"/>
  <g id="svg_44"/>
  <g id="svg_45"/>
  <g id="svg_46"/>
  <g id="svg_47"/>
  <g id="svg_48"/>
  <g id="svg_49"/>
  <g id="svg_50"/>
  <g id="svg_51"/>
  <g id="svg_52"/>
  <g id="svg_53"/>
  <g id="svg_54"/>
 </g>
</svg>