<svg width="512" height="512" xmlns="http://www.w3.org/2000/svg">

 <g>
  <title>background</title>
  <rect fill="none" id="canvas_background" height="402" width="582" y="-1" x="-1"/>
 </g>
 <g>
  <title>Layer 1</title>
  <rect id="svg_1" fill="#ECEEF1" height="400.783" width="496.971" y="55.609" x="7.515"/>
  <rect id="svg_2" fill="#D9DDE2" height="400.783" width="32.063" y="55.609" x="7.515"/>
  <rect id="svg_3" fill="#69788D" height="80.157" width="496.971" y="55.609" x="7.515"/>
  <rect id="svg_4" fill="#435670" height="80.157" width="32.063" y="55.609" x="7.515"/>
  <circle id="svg_5" fill="#FF8C78" r="16.031" cy="95.687" cx="464.407"/>
  <circle id="svg_6" fill="#FFDB66" r="16.031" cy="95.687" cx="400.282"/>
  <circle id="svg_7" fill="#7EC97D" r="16.031" cy="95.687" cx="336.157"/>
  <ellipse id="svg_8" fill="#6b7b9e" ry="72.141" rx="56.11" cy="272.031" cx="256"/>
  <path id="svg_9" fill="#6b7b9e" d="m280.047,336.157c-30.989,0 -56.11,-32.298 -56.11,-72.141c0,-27.887 12.316,-52.062 30.329,-64.069c-30.184,1.181 -54.376,32.989 -54.376,72.085c0,39.843 25.121,72.141 56.11,72.141c9.298,0 18.059,-2.925 25.78,-8.072c-0.577,0.021 -1.152,0.056 -1.733,0.056z"/>
  <circle id="svg_10" fill="#6b7b9e" r="24.047" cy="360.204" cx="256"/>
  <path id="svg_11" fill="#F09B24" d="m272.031,376.235c-13.281,0 -24.047,-10.766 -24.047,-24.047c0,-6.119 2.289,-11.701 6.053,-15.945c-12.362,1 -22.084,11.341 -22.084,23.961c0,13.281 10.766,24.047 24.047,24.047c7.162,0 13.589,-3.134 17.994,-8.102c-0.648,0.052 -1.301,0.086 -1.963,0.086z"/>
  <g id="svg_12">
   <path id="svg_13" fill="#6b7b9e" d="m462.169,281.074l-40.078,-56.11c-3.861,-5.406 -11.372,-6.655 -16.772,-2.795c-5.405,3.86 -6.656,11.369 -2.795,16.772l35.087,49.121l-35.087,49.121c-3.861,5.404 -2.609,12.913 2.795,16.772c2.118,1.514 4.56,2.24 6.979,2.24c3.75,0 7.448,-1.75 9.793,-5.036l40.078,-56.11c2.986,-4.178 2.986,-9.795 0,-13.975z"/>
   <path id="svg_14" fill="#6b7b9e" d="m49.831,281.074l40.078,-56.11c3.861,-5.406 11.372,-6.655 16.772,-2.795c5.405,3.86 6.656,11.369 2.795,16.772l-35.086,49.122l35.087,49.121c3.861,5.404 2.609,12.913 -2.795,16.772c-2.118,1.514 -4.56,2.24 -6.979,2.24c-3.75,0 -7.448,-1.75 -9.793,-5.036l-40.078,-56.11c-2.987,-4.179 -2.987,-9.796 -0.001,-13.976z"/>
  </g>
  <path id="svg_15" d="m504.485,48.094l-496.97,0c-4.151,0 -7.515,3.364 -7.515,7.515l0,400.783c0,4.151 3.364,7.515 7.515,7.515l496.971,0c4.151,0 7.515,-3.364 7.515,-7.515l0,-400.783c-0.001,-4.151 -3.365,-7.515 -7.516,-7.515zm-489.456,400.783l0,-305.597l380.911,0c4.151,0 7.515,-3.364 7.515,-7.515s-3.364,-7.515 -7.515,-7.515l-380.911,0l0,-65.127l481.941,0l0,65.127l-64.625,0c-4.151,0 -7.515,3.364 -7.515,7.515s3.364,7.515 7.515,7.515l64.625,0l0,305.597l-481.941,0z"/>
  <path id="svg_16" d="m464.407,119.233c12.983,0 23.546,-10.563 23.546,-23.546s-10.563,-23.546 -23.546,-23.546s-23.546,10.563 -23.546,23.546s10.563,23.546 23.546,23.546zm0,-32.063c4.696,0 8.517,3.82 8.517,8.517s-3.82,8.517 -8.517,8.517c-4.696,0 -8.517,-3.82 -8.517,-8.517s3.821,-8.517 8.517,-8.517z"/>
  <path id="svg_17" d="m423.828,95.687c0,-12.983 -10.563,-23.546 -23.546,-23.546s-23.546,10.563 -23.546,23.546s10.563,23.546 23.546,23.546s23.546,-10.563 23.546,-23.546zm-23.546,8.517c-4.696,0 -8.517,-3.82 -8.517,-8.517s3.82,-8.517 8.517,-8.517c4.696,0 8.517,3.82 8.517,8.517s-3.821,8.517 -8.517,8.517z"/>
  <path id="svg_18" d="m336.157,72.141c-12.983,0 -23.546,10.563 -23.546,23.546s10.563,23.546 23.546,23.546s23.546,-10.563 23.546,-23.546s-10.563,-23.546 -23.546,-23.546zm0,32.063c-4.696,0 -8.517,-3.82 -8.517,-8.517s3.82,-8.517 8.517,-8.517c4.696,0 8.517,3.82 8.517,8.517s-3.821,8.517 -8.517,8.517z"/>
  <path id="svg_19" d="m47.593,88.172l-8.016,0c-4.151,0 -7.515,3.364 -7.515,7.515c0,4.151 3.364,7.515 7.515,7.515l8.016,0c4.151,0 7.515,-3.364 7.515,-7.515c0,-4.151 -3.364,-7.515 -7.515,-7.515z"/>
  <path id="svg_20" d="m87.671,88.172l-16.031,0c-4.151,0 -7.515,3.364 -7.515,7.515c0,4.151 3.364,7.515 7.515,7.515l16.031,0c4.151,0 7.515,-3.364 7.515,-7.515c0,-4.151 -3.364,-7.515 -7.515,-7.515z"/>
  <path id="svg_21" d="m119.734,88.172l-8.016,0c-4.151,0 -7.515,3.364 -7.515,7.515c0,4.151 3.364,7.515 7.515,7.515l8.016,0c4.151,0 7.515,-3.364 7.515,-7.515c0,-4.151 -3.364,-7.515 -7.515,-7.515z"/>
  <path id="svg_22" d="m364.859,273.326l-28.161,14.081l-17.16,-11.439c0.052,-1.308 0.087,-2.618 0.087,-3.936c0,-12.441 -2.294,-24.223 -6.374,-34.725l25.107,5.022c3.119,0.626 6.374,-0.846 7.972,-3.594l20.373,-35.068c2.084,-3.589 0.865,-8.188 -2.723,-10.273c-3.589,-2.084 -8.188,-0.865 -10.273,2.723l-17.673,30.42l-31.797,-6.36c-11.678,-17.002 -28.964,-27.801 -48.236,-27.801s-36.558,10.799 -48.236,27.8l-31.797,6.36l-17.673,-30.42c-2.086,-3.59 -6.685,-4.807 -10.273,-2.723c-3.588,2.085 -4.807,6.684 -2.723,10.273l20.373,35.068c1.597,2.748 4.852,4.22 7.972,3.594l25.107,-5.022c-4.079,10.501 -6.373,22.284 -6.373,34.725c0,1.318 0.036,2.629 0.087,3.936l-17.16,11.439l-28.161,-14.081c-3.713,-1.859 -8.227,-0.352 -10.083,3.361c-1.857,3.712 -0.352,8.226 3.361,10.083l32.063,16.031c2.389,1.195 5.307,1.012 7.53,-0.469l14.547,-9.698c2.53,11.775 7.177,22.626 13.486,31.728l-20.34,13.559c-2.091,1.394 -3.347,3.739 -3.347,6.252l0,32.063c0,4.151 3.364,7.515 7.515,7.515s7.515,-3.364 7.515,-7.515l0,-28.041l18.513,-12.342c3.39,3.186 7.052,5.968 10.955,8.269c-2.803,4.713 -4.42,10.212 -4.42,16.082c0,17.403 14.159,31.562 31.562,31.562s31.562,-14.159 31.562,-31.562c0,-5.87 -1.616,-11.369 -4.42,-16.082c3.904,-2.303 7.566,-5.083 10.955,-8.269l18.513,12.342l0,28.041c0,4.151 3.364,7.515 7.515,7.515s7.515,-3.364 7.515,-7.515l0,-32.063c0,-2.513 -1.255,-4.859 -3.347,-6.252l-20.34,-13.559c6.31,-9.102 10.956,-19.953 13.486,-31.728l14.547,9.698c2.221,1.481 5.141,1.664 7.53,0.469l32.063,-16.031c3.711,-1.857 5.216,-6.369 3.361,-10.083c-1.856,-3.712 -6.368,-5.215 -10.082,-3.36zm-108.859,103.41c-9.116,0 -16.532,-7.417 -16.532,-16.532s7.416,-16.532 16.532,-16.532s16.532,7.417 16.532,16.532s-7.416,16.532 -16.532,16.532zm16.018,-43.712c-4.699,-2.779 -10.174,-4.383 -16.018,-4.383s-11.319,1.603 -16.018,4.383c-19.494,-9.128 -32.577,-33.596 -32.577,-60.993c0,-15.26 4.007,-29.292 10.683,-40.361c0.377,-0.466 0.69,-0.979 0.947,-1.521c8.92,-13.903 22.177,-22.744 36.965,-22.744c14.788,0 28.045,8.841 36.965,22.745c0.257,0.542 0.57,1.055 0.947,1.521c6.676,11.068 10.683,25.1 10.683,40.36c0,27.398 -13.083,51.866 -32.577,60.993z"/>
  <path id="svg_23" d="m256,232.454c-4.151,0 -7.515,3.364 -7.515,7.515l0,40.078c0,4.151 3.364,7.515 7.515,7.515c4.151,0 7.515,-3.364 7.515,-7.515l0,-40.078c0,-4.151 -3.364,-7.515 -7.515,-7.515z"/>
  <path id="svg_24" d="m261.31,298.784c-1.743,-1.753 -4.338,-2.556 -6.783,-2.055c-3.473,0.67 -6.042,3.837 -6.042,7.365c0,4.093 3.422,7.515 7.515,7.515c4.088,0 7.515,-3.424 7.515,-7.515c0,-1.018 -0.298,-2.238 -0.581,-2.876c-0.198,-0.444 -0.927,-1.757 -1.624,-2.434z"/>
  <path id="svg_25" d="m428.205,220.598c-6.185,-8.663 -18.582,-10.739 -27.254,-4.544c-8.663,6.186 -10.74,18.582 -4.543,27.255l31.965,44.753l-31.965,44.753c-6.196,8.672 -4.12,21.068 4.541,27.254c8.661,6.187 21.073,4.116 27.255,-4.542l40.078,-56.11c4.853,-6.792 4.853,-15.92 0,-22.712l-40.077,-56.107zm27.849,70.085l-40.079,56.111c-1.354,1.895 -4.003,2.44 -5.998,1.239c-2.219,-1.336 -2.845,-4.374 -1.34,-6.482l35.088,-49.121c1.866,-2.612 1.866,-6.123 0,-8.736l-35.088,-49.121c-1.428,-2.001 -0.949,-4.863 1.05,-6.29s4.861,-0.947 6.288,1.05l40.078,56.11c1.12,1.567 1.12,3.673 0.001,5.24z"/>
  <path id="svg_26" d="m118.966,228.741c-0.858,-5.148 -3.67,-9.654 -7.915,-12.685c-8.671,-6.196 -21.071,-4.121 -27.255,4.541l-40.078,56.11c-4.853,6.792 -4.853,15.92 0,22.712l40.077,56.109c6.182,8.657 18.593,10.732 27.254,4.544c8.663,-6.186 10.74,-18.582 4.543,-27.255l-31.965,-44.753l31.965,-44.753c3.035,-4.248 4.232,-9.421 3.374,-14.57zm-15.603,5.832l-35.088,49.121c-1.866,2.612 -1.866,6.123 0,8.736l35.088,49.121c1.51,2.116 0.872,5.135 -1.342,6.482c-1.989,1.21 -4.648,0.646 -5.997,-1.241l-40.078,-56.11c-1.119,-1.567 -1.119,-3.673 0,-5.24l40.079,-56.111c1.427,-1.998 4.291,-2.475 6.289,-1.047c1.999,1.428 2.477,4.289 1.049,6.289z"/>
  <g id="svg_27"/>
  <g id="svg_28"/>
  <g id="svg_29"/>
  <g id="svg_30"/>
  <g id="svg_31"/>
  <g id="svg_32"/>
  <g id="svg_33"/>
  <g id="svg_34"/>
  <g id="svg_35"/>
  <g id="svg_36"/>
  <g id="svg_37"/>
  <g id="svg_38"/>
  <g id="svg_39"/>
  <g id="svg_40"/>
  <g id="svg_41"/>
 </g>
</svg>