<svg width="496" height="496" xmlns="http://www.w3.org/2000/svg">

 <g>
  <title>background</title>
  <rect fill="none" id="canvas_background" height="402" width="582" y="-1" x="-1"/>
 </g>
 <g>
  <title>Layer 1</title>
  <rect id="svg_1" fill="#6b7b9e" height="272" width="432" y="112" x="32"/>
  <path id="svg_2" d="m456,80l-104,0l0,16l104,0c13.232,0 24,10.768 24,24l0,264l-464,0l0,-264c0,-13.232 10.768,-24 24,-24l104,0l0,-16l-104,0c-22.056,0 -40,17.944 -40,40l0,264l0,8l0,16c0,22.056 17.944,40 40,40l96,0l0,32l-32,0l0,16l288,0l0,-16l-32,0l0,-32l96,0c22.056,0 40,-17.944 40,-40l0,-16l0,-8l0,-264c0,-22.056 -17.944,-40 -40,-40zm-112,400l-192,0l0,-32l192,0l0,32zm136,-72c0,13.232 -10.768,24 -24,24l-416,0c-13.232,0 -24,-10.768 -24,-24l0,-8l464,0l0,8z"/>
  <path id="svg_3" d="m120,48c4.912,0 9.48,-1.496 13.288,-4.04l27.912,20.928c-0.712,2.264 -1.2,4.624 -1.2,7.112c0,10.416 6.712,19.216 16,22.528l0,26.952c-9.288,3.312 -16,12.112 -16,22.528c0,2.488 0.488,4.848 1.2,7.104l-27.912,20.928c-3.808,-2.544 -8.376,-4.04 -13.288,-4.04c-13.232,0 -24,10.768 -24,24c0,10.416 6.712,19.216 16,22.528l0,26.952c-9.288,3.312 -16,12.112 -16,22.528c0,13.232 10.768,24 24,24c5.632,0 10.752,-2.032 14.848,-5.288l25.752,16.096c-0.368,1.664 -0.6,3.4 -0.6,5.184c0,13.232 10.768,24 24,24s24,-10.768 24,-24c0,-2.024 -0.328,-3.968 -0.808,-5.848l24.712,-16.472c4.264,3.888 9.88,6.32 16.096,6.32s11.832,-2.432 16.096,-6.32l24.712,16.472c-0.48,1.88 -0.808,3.824 -0.808,5.848c0,13.232 10.768,24 24,24s24,-10.768 24,-24c0,-1.784 -0.232,-3.52 -0.6,-5.192l25.752,-16.096c4.096,3.256 9.216,5.288 14.848,5.288c13.232,0 24,-10.768 24,-24c0,-10.416 -6.712,-19.216 -16,-22.528l0,-26.952c9.288,-3.312 16,-12.112 16,-22.528c0,-13.232 -10.768,-24 -24,-24c-4.912,0 -9.48,1.496 -13.288,4.04l-27.912,-20.928c0.712,-2.256 1.2,-4.616 1.2,-7.104c0,-10.416 -6.712,-19.216 -16,-22.528l0,-26.952c9.288,-3.312 16,-12.112 16,-22.528c0,-2.488 -0.488,-4.848 -1.192,-7.104l27.912,-20.928c3.8,2.544 8.368,4.04 13.28,4.04c13.232,0 24,-10.768 24,-24s-10.768,-24 -24,-24s-24,10.768 -24,24c0,2.488 0.488,4.848 1.192,7.104l-27.912,20.928c-3.8,-2.536 -8.368,-4.032 -13.28,-4.032s-9.48,1.496 -13.288,4.04l-27.912,-20.936c0.712,-2.256 1.2,-4.616 1.2,-7.104c0,-13.232 -10.768,-24 -24,-24s-24,10.768 -24,24c0,2.488 0.488,4.84 1.192,7.104l-27.912,20.936c-3.8,-2.544 -8.368,-4.04 -13.28,-4.04s-9.48,1.496 -13.28,4.032l-27.912,-20.928c0.704,-2.256 1.192,-4.616 1.192,-7.104c0,-13.232 -10.768,-24 -24,-24s-24,10.768 -24,24s10.768,24 24,24zm88,24c0,-2.488 -0.488,-4.84 -1.192,-7.104l27.912,-20.936c3.8,2.544 8.368,4.04 13.28,4.04c4.912,0 9.48,-1.496 13.288,-4.04l27.912,20.936c-0.712,2.264 -1.2,4.616 -1.2,7.104c0,10.416 6.712,19.216 16,22.528l0,26.952c-9.288,3.312 -16,12.112 -16,22.528c0,2.488 0.488,4.848 1.2,7.104l-27.912,20.928c-3.808,-2.544 -8.376,-4.04 -13.288,-4.04s-9.48,1.496 -13.288,4.04l-27.912,-20.928c0.712,-2.264 1.2,-4.624 1.2,-7.112c0,-10.416 -6.712,-19.216 -16,-22.528l0,-26.952c9.288,-3.304 16,-12.104 16,-22.52zm160,142.528l0,26.952c-9.288,3.312 -16,12.112 -16,22.528c0,1.784 0.232,3.52 0.6,5.192l-25.752,16.096c-4.096,-3.264 -9.216,-5.296 -14.848,-5.296c-5.384,0 -10.304,1.848 -14.312,4.848l-26.04,-17.36c0.168,-1.152 0.352,-2.296 0.352,-3.488c0,-10.416 -6.712,-19.216 -16,-22.528l0,-26.952c9.288,-3.312 16,-12.112 16,-22.528c0,-2.488 -0.488,-4.848 -1.192,-7.104l27.912,-20.936c3.8,2.552 8.368,4.048 13.28,4.048s9.48,-1.496 13.28,-4.032l27.912,20.936c-0.704,2.256 -1.192,4.608 -1.192,7.096c0,10.416 6.712,19.216 16,22.528zm-144,49.472c0,1.192 0.184,2.336 0.352,3.488l-26.04,17.36c-4.008,-3 -8.928,-4.848 -14.312,-4.848c-5.632,0 -10.752,2.032 -14.848,5.288l-25.752,-16.096c0.368,-1.672 0.6,-3.408 0.6,-5.192c0,-10.416 -6.712,-19.216 -16,-22.528l0,-26.952c9.288,-3.312 16,-12.112 16,-22.528c0,-2.488 -0.488,-4.84 -1.192,-7.104l27.912,-20.936c3.8,2.552 8.368,4.048 13.28,4.048s9.48,-1.496 13.28,-4.032l27.912,20.936c-0.704,2.248 -1.192,4.608 -1.192,7.096c0,10.416 6.712,19.216 16,22.528l0,26.952c-9.288,3.304 -16,12.104 -16,22.52zm16,-72c0,-4.416 3.592,-8 8,-8c4.408,0 8,3.584 8,8s-3.592,8 -8,8s-8,-3.584 -8,-8zm72,-40c-4.408,0 -8,-3.584 -8,-8s3.592,-8 8,-8s8,3.584 8,8s-3.592,8 -8,8zm-128,-16c4.408,0 8,3.584 8,8s-3.592,8 -8,8s-8,-3.584 -8,-8s3.592,-8 8,-8zm-64,48c4.408,0 8,3.584 8,8s-3.592,8 -8,8s-8,-3.584 -8,-8s3.592,-8 8,-8zm0,88c-4.408,0 -8,-3.584 -8,-8s3.592,-8 8,-8c4.408,0 8,3.584 8,8s-3.592,8 -8,8zm64,40c-4.408,0 -8,-3.584 -8,-8s3.592,-8 8,-8s8,3.584 8,8s-3.592,8 -8,8zm64,-40c-4.408,0 -8,-3.584 -8,-8s3.592,-8 8,-8c4.408,0 8,3.584 8,8s-3.592,8 -8,8zm64,40c-4.408,0 -8,-3.584 -8,-8s3.592,-8 8,-8s8,3.584 8,8s-3.592,8 -8,8zm64,-40c-4.408,0 -8,-3.584 -8,-8s3.592,-8 8,-8s8,3.584 8,8s-3.592,8 -8,8zm0,-88c4.408,0 8,3.584 8,8s-3.592,8 -8,8s-8,-3.584 -8,-8s3.592,-8 8,-8zm0,-168c4.408,0 8,3.584 8,8s-3.592,8 -8,8s-8,-3.584 -8,-8s3.592,-8 8,-8zm-64,48c4.408,0 8,3.584 8,8s-3.592,8 -8,8s-8,-3.584 -8,-8s3.592,-8 8,-8zm-64,-48c4.408,0 8,3.584 8,8s-3.592,8 -8,8s-8,-3.584 -8,-8s3.592,-8 8,-8zm-64,48c4.408,0 8,3.584 8,8s-3.592,8 -8,8s-8,-3.584 -8,-8s3.592,-8 8,-8zm-64,-48c4.408,0 8,3.584 8,8s-3.592,8 -8,8s-8,-3.584 -8,-8s3.592,-8 8,-8z"/>
  <rect id="svg_4" height="16" width="32" y="128" x="48"/>
  <rect id="svg_5" height="16" width="32" y="160" x="48"/>
  <rect id="svg_6" height="16" width="32" y="304" x="48"/>
  <rect id="svg_7" height="16" width="32" y="336" x="48"/>
  <rect id="svg_8" height="16" width="32" y="128" x="416"/>
  <rect id="svg_9" height="16" width="32" y="160" x="416"/>
  <rect id="svg_10" height="16" width="16" y="336" x="368"/>
  <rect id="svg_11" height="16" width="16" y="336" x="400"/>
  <rect id="svg_12" height="16" width="16" y="336" x="432"/>
  <g id="svg_13"/>
  <g id="svg_14"/>
  <g id="svg_15"/>
  <g id="svg_16"/>
  <g id="svg_17"/>
  <g id="svg_18"/>
  <g id="svg_19"/>
  <g id="svg_20"/>
  <g id="svg_21"/>
  <g id="svg_22"/>
  <g id="svg_23"/>
  <g id="svg_24"/>
  <g id="svg_25"/>
  <g id="svg_26"/>
  <g id="svg_27"/>
 </g>
</svg>