<svg width="496" height="496" xmlns="http://www.w3.org/2000/svg">

 <g>
  <title>background</title>
  <rect fill="none" id="canvas_background" height="402" width="582" y="-1" x="-1"/>
 </g>
 <g>
  <title>Layer 1</title>
  <g id="svg_1">
   <path id="svg_2" fill="#6b7b9e" d="m96,232l0,20.448c-50.712,14.016 -88,60.376 -88,115.552c0,66.272 53.728,120 120,120s120,-53.728 120,-120c0,-55.176 -37.288,-101.536 -88,-115.552l0,-20.448l-64,0z"/>
   <path id="svg_3" fill="#6b7b9e" d="m312,488l128,0c17.672,0 32,-14.328 32,-32l0,-160l-192,0l0,160c0,17.672 14.328,32 32,32z"/>
  </g>
  <path id="svg_4" d="m168,246.512l0,-86.512l32,0l0,-36.496c3.024,-1.76 5.864,-3.864 8.2,-6.568c6.08,-7.024 8.8,-16.384 7.456,-25.664c-1.344,-9.336 -7.368,-17.904 -16.112,-22.928c-5.352,-3.08 -10.92,-4.544 -16.552,-4.328c-3.744,-14.512 -17.672,-25.128 -33.336,-23.92c-6.936,-23.368 -28.656,-40.096 -53.656,-40.096c-30.88,0 -56,25.12 -56,56c0,0.056 0,0.112 0,0.168c-9.976,7.512 -16,19.304 -16,31.832l0,80c0,13.232 10.768,24 24,24c3.12,0 6.104,-0.6 8.84,-1.688c2.784,10.184 12.112,17.688 23.16,17.688c2.816,0 5.488,-0.576 8,-1.472l0,39.984c-52.112,17.144 -88,66.24 -88,121.488c0,70.576 57.424,128 128,128s128,-57.424 128,-128c0,-55.248 -35.888,-104.344 -88,-121.488zm16,-102.512l-80,0l0,-16l80,0l0,16zm-104,48c-4.408,0 -8,-3.592 -8,-8l0,-16l0,-8l-16,0l0,8c0,4.408 -3.592,8 -8,8s-8,-3.592 -8,-8l0,-80c0,-8.624 4.56,-16.376 12.2,-20.744l4.464,-2.544l-0.464,-5.12c-0.112,-1.184 -0.2,-2.376 -0.2,-3.592c0,-22.056 17.944,-40 40,-40c19.944,0 36.968,14.904 39.6,34.672l1.336,9.992l9.424,-3.56c11.384,-4.288 21.64,4.28 21.64,14.664l-0.872,13.416l11.456,-4.152c4.632,-1.672 8.648,-1.328 12.992,1.176c4.448,2.552 7.616,6.904 8.256,11.344c0.688,4.752 -0.632,9.336 -3.712,12.904c-3.056,3.528 -7.472,5.544 -12.12,5.544l-96,0l0,40l0,32c0,4.408 -3.592,8 -8,8zm48,288c-61.76,0 -112,-50.24 -112,-112c0,-50.128 33.776,-94.472 82.136,-107.84l5.864,-1.624l0,-74.536l0,-24l48,0l0,98.536l5.864,1.624c48.36,13.368 82.136,57.712 82.136,107.84c0,61.76 -50.24,112 -112,112z"/>
  <path id="svg_5" d="m168,392c0,13.232 10.768,24 24,24s24,-10.768 24,-24s-10.768,-24 -24,-24s-24,10.768 -24,24zm32,0c0,4.408 -3.592,8 -8,8s-8,-3.592 -8,-8s3.592,-8 8,-8s8,3.592 8,8z"/>
  <path id="svg_6" d="m80,344c13.232,0 24,-10.768 24,-24s-10.768,-24 -24,-24s-24,10.768 -24,24s10.768,24 24,24zm0,-32c4.408,0 8,3.592 8,8s-3.592,8 -8,8s-8,-3.592 -8,-8s3.592,-8 8,-8z"/>
  <rect id="svg_7" height="128" width="16" y="312" x="432"/>
  <path id="svg_8" d="m496,22.4l0,-0.872c0,-11.864 -9.664,-21.528 -21.528,-21.528c-9.808,0 -18.376,6.632 -20.84,16.128l-51.824,199.872l-145.808,0l0,48l16,0l0,192c0,22.056 17.944,40 40,40l128,0c22.056,0 40,-17.944 40,-40l0,-192l16,0l0,-48l-45.856,0l45.256,-188.56c0.4,-1.648 0.6,-3.344 0.6,-5.04zm-16,225.6l-32,0l0,16l16,0l0,192c0,13.232 -10.768,24 -24,24l-128,0c-13.232,0 -24,-10.768 -24,-24l0,-16l32,0l0,-16l-32,0l0,-24l48,0l0,-16l-48,0l0,-32l32,0l0,-16l-32,0l0,-24l48,0l0,-16l-48,0l0,-32l144,0l0,-16l-160,0l0,-16l208,0l0,16zm0,-225.6c0,0.432 -0.048,0.864 -0.152,1.296l-46.152,192.304l-15.36,0l50.776,-195.856c0.632,-2.44 2.84,-4.144 5.36,-4.144c3.048,0 5.528,2.48 5.528,5.528l0,0.872z"/>
  <path id="svg_9" d="m272,96c17.648,0 32,-14.352 32,-32s-14.352,-32 -32,-32s-32,14.352 -32,32s14.352,32 32,32zm0,-48c8.824,0 16,7.176 16,16s-7.176,16 -16,16s-16,-7.176 -16,-16s7.176,-16 16,-16z"/>
  <path id="svg_10" d="m296,152c0,13.232 10.768,24 24,24s24,-10.768 24,-24s-10.768,-24 -24,-24s-24,10.768 -24,24zm24,-8c4.408,0 8,3.592 8,8s-3.592,8 -8,8s-8,-3.592 -8,-8s3.592,-8 8,-8z"/>
  <path id="svg_11" d="m192,200c0,13.232 10.768,24 24,24s24,-10.768 24,-24s-10.768,-24 -24,-24s-24,10.768 -24,24zm24,-8c4.408,0 8,3.592 8,8s-3.592,8 -8,8s-8,-3.592 -8,-8s3.592,-8 8,-8z"/>
  <rect id="svg_12" height="16" width="16" y="280" x="432"/>
  <rect id="svg_13" height="16" width="16" y="80" x="72"/>
  <rect id="svg_14" height="16" width="16" y="40" x="88"/>
  <rect id="svg_15" height="16" width="16" y="72" x="136"/>
  <path id="svg_16" d="m48,368l-16,0c0,5.864 0.528,11.736 1.584,17.448l15.736,-2.888c-0.88,-4.76 -1.32,-9.664 -1.32,-14.56z"/>
  <path id="svg_17" d="m53.456,397.088l-14.904,5.824c14.488,37.104 49.6,61.088 89.448,61.088l0,-16c-33.208,0 -62.472,-19.984 -74.544,-50.912z"/>
  <g id="svg_18"/>
  <g id="svg_19"/>
  <g id="svg_20"/>
  <g id="svg_21"/>
  <g id="svg_22"/>
  <g id="svg_23"/>
  <g id="svg_24"/>
  <g id="svg_25"/>
  <g id="svg_26"/>
  <g id="svg_27"/>
  <g id="svg_28"/>
  <g id="svg_29"/>
  <g id="svg_30"/>
  <g id="svg_31"/>
  <g id="svg_32"/>
 </g>
</svg>