<svg width="496" height="496" xmlns="http://www.w3.org/2000/svg">

 <g>
  <title>background</title>
  <rect fill="none" id="canvas_background" height="402" width="582" y="-1" x="-1"/>
 </g>
 <g>
  <title>Layer 1</title>
  <g id="svg_1">
   <path id="svg_2" fill="#6b7b9e" d="m32,112l0,304c0,39.768 32.232,72 72,72l0,0c39.768,0 72,-32.232 72,-72l0,-320c-56,0 -88,16 -144,16z"/>
   <circle id="svg_3" fill="#6b7b9e" r="104" cy="136" cx="360"/>
  </g>
  <path id="svg_4" d="m176,0l-144,0c-17.648,0 -32,14.352 -32,32c0,14.864 10.24,27.288 24,30.864l0,353.136c0,44.112 35.888,80 80,80s80,-35.888 80,-80l0,-353.136c13.76,-3.576 24,-16 24,-30.864c0,-17.648 -14.352,-32 -32,-32zm-136,313.136c13.76,3.576 24,16 24,30.864s-10.24,27.288 -24,30.864l0,-61.728zm128,-58.272c-13.76,-3.576 -24,-16 -24,-30.864s10.24,-27.288 24,-30.864l0,61.728zm8,-206.864l-24,0l0,16l16,0l0,112.72c-22.664,3.824 -40,23.536 -40,47.28s17.336,43.448 40,47.28l0,144.72c0,35.288 -28.712,64 -64,64s-64,-28.712 -64,-64l0,-24.72c22.664,-3.824 40,-23.536 40,-47.28s-17.336,-43.448 -40,-47.28l0,-232.72l96,0l0,-16l-104,0c-8.824,0 -16,-7.176 -16,-16s7.176,-16 16,-16l144,0c8.824,0 16,7.176 16,16s-7.176,16 -16,16z"/>
  <path id="svg_5" d="m496,136c0,-74.992 -61.008,-136 -136,-136s-136,61.008 -136,136c0,61.072 40.472,112.856 96,129.976l0,22.024l-16,0l0,16l16,0l0,16l-16,0l0,16l16,0l0,120c0,22.056 17.944,40 40,40s40,-17.944 40,-40l0,-120l16,0l0,-16l-16,0l0,-16l16,0l0,-16l-16,0l0,-22.024c55.528,-17.12 96,-68.904 96,-129.976zm-256,0c0,-66.168 53.832,-120 120,-120s120,53.832 120,120s-53.832,120 -120,120s-120,-53.832 -120,-120zm144,320c0,13.232 -10.768,24 -24,24s-24,-10.768 -24,-24l0,-120l48,0l0,120zm0,-136l-48,0l0,-16l48,0l0,16zm0,-32l-48,0l0,-18.248c7.808,1.392 15.8,2.248 24,2.248s16.192,-0.856 24,-2.248l0,18.248z"/>
  <path id="svg_6" d="m416,152c0,-12.04 -3.976,-23.976 -11.2,-33.6l-44.8,-59.736l-44.8,59.736c-7.224,9.624 -11.2,21.56 -11.2,33.6c0,30.88 25.12,56 56,56s56,-25.12 56,-56zm-96,0c0,-8.6 2.84,-17.128 8,-24l32,-42.664l32,42.664c5.16,6.872 8,15.4 8,24c0,22.056 -17.944,40 -40,40s-40,-17.944 -40,-40z"/>
  <rect id="svg_7" height="16" width="16" y="144" x="112"/>
  <rect id="svg_8" height="16" width="16" y="208" x="64"/>
  <rect id="svg_9" height="16" width="16" y="304" x="136"/>
  <rect id="svg_10" height="16" width="16" y="360" x="128"/>
  <rect id="svg_11" height="16" width="16" y="400" x="88"/>
  <g id="svg_12"/>
  <g id="svg_13"/>
  <g id="svg_14"/>
  <g id="svg_15"/>
  <g id="svg_16"/>
  <g id="svg_17"/>
  <g id="svg_18"/>
  <g id="svg_19"/>
  <g id="svg_20"/>
  <g id="svg_21"/>
  <g id="svg_22"/>
  <g id="svg_23"/>
  <g id="svg_24"/>
  <g id="svg_25"/>
  <g id="svg_26"/>
 </g>
</svg>