<svg width="496" height="496" xmlns="http://www.w3.org/2000/svg">

 <g>
  <title>background</title>
  <rect fill="none" id="canvas_background" height="402" width="582" y="-1" x="-1"/>
 </g>
 <g>
  <title>Layer 1</title>
  <g id="svg_1">
   <path id="svg_2" fill="#6b7b9e" d="m312,56l0,-24l-200,0l0,88l109.576,0c13.192,-37.264 48.64,-64 90.424,-64z"/>
   <circle id="svg_3" fill="#6b7b9e" r="72" cy="152" cx="312"/>
  </g>
  <path id="svg_4" d="m480,416l0,-272c0,-22.056 -17.944,-40 -40,-40l-35.832,0c-12.528,-23.96 -34.088,-42.448 -60.168,-50.912l0,-53.088l-264,0l0,104l-24,0c-22.056,0 -40,17.944 -40,40l0,272l-16,0l0,40c0,22.056 17.944,40 40,40l416,0c22.056,0 40,-17.944 40,-40l0,-40l-16,0zm-80,-264c0,48.52 -39.48,88 -88,88s-88,-39.48 -88,-88s39.48,-88 88,-88s88,39.48 88,88zm-104,216l0,-48l32,0l0,48c0,8.824 -7.176,16 -16,16s-16,-7.176 -16,-16zm0,-64l0,-16l32,0l0,16l-32,0zm0,-32l0,-17.36c5.232,0.816 10.544,1.36 16,1.36s10.768,-0.552 16,-1.36l0,17.36l-32,0zm-200,-256l232,0l0,33.36c-5.232,-0.808 -10.544,-1.36 -16,-1.36c-57.344,0 -104,46.656 -104,104c0,46.176 30.272,85.376 72,98.912l0,21.088l-16,0l0,16l16,0l0,16l-16,0l0,16l16,0l0,48c0,5.856 1.696,11.272 4.448,16l-188.448,0l0,-368zm-64,128c0,-13.232 10.768,-24 24,-24l24,0l0,16l-16,0c-8.824,0 -16,7.176 -16,16l0,248l16,0l0,-248l16,0l0,248l232,0c17.648,0 32,-14.352 32,-32l0,-48l16,0l0,-16l-16,0l0,-16l16,0l0,-16l-16,0l0,-21.088c41.728,-13.536 72,-52.736 72,-98.912l16,0l0,248l16,0l0,-248c0,-8.824 -7.176,-16 -16,-16l-17.36,0c-0.856,-5.48 -2.056,-10.84 -3.728,-16l29.088,0c13.232,0 24,10.768 24,24l0,272l-432,0l0,-272zm160,288l112,0l0,8c0,4.416 -3.592,8 -8,8l-96,0c-4.408,0 -8,-3.584 -8,-8l0,-8zm288,24c0,13.232 -10.768,24 -24,24l-416,0c-13.232,0 -24,-10.768 -24,-24l0,-24l160,0l0,8c0,13.232 10.768,24 24,24l96,0c13.232,0 24,-10.768 24,-24l0,-8l160,0l0,24z"/>
  <rect id="svg_5" height="16" width="80" y="136" x="112"/>
  <rect id="svg_6" height="16" width="80" y="168" x="112"/>
  <rect id="svg_7" height="16" width="80" y="200" x="112"/>
  <rect id="svg_8" height="16" width="112" y="336" x="112"/>
  <rect id="svg_9" height="16" width="48" y="272" x="112"/>
  <rect id="svg_10" height="16" width="48" y="272" x="176"/>
  <rect id="svg_11" height="16" width="48" y="304" x="112"/>
  <rect id="svg_12" height="16" width="48" y="304" x="176"/>
  <g id="svg_13"/>
  <g id="svg_14"/>
  <g id="svg_15"/>
  <g id="svg_16"/>
  <g id="svg_17"/>
  <g id="svg_18"/>
  <g id="svg_19"/>
  <g id="svg_20"/>
  <g id="svg_21"/>
  <g id="svg_22"/>
  <g id="svg_23"/>
  <g id="svg_24"/>
  <g id="svg_25"/>
  <g id="svg_26"/>
  <g id="svg_27"/>
 </g>
</svg>