<svg xmlns="http://www.w3.org/2000/svg" viewBox="40 127 220 46">
    <g fill="#000000"
       transform="matrix(2.6408114433288574,0,0,2.6408114433288574,112.40505430330096,131.75199285332343)">
        <path d="M8.25 1.40L8.25 1.40Q8.44 1.40 8.55 1.51L8.55 1.51L8.55 1.51Q8.67 1.62 8.67 1.82L8.67 1.82L8.67 8.55L8.67 8.58L8.67 8.58Q8.65 9.66 8.13 10.54L8.13 10.54L8.13 10.54Q7.62 11.42 6.73 11.92L6.73 11.92L6.73 11.92Q5.84 12.42 4.76 12.42L4.76 12.42L4.76 12.42Q3.65 12.42 2.76 11.91L2.76 11.91L2.76 11.91Q1.86 11.40 1.35 10.50L1.35 10.50L1.35 10.50Q0.84 9.60 0.84 8.50L0.84 8.50L0.84 8.50Q0.84 7.41 1.35 6.51L1.35 6.51L1.35 6.51Q1.86 5.61 2.76 5.10L2.76 5.10L2.76 5.10Q3.65 4.59 4.76 4.59L4.76 4.59L4.76 4.59Q5.75 4.59 6.56 5.02L6.56 5.02L6.56 5.02Q7.36 5.45 7.83 6.19L7.83 6.19L7.83 1.82L7.83 1.82Q7.83 1.62 7.95 1.51L7.95 1.51L7.95 1.51Q8.06 1.40 8.25 1.40L8.25 1.40ZM4.76 11.63L4.76 11.63Q5.63 11.63 6.33 11.22L6.33 11.22L6.33 11.22Q7.03 10.81 7.43 10.09L7.43 10.09L7.43 10.09Q7.83 9.38 7.83 8.50L7.83 8.50L7.83 8.50Q7.83 7.62 7.43 6.90L7.43 6.90L7.43 6.90Q7.03 6.19 6.33 5.78L6.33 5.78L6.33 5.78Q5.63 5.38 4.76 5.38L4.76 5.38L4.76 5.38Q3.89 5.38 3.19 5.78L3.19 5.78L3.19 5.78Q2.49 6.19 2.09 6.90L2.09 6.90L2.09 6.90Q1.68 7.62 1.68 8.50L1.68 8.50L1.68 8.50Q1.68 9.38 2.09 10.09L2.09 10.09L2.09 10.09Q2.49 10.81 3.19 11.22L3.19 11.22L3.19 11.22Q3.89 11.63 4.76 11.63L4.76 11.63ZM14.69 4.59L14.69 4.59Q15.78 4.59 16.67 5.10L16.67 5.10L16.67 5.10Q17.57 5.61 18.08 6.51L18.08 6.51L18.08 6.51Q18.59 7.41 18.59 8.51L18.59 8.51L18.59 11.91L18.59 11.91Q18.59 12.10 18.48 12.21L18.48 12.21L18.48 12.21Q18.37 12.33 18.17 12.33L18.17 12.33L18.17 12.33Q17.99 12.33 17.87 12.21L17.87 12.21L17.87 12.21Q17.75 12.10 17.75 11.91L17.75 11.91L17.75 10.82L17.75 10.82Q17.29 11.56 16.48 11.99L16.48 11.99L16.48 11.99Q15.68 12.42 14.69 12.42L14.69 12.42L14.69 12.42Q13.58 12.42 12.68 11.91L12.68 11.91L12.68 11.91Q11.79 11.40 11.28 10.50L11.28 10.50L11.28 10.50Q10.77 9.60 10.77 8.51L10.77 8.51L10.77 8.51Q10.77 7.41 11.28 6.51L11.28 6.51L11.28 6.51Q11.79 5.61 12.68 5.10L12.68 5.10L12.68 5.10Q13.58 4.59 14.69 4.59L14.69 4.59ZM14.69 11.63L14.69 11.63Q15.55 11.63 16.25 11.23L16.25 11.23L16.25 11.23Q16.95 10.82 17.35 10.11L17.35 10.11L17.35 10.11Q17.75 9.39 17.75 8.51L17.75 8.51L17.75 8.51Q17.75 7.63 17.35 6.92L17.35 6.92L17.35 6.92Q16.95 6.20 16.25 5.79L16.25 5.79L16.25 5.79Q15.55 5.38 14.69 5.38L14.69 5.38L14.69 5.38Q13.82 5.38 13.12 5.79L13.12 5.79L13.12 5.79Q12.42 6.20 12.01 6.92L12.01 6.92L12.01 6.92Q11.61 7.63 11.61 8.51L11.61 8.51L11.61 8.51Q11.61 9.39 12.01 10.11L12.01 10.11L12.01 10.11Q12.42 10.82 13.12 11.23L13.12 11.23L13.12 11.23Q13.82 11.63 14.69 11.63L14.69 11.63ZM24.15 11.48L24.15 11.48Q24.35 11.48 24.47 11.60L24.47 11.60L24.47 11.60Q24.58 11.72 24.58 11.91L24.58 11.91L24.58 11.91Q24.58 12.10 24.47 12.21L24.47 12.21L24.47 12.21Q24.35 12.33 24.15 12.33L24.15 12.33L23.83 12.33L23.83 12.33Q23.06 12.33 22.46 11.98L22.46 11.98L22.46 11.98Q21.85 11.63 21.52 11.03L21.52 11.03L21.52 11.03Q21.18 10.42 21.18 9.65L21.18 9.65L21.18 5.71L20.09 5.71L20.09 5.71Q19.92 5.71 19.82 5.61L19.82 5.61L19.82 5.61Q19.71 5.50 19.71 5.33L19.71 5.33L19.71 5.33Q19.71 5.17 19.82 5.06L19.82 5.06L19.82 5.06Q19.92 4.96 20.09 4.96L20.09 4.96L21.18 4.96L21.18 2.67L21.18 2.67Q21.18 2.48 21.30 2.36L21.30 2.36L21.30 2.36Q21.42 2.24 21.60 2.24L21.60 2.24L21.60 2.24Q21.80 2.24 21.92 2.36L21.92 2.36L21.92 2.36Q22.04 2.48 22.04 2.67L22.04 2.67L22.04 4.96L23.88 4.96L23.88 4.96Q24.05 4.96 24.16 5.06L24.16 5.06L24.16 5.06Q24.26 5.17 24.26 5.33L24.26 5.33L24.26 5.33Q24.26 5.50 24.16 5.61L24.16 5.61L24.16 5.61Q24.05 5.71 23.88 5.71L23.88 5.71L22.04 5.71L22.04 9.65L22.04 9.65Q22.04 10.46 22.54 10.97L22.54 10.97L22.54 10.97Q23.04 11.48 23.84 11.48L23.84 11.48L24.15 11.48ZM29.83 4.59L29.83 4.59Q30.93 4.59 31.82 5.10L31.82 5.10L31.82 5.10Q32.72 5.61 33.23 6.51L33.23 6.51L33.23 6.51Q33.74 7.41 33.74 8.51L33.74 8.51L33.74 11.91L33.74 11.91Q33.74 12.10 33.63 12.21L33.63 12.21L33.63 12.21Q33.52 12.33 33.32 12.33L33.32 12.33L33.32 12.33Q33.14 12.33 33.02 12.21L33.02 12.21L33.02 12.21Q32.90 12.10 32.90 11.91L32.90 11.91L32.90 10.82L32.90 10.82Q32.44 11.56 31.63 11.99L31.63 11.99L31.63 11.99Q30.83 12.42 29.83 12.42L29.83 12.42L29.83 12.42Q28.73 12.42 27.83 11.91L27.83 11.91L27.83 11.91Q26.94 11.40 26.43 10.50L26.43 10.50L26.43 10.50Q25.91 9.60 25.91 8.51L25.91 8.51L25.91 8.51Q25.91 7.41 26.43 6.51L26.43 6.51L26.43 6.51Q26.94 5.61 27.83 5.10L27.83 5.10L27.83 5.10Q28.73 4.59 29.83 4.59L29.83 4.59ZM29.83 11.63L29.83 11.63Q30.70 11.63 31.40 11.23L31.40 11.23L31.40 11.23Q32.10 10.82 32.50 10.11L32.50 10.11L32.50 10.11Q32.90 9.39 32.90 8.51L32.90 8.51L32.90 8.51Q32.90 7.63 32.50 6.92L32.50 6.92L32.50 6.92Q32.10 6.20 31.40 5.79L31.40 5.79L31.40 5.79Q30.70 5.38 29.83 5.38L29.83 5.38L29.83 5.38Q28.97 5.38 28.27 5.79L28.27 5.79L28.27 5.79Q27.57 6.20 27.16 6.92L27.16 6.92L27.16 6.92Q26.75 7.63 26.75 8.51L26.75 8.51L26.75 8.51Q26.75 9.39 27.16 10.11L27.16 10.11L27.16 10.11Q27.57 10.82 28.27 11.23L28.27 11.23L28.27 11.23Q28.97 11.63 29.83 11.63L29.83 11.63ZM39.30 11.48L39.30 11.48Q39.49 11.48 39.61 11.60L39.61 11.60L39.61 11.60Q39.73 11.72 39.73 11.91L39.73 11.91L39.73 11.91Q39.73 12.10 39.61 12.21L39.61 12.21L39.61 12.21Q39.49 12.33 39.30 12.33L39.30 12.33L38.98 12.33L38.98 12.33Q38.21 12.33 37.60 11.98L37.60 11.98L37.60 11.98Q37.00 11.63 36.67 11.03L36.67 11.03L36.67 11.03Q36.33 10.42 36.33 9.65L36.33 9.65L36.33 5.71L35.24 5.71L35.24 5.71Q35.07 5.71 34.96 5.61L34.96 5.61L34.96 5.61Q34.86 5.50 34.86 5.33L34.86 5.33L34.86 5.33Q34.86 5.17 34.96 5.06L34.96 5.06L34.96 5.06Q35.07 4.96 35.24 4.96L35.24 4.96L36.33 4.96L36.33 2.67L36.33 2.67Q36.33 2.48 36.45 2.36L36.45 2.36L36.45 2.36Q36.57 2.24 36.75 2.24L36.75 2.24L36.75 2.24Q36.95 2.24 37.06 2.36L37.06 2.36L37.06 2.36Q37.18 2.48 37.18 2.67L37.18 2.67L37.18 4.96L39.03 4.96L39.03 4.96Q39.20 4.96 39.30 5.06L39.30 5.06L39.30 5.06Q39.41 5.17 39.41 5.33L39.41 5.33L39.41 5.33Q39.41 5.50 39.30 5.61L39.30 5.61L39.30 5.61Q39.20 5.71 39.03 5.71L39.03 5.71L37.18 5.71L37.18 9.65L37.18 9.65Q37.18 10.46 37.69 10.97L37.69 10.97L37.69 10.97Q38.19 11.48 38.99 11.48L38.99 11.48L39.30 11.48ZM41.76 5.10L41.76 5.10Q41.76 4.90 41.88 4.79L41.88 4.79L41.88 4.79Q42 4.68 42.18 4.68L42.18 4.68L42.18 4.68Q42.38 4.68 42.49 4.79L42.49 4.79L42.49 4.79Q42.60 4.90 42.60 5.10L42.60 5.10L42.60 11.91L42.60 11.91Q42.60 12.10 42.49 12.21L42.49 12.21L42.49 12.21Q42.38 12.33 42.18 12.33L42.18 12.33L42.18 12.33Q42 12.33 41.88 12.21L41.88 12.21L41.88 12.21Q41.76 12.10 41.76 11.91L41.76 11.91L41.76 5.10ZM42.18 1.76L42.18 1.76Q42.45 1.76 42.64 1.93L42.64 1.93L42.64 1.93Q42.83 2.10 42.83 2.41L42.83 2.41L42.83 2.41Q42.83 2.69 42.64 2.88L42.64 2.88L42.64 2.88Q42.45 3.07 42.17 3.07L42.17 3.07L42.17 3.07Q41.89 3.07 41.71 2.88L41.71 2.88L41.71 2.88Q41.52 2.69 41.52 2.41L41.52 2.41L41.52 2.41Q41.52 2.10 41.72 1.93L41.72 1.93L41.72 1.93Q41.92 1.76 42.18 1.76L42.18 1.76ZM45.12 1.82L45.12 1.82Q45.12 1.62 45.24 1.51L45.24 1.51L45.24 1.51Q45.36 1.40 45.54 1.40L45.54 1.40L45.54 1.40Q45.74 1.40 45.85 1.51L45.85 1.51L45.85 1.51Q45.96 1.62 45.96 1.82L45.96 1.82L45.96 10.02L45.96 10.02Q45.96 10.67 46.23 11.08L46.23 11.08L46.23 11.08Q46.51 11.49 46.94 11.49L46.94 11.49L47.29 11.49L47.29 11.49Q47.45 11.49 47.54 11.61L47.54 11.61L47.54 11.61Q47.64 11.72 47.64 11.91L47.64 11.91L47.64 11.91Q47.64 12.10 47.53 12.21L47.53 12.21L47.53 12.21Q47.42 12.33 47.22 12.33L47.22 12.33L46.94 12.33L46.94 12.33Q46.14 12.33 45.63 11.69L45.63 11.69L45.63 11.69Q45.12 11.05 45.12 10.02L45.12 10.02L45.12 1.82ZM52.36 4.61L52.36 4.61Q53.38 4.61 54.19 5.09L54.19 5.09L54.19 5.09Q54.99 5.57 55.44 6.43L55.44 6.43L55.44 6.43Q55.89 7.28 55.89 8.37L55.89 8.37L55.89 8.37Q55.89 8.55 55.78 8.66L55.78 8.66L55.78 8.66Q55.66 8.76 55.48 8.76L55.48 8.76L49.62 8.76L49.62 8.76Q49.66 9.59 50.05 10.24L50.05 10.24L50.05 10.24Q50.44 10.89 51.10 11.26L51.10 11.26L51.10 11.26Q51.76 11.62 52.57 11.62L52.57 11.62L52.57 11.62Q53.12 11.62 53.67 11.43L53.67 11.43L53.67 11.43Q54.22 11.24 54.54 10.93L54.54 10.93L54.54 10.93Q54.68 10.82 54.84 10.82L54.84 10.82L54.84 10.82Q54.99 10.82 55.09 10.91L55.09 10.91L55.09 10.91Q55.24 11.03 55.24 11.20L55.24 11.20L55.24 11.20Q55.24 11.34 55.12 11.47L55.12 11.47L55.12 11.47Q54.67 11.87 53.95 12.14L53.95 12.14L53.95 12.14Q53.23 12.40 52.57 12.40L52.57 12.40L52.57 12.40Q51.46 12.40 50.60 11.91L50.60 11.91L50.60 11.91Q49.74 11.41 49.25 10.52L49.25 10.52L49.25 10.52Q48.76 9.63 48.76 8.51L48.76 8.51L48.76 8.51Q48.76 7.38 49.22 6.49L49.22 6.49L49.22 6.49Q49.67 5.60 50.49 5.10L50.49 5.10L50.49 5.10Q51.31 4.61 52.36 4.61L52.36 4.61ZM52.36 5.39L52.36 5.39Q51.27 5.39 50.52 6.12L50.52 6.12L50.52 6.12Q49.77 6.85 49.63 8.04L49.63 8.04L55.08 8.04L55.08 8.04Q54.98 6.85 54.24 6.12L54.24 6.12L54.24 6.12Q53.49 5.39 52.36 5.39L52.36 5.39Z"></path>
    </g>
    <defs>
        <linearGradient gradientTransform="rotate(25)"
                        id="30190931-855e-4ddd-b807-9cb2a01de649" x1="0%" y1="0%" x2="100%" y2="0%">
            <stop offset="0%"
                  style="stop-color: #301802; stop-opacity: 1;"></stop>
            <stop offset="100%"
                  style="stop-color: #8c5220; stop-opacity: 1;"></stop>
        </linearGradient>
    </defs>
    <g stroke="none" fill="url(#30190931-855e-4ddd-b807-9cb2a01de649)"
       transform="matrix(2.567732334136963,0,0,2.567732334136963,40.00245654199215,119.18669142243904)">
        <path d="M23.757 12.571l-6.843-4.106.854-.543a.5.5 0 0 0 0-.844l-5.5-3.5a.501.501 0 0 0-.537 0l-5.5 3.5a.5.5 0 0 0 0 .844l.854.544-6.842 4.105a.499.499 0 0 0-.003.856l11.5 7a.497.497 0 0 0 .52 0l11.5-7a.502.502 0 0 0-.003-.856zM12 4.593L16.569 7.5 12 10.407 7.431 7.5 12 4.593zm-.269 6.829a.503.503 0 0 0 .537 0l3.703-2.357.659.396L12 12.408 7.369 9.461l.659-.395 3.703 2.356zm-5.32-1.386L11.069 13l-4.696 2.988-4.906-2.987 4.944-2.965zM12 19.414l-4.675-2.846L12 13.593l4.675 2.975L12 19.414zm5.627-3.425L12.931 13l4.658-2.964 4.944 2.966-4.906 2.987z"></path>
    </g>
</svg>
