<svg xmlns="http://www.w3.org/2000/svg" viewBox="0 0 325 90">
    <g fill="#000000"
       transform="matrix(4.210526466369629,0,0,4.210526466369629,117.42623901367188,9.105263710021973)">
        <path d="M8.25 1.40L8.25 1.40Q8.44 1.40 8.55 1.51L8.55 1.51L8.55 1.51Q8.67 1.62 8.67 1.82L8.67 1.82L8.67 8.55L8.67 8.58L8.67 8.58Q8.65 9.66 8.13 10.54L8.13 10.54L8.13 10.54Q7.62 11.42 6.73 11.92L6.73 11.92L6.73 11.92Q5.84 12.42 4.76 12.42L4.76 12.42L4.76 12.42Q3.65 12.42 2.76 11.91L2.76 11.91L2.76 11.91Q1.86 11.40 1.35 10.50L1.35 10.50L1.35 10.50Q0.84 9.60 0.84 8.50L0.84 8.50L0.84 8.50Q0.84 7.41 1.35 6.51L1.35 6.51L1.35 6.51Q1.86 5.61 2.76 5.10L2.76 5.10L2.76 5.10Q3.65 4.59 4.76 4.59L4.76 4.59L4.76 4.59Q5.75 4.59 6.56 5.02L6.56 5.02L6.56 5.02Q7.36 5.45 7.83 6.19L7.83 6.19L7.83 1.82L7.83 1.82Q7.83 1.62 7.95 1.51L7.95 1.51L7.95 1.51Q8.06 1.40 8.25 1.40L8.25 1.40ZM4.76 11.63L4.76 11.63Q5.63 11.63 6.33 11.22L6.33 11.22L6.33 11.22Q7.03 10.81 7.43 10.09L7.43 10.09L7.43 10.09Q7.83 9.38 7.83 8.50L7.83 8.50L7.83 8.50Q7.83 7.62 7.43 6.90L7.43 6.90L7.43 6.90Q7.03 6.19 6.33 5.78L6.33 5.78L6.33 5.78Q5.63 5.38 4.76 5.38L4.76 5.38L4.76 5.38Q3.89 5.38 3.19 5.78L3.19 5.78L3.19 5.78Q2.49 6.19 2.09 6.90L2.09 6.90L2.09 6.90Q1.68 7.62 1.68 8.50L1.68 8.50L1.68 8.50Q1.68 9.38 2.09 10.09L2.09 10.09L2.09 10.09Q2.49 10.81 3.19 11.22L3.19 11.22L3.19 11.22Q3.89 11.63 4.76 11.63L4.76 11.63ZM14.36 4.61L14.36 4.61Q15.39 4.61 16.19 5.09L16.19 5.09L16.19 5.09Q17.00 5.57 17.44 6.43L17.44 6.43L17.44 6.43Q17.89 7.28 17.89 8.37L17.89 8.37L17.89 8.37Q17.89 8.55 17.78 8.66L17.78 8.66L17.78 8.66Q17.67 8.76 17.49 8.76L17.49 8.76L11.62 8.76L11.62 8.76Q11.66 9.59 12.05 10.24L12.05 10.24L12.05 10.24Q12.45 10.89 13.10 11.26L13.10 11.26L13.10 11.26Q13.76 11.62 14.57 11.62L14.57 11.62L14.57 11.62Q15.12 11.62 15.67 11.43L15.67 11.43L15.67 11.43Q16.23 11.24 16.55 10.93L16.55 10.93L16.55 10.93Q16.69 10.82 16.84 10.82L16.84 10.82L16.84 10.82Q17.00 10.82 17.09 10.91L17.09 10.91L17.09 10.91Q17.25 11.03 17.25 11.20L17.25 11.20L17.25 11.20Q17.25 11.34 17.12 11.47L17.12 11.47L17.12 11.47Q16.67 11.87 15.95 12.14L15.95 12.14L15.95 12.14Q15.23 12.40 14.57 12.40L14.57 12.40L14.57 12.40Q13.47 12.40 12.61 11.91L12.61 11.91L12.61 11.91Q11.75 11.41 11.26 10.52L11.26 10.52L11.26 10.52Q10.77 9.63 10.77 8.51L10.77 8.51L10.77 8.51Q10.77 7.38 11.22 6.49L11.22 6.49L11.22 6.49Q11.68 5.60 12.50 5.10L12.50 5.10L12.50 5.10Q13.31 4.61 14.36 4.61L14.36 4.61ZM14.36 5.39L14.36 5.39Q13.27 5.39 12.52 6.12L12.52 6.12L12.52 6.12Q11.77 6.85 11.63 8.04L11.63 8.04L17.08 8.04L17.08 8.04Q16.98 6.85 16.24 6.12L16.24 6.12L16.24 6.12Q15.50 5.39 14.36 5.39L14.36 5.39ZM23.62 4.59L23.62 4.59Q24.72 4.59 25.62 5.10L25.62 5.10L25.62 5.10Q26.52 5.61 27.03 6.51L27.03 6.51L27.03 6.51Q27.54 7.41 27.54 8.51L27.54 8.51L27.54 8.51Q27.54 9.60 27.03 10.50L27.03 10.50L27.03 10.50Q26.52 11.40 25.62 11.91L25.62 11.91L25.62 11.91Q24.72 12.42 23.62 12.42L23.62 12.42L23.62 12.42Q22.62 12.42 21.82 11.99L21.82 11.99L21.82 11.99Q21.01 11.56 20.55 10.82L20.55 10.82L20.55 15.19L20.55 15.19Q20.55 15.39 20.44 15.50L20.44 15.50L20.44 15.50Q20.33 15.61 20.13 15.61L20.13 15.61L20.13 15.61Q19.95 15.61 19.83 15.50L19.83 15.50L19.83 15.50Q19.71 15.39 19.71 15.19L19.71 15.19L19.71 8.46L19.71 8.43L19.71 8.43Q19.73 7.35 20.24 6.47L20.24 6.47L20.24 6.47Q20.76 5.59 21.65 5.09L21.65 5.09L21.65 5.09Q22.54 4.59 23.62 4.59L23.62 4.59ZM23.62 11.63L23.62 11.63Q24.49 11.63 25.19 11.23L25.19 11.23L25.19 11.23Q25.89 10.82 26.29 10.11L26.29 10.11L26.29 10.11Q26.70 9.39 26.70 8.51L26.70 8.51L26.70 8.51Q26.70 7.63 26.29 6.92L26.29 6.92L26.29 6.92Q25.89 6.20 25.19 5.79L25.19 5.79L25.19 5.79Q24.49 5.38 23.62 5.38L23.62 5.38L23.62 5.38Q22.75 5.38 22.05 5.79L22.05 5.79L22.05 5.79Q21.35 6.20 20.95 6.92L20.95 6.92L20.95 6.92Q20.55 7.63 20.55 8.51L20.55 8.51L20.55 8.51Q20.55 9.39 20.95 10.11L20.95 10.11L20.95 10.11Q21.35 10.82 22.05 11.23L22.05 11.23L22.05 11.23Q22.75 11.63 23.62 11.63L23.62 11.63ZM29.36 1.82L29.36 1.82Q29.36 1.62 29.48 1.51L29.48 1.51L29.48 1.51Q29.60 1.40 29.78 1.40L29.78 1.40L29.78 1.40Q29.97 1.40 30.09 1.51L30.09 1.51L30.09 1.51Q30.20 1.62 30.20 1.82L30.20 1.82L30.20 10.02L30.20 10.02Q30.20 10.67 30.47 11.08L30.47 11.08L30.47 11.08Q30.74 11.49 31.18 11.49L31.18 11.49L31.53 11.49L31.53 11.49Q31.68 11.49 31.78 11.61L31.78 11.61L31.78 11.61Q31.88 11.72 31.88 11.91L31.88 11.91L31.88 11.91Q31.88 12.10 31.77 12.21L31.77 12.21L31.77 12.21Q31.65 12.33 31.46 12.33L31.46 12.33L31.18 12.33L31.18 12.33Q30.38 12.33 29.87 11.69L29.87 11.69L29.87 11.69Q29.36 11.05 29.36 10.02L29.36 10.02L29.36 1.82ZM36.92 4.59L36.92 4.59Q38.01 4.59 38.91 5.10L38.91 5.10L38.91 5.10Q39.80 5.61 40.31 6.51L40.31 6.51L40.31 6.51Q40.82 7.41 40.82 8.51L40.82 8.51L40.82 8.51Q40.82 9.60 40.31 10.50L40.31 10.50L40.31 10.50Q39.80 11.40 38.91 11.91L38.91 11.91L38.91 11.91Q38.01 12.42 36.92 12.42L36.92 12.42L36.92 12.42Q35.81 12.42 34.92 11.91L34.92 11.91L34.92 11.91Q34.02 11.40 33.51 10.50L33.51 10.50L33.51 10.50Q33.00 9.60 33.00 8.51L33.00 8.51L33.00 8.51Q33.00 7.41 33.51 6.51L33.51 6.51L33.51 6.51Q34.02 5.61 34.92 5.10L34.92 5.10L34.92 5.10Q35.81 4.59 36.92 4.59L36.92 4.59ZM36.92 5.38L36.92 5.38Q36.05 5.38 35.35 5.79L35.35 5.79L35.35 5.79Q34.65 6.20 34.24 6.92L34.24 6.92L34.24 6.92Q33.84 7.63 33.84 8.51L33.84 8.51L33.84 8.51Q33.84 9.39 34.24 10.11L34.24 10.11L34.24 10.11Q34.65 10.82 35.35 11.23L35.35 11.23L35.35 11.23Q36.05 11.63 36.92 11.63L36.92 11.63L36.92 11.63Q37.79 11.63 38.49 11.23L38.49 11.23L38.49 11.23Q39.19 10.82 39.59 10.11L39.59 10.11L39.59 10.11Q39.98 9.39 39.98 8.51L39.98 8.51L39.98 8.51Q39.98 7.63 39.59 6.92L39.59 6.92L39.59 6.92Q39.19 6.20 38.49 5.79L38.49 5.79L38.49 5.79Q37.79 5.38 36.92 5.38L36.92 5.38ZM49.01 4.69L49.01 4.69Q49.28 4.80 49.28 5.01L49.28 5.01L49.28 5.01Q49.28 5.07 49.22 5.21L49.22 5.21L44.52 15.40L44.52 15.40Q44.39 15.65 44.20 15.65L44.20 15.65L44.20 15.65Q44.11 15.65 44.00 15.61L44.00 15.61L44.00 15.61Q43.74 15.50 43.74 15.29L43.74 15.29L43.74 15.29Q43.74 15.23 43.79 15.09L43.79 15.09L45.19 12.07L45.19 12.07Q45.18 12.05 45.14 11.97L45.14 11.97L42.07 5.25L42.07 5.25Q42.01 5.14 42.01 5.03L42.01 5.03L42.01 5.03Q42.01 4.82 42.25 4.70L42.25 4.70L42.25 4.70Q42.36 4.65 42.48 4.65L42.48 4.65L42.48 4.65Q42.69 4.65 42.80 4.89L42.80 4.89L45.64 11.10L48.50 4.90L48.50 4.90Q48.62 4.65 48.82 4.65L48.82 4.65L48.82 4.65Q48.92 4.65 49.01 4.69L49.01 4.69Z"></path>
    </g>
    <defs>
        <linearGradient gradientTransform="rotate(25)"
                        id="7bf21f93-95ea-4c68-809b-69b5c0a6bcc8" x1="0%" y1="0%" x2="100%" y2="0%">
            <stop offset="0%"
                  style="stop-color: rgb(8, 199, 214); stop-opacity: 1;"></stop>
            <stop offset="100%"
                  style="stop-color: rgb(2, 2, 62); stop-opacity: 1;"></stop>
        </linearGradient>
    </defs>
    <g id="1a2ec20d-6fe0-4a2f-b5c1-9b0450d797d1"
       transform="matrix(1.2646310329437256,0,0,1.2646310329437256,-12.172308921813965,-20.371173858642578)"
       stroke="none" fill="url(#7bf21f93-95ea-4c68-809b-69b5c0a6bcc8)">
        <path d="M65.059 58.477c.781.781 1.805 1.172 2.828 1.172s2.047-.391 2.828-1.172a4 4 0 0 0 0-5.656L58.757 40.863a3.925 3.925 0 0 0-.62-.506c-.066-.044-.139-.073-.208-.113-.157-.092-.313-.184-.483-.254-.086-.036-.176-.053-.265-.083-.159-.053-.315-.11-.483-.143-.117-.023-.237-.024-.356-.036-.14-.015-.274-.042-.417-.042-.156 0-.303.029-.455.046-.105.012-.211.011-.316.032-.182.036-.354.097-.525.156-.073.025-.148.039-.221.068a4.04 4.04 0 0 0-.549.288c-.046.028-.096.047-.142.077a4.013 4.013 0 0 0-.634.521L41.135 52.82a4 4 0 1 0 5.656 5.656l5.133-5.132v30.341a4 4 0 0 0 8 0V53.343l5.135 5.134z"></path>
        <path d="M59.119 16.518c-11.967 0-22.84 6.983-27.907 17.646-11.696.537-21.044 10.221-21.044 22.048 0 12.169 9.898 22.069 22.068 22.069h11.762a4 4 0 0 0 0-8H32.236c-7.758 0-14.068-6.312-14.068-14.069 0-7.759 6.311-14.071 14.068-14.071.355 0 .744.02 1.258.065l3.062.271 1.05-2.889c3.274-9.014 11.921-15.07 21.514-15.07 12.617 0 22.883 10.265 22.883 22.882 0 9.534-6.006 18.161-14.942 21.468a4 4 0 1 0 2.777 7.502C81.9 71.907 90.004 60.265 90.004 47.4c-.002-17.029-13.857-30.882-30.885-30.882z"></path>
    </g>
</svg>
