<svg xmlns="http://www.w3.org/2000/svg" viewBox="0 80 265 120">
    <g fill="#000"
       transform="matrix(3.3791568279266357,0,0,3.3791568279266357,113.24320944756788,121.26027063749994)">
        <path d="M4.76 4.58L4.76 4.58Q5.78 4.58 6.59 5.00L6.59 5.00L6.59 5.00Q7.39 5.42 7.85 6.22L7.85 6.22L7.85 6.22Q8.30 7.03 8.30 8.15L8.30 8.15L8.30 11.91L8.30 11.91Q8.30 12.10 8.18 12.21L8.18 12.21L8.18 12.21Q8.06 12.33 7.88 12.33L7.88 12.33L7.88 12.33Q7.70 12.33 7.58 12.21L7.58 12.21L7.58 12.21Q7.46 12.10 7.46 11.91L7.46 11.91L7.46 8.15L7.46 8.15Q7.46 6.82 6.71 6.12L6.71 6.12L6.71 6.12Q5.96 5.42 4.76 5.42L4.76 5.42L4.76 5.42Q4.02 5.42 3.41 5.70L3.41 5.70L3.41 5.70Q2.80 5.99 2.45 6.50L2.45 6.50L2.45 6.50Q2.10 7.01 2.10 7.63L2.10 7.63L2.10 11.91L2.10 11.91Q2.10 12.10 1.99 12.21L1.99 12.21L1.99 12.21Q1.88 12.33 1.68 12.33L1.68 12.33L1.68 12.33Q1.50 12.33 1.38 12.21L1.38 12.21L1.38 12.21Q1.26 12.10 1.26 11.91L1.26 11.91L1.26 1.82L1.26 1.82Q1.26 1.62 1.38 1.51L1.38 1.51L1.38 1.51Q1.50 1.40 1.68 1.40L1.68 1.40L1.68 1.40Q1.88 1.40 1.99 1.51L1.99 1.51L1.99 1.51Q2.10 1.62 2.10 1.82L2.10 1.82L2.10 5.82L2.10 5.82Q2.58 5.24 3.26 4.91L3.26 4.91L3.26 4.91Q3.95 4.58 4.76 4.58L4.76 4.58ZM14.18 4.59L14.18 4.59Q15.27 4.59 16.17 5.10L16.17 5.10L16.17 5.10Q17.07 5.61 17.58 6.51L17.58 6.51L17.58 6.51Q18.09 7.41 18.09 8.51L18.09 8.51L18.09 11.91L18.09 11.91Q18.09 12.10 17.98 12.21L17.98 12.21L17.98 12.21Q17.86 12.33 17.67 12.33L17.67 12.33L17.67 12.33Q17.49 12.33 17.37 12.21L17.37 12.21L17.37 12.21Q17.25 12.10 17.25 11.91L17.25 11.91L17.25 10.82L17.25 10.82Q16.79 11.56 15.98 11.99L15.98 11.99L15.98 11.99Q15.18 12.42 14.18 12.42L14.18 12.42L14.18 12.42Q13.08 12.42 12.18 11.91L12.18 11.91L12.18 11.91Q11.28 11.40 10.77 10.50L10.77 10.50L10.77 10.50Q10.26 9.60 10.26 8.51L10.26 8.51L10.26 8.51Q10.26 7.41 10.77 6.51L10.77 6.51L10.77 6.51Q11.28 5.61 12.18 5.10L12.18 5.10L12.18 5.10Q13.08 4.59 14.18 4.59L14.18 4.59ZM14.18 11.63L14.18 11.63Q15.05 11.63 15.75 11.23L15.75 11.23L15.75 11.23Q16.45 10.82 16.85 10.11L16.85 10.11L16.85 10.11Q17.25 9.39 17.25 8.51L17.25 8.51L17.25 8.51Q17.25 7.63 16.85 6.92L16.85 6.92L16.85 6.92Q16.45 6.20 15.75 5.79L15.75 5.79L15.75 5.79Q15.05 5.38 14.18 5.38L14.18 5.38L14.18 5.38Q13.31 5.38 12.61 5.79L12.61 5.79L12.61 5.79Q11.91 6.20 11.51 6.92L11.51 6.92L11.51 6.92Q11.10 7.63 11.10 8.51L11.10 8.51L11.10 8.51Q11.10 9.39 11.51 10.11L11.51 10.11L11.51 10.11Q11.91 10.82 12.61 11.23L12.61 11.23L12.61 11.23Q13.31 11.63 14.18 11.63L14.18 11.63ZM26.67 4.68L26.67 4.68Q26.87 4.68 26.98 4.79L26.98 4.79L26.98 4.79Q27.09 4.90 27.09 5.10L27.09 5.10L27.09 11.91L27.09 11.91Q27.09 12.10 26.98 12.21L26.98 12.21L26.98 12.21Q26.87 12.33 26.67 12.33L26.67 12.33L26.67 12.33Q26.49 12.33 26.37 12.21L26.37 12.21L26.37 12.21Q26.25 12.10 26.25 11.91L26.25 11.91L26.25 11.19L26.25 11.19Q25.77 11.77 25.09 12.10L25.09 12.10L25.09 12.10Q24.40 12.43 23.59 12.43L23.59 12.43L23.59 12.43Q22.57 12.43 21.76 12.01L21.76 12.01L21.76 12.01Q20.96 11.59 20.50 10.79L20.50 10.79L20.50 10.79Q20.05 9.98 20.05 8.86L20.05 8.86L20.05 5.10L20.05 5.10Q20.05 4.91 20.17 4.79L20.17 4.79L20.17 4.79Q20.29 4.68 20.47 4.68L20.47 4.68L20.47 4.68Q20.65 4.68 20.77 4.79L20.77 4.79L20.77 4.79Q20.89 4.91 20.89 5.10L20.89 5.10L20.89 8.86L20.89 8.86Q20.89 10.19 21.64 10.89L21.64 10.89L21.64 10.89Q22.39 11.59 23.59 11.59L23.59 11.59L23.59 11.59Q24.33 11.59 24.94 11.30L24.94 11.30L24.94 11.30Q25.55 11.02 25.90 10.51L25.90 10.51L25.90 10.51Q26.25 10.00 26.25 9.38L26.25 9.38L26.25 5.10L26.25 5.10Q26.25 4.90 26.37 4.79L26.37 4.79L26.37 4.79Q26.49 4.68 26.67 4.68L26.67 4.68ZM33.52 4.59L33.52 4.59Q34.62 4.59 35.52 5.10L35.52 5.10L35.52 5.10Q36.41 5.61 36.93 6.51L36.93 6.51L36.93 6.51Q37.44 7.41 37.44 8.51L37.44 8.51L37.44 8.51Q37.44 9.60 36.93 10.50L36.93 10.50L36.93 10.50Q36.41 11.40 35.52 11.91L35.52 11.91L35.52 11.91Q34.62 12.42 33.52 12.42L33.52 12.42L33.52 12.42Q32.52 12.42 31.72 11.99L31.72 11.99L31.72 11.99Q30.91 11.56 30.45 10.82L30.45 10.82L30.45 15.19L30.45 15.19Q30.45 15.39 30.34 15.50L30.34 15.50L30.34 15.50Q30.23 15.61 30.03 15.61L30.03 15.61L30.03 15.61Q29.85 15.61 29.73 15.50L29.73 15.50L29.73 15.50Q29.61 15.39 29.61 15.19L29.61 15.19L29.61 8.46L29.61 8.43L29.61 8.43Q29.62 7.35 30.14 6.47L30.14 6.47L30.14 6.47Q30.66 5.59 31.55 5.09L31.55 5.09L31.55 5.09Q32.44 4.59 33.52 4.59L33.52 4.59ZM33.52 11.63L33.52 11.63Q34.38 11.63 35.08 11.23L35.08 11.23L35.08 11.23Q35.78 10.82 36.19 10.11L36.19 10.11L36.19 10.11Q36.60 9.39 36.60 8.51L36.60 8.51L36.60 8.51Q36.60 7.63 36.19 6.92L36.19 6.92L36.19 6.92Q35.78 6.20 35.08 5.79L35.08 5.79L35.08 5.79Q34.38 5.38 33.52 5.38L33.52 5.38L33.52 5.38Q32.65 5.38 31.95 5.79L31.95 5.79L31.95 5.79Q31.25 6.20 30.85 6.92L30.85 6.92L30.85 6.92Q30.45 7.63 30.45 8.51L30.45 8.51L30.45 8.51Q30.45 9.39 30.85 10.11L30.85 10.11L30.85 10.11Q31.25 10.82 31.95 11.23L31.95 11.23L31.95 11.23Q32.65 11.63 33.52 11.63L33.52 11.63ZM42.99 11.48L42.99 11.48Q43.19 11.48 43.31 11.60L43.31 11.60L43.31 11.60Q43.43 11.72 43.43 11.91L43.43 11.91L43.43 11.91Q43.43 12.10 43.31 12.21L43.31 12.21L43.31 12.21Q43.19 12.33 42.99 12.33L42.99 12.33L42.67 12.33L42.67 12.33Q41.90 12.33 41.30 11.98L41.30 11.98L41.30 11.98Q40.70 11.63 40.36 11.03L40.36 11.03L40.36 11.03Q40.03 10.42 40.03 9.65L40.03 9.65L40.03 5.71L38.93 5.71L38.93 5.71Q38.77 5.71 38.66 5.61L38.66 5.61L38.66 5.61Q38.56 5.50 38.56 5.33L38.56 5.33L38.56 5.33Q38.56 5.17 38.66 5.06L38.66 5.06L38.66 5.06Q38.77 4.96 38.93 4.96L38.93 4.96L40.03 4.96L40.03 2.67L40.03 2.67Q40.03 2.48 40.15 2.36L40.15 2.36L40.15 2.36Q40.26 2.24 40.45 2.24L40.45 2.24L40.45 2.24Q40.64 2.24 40.76 2.36L40.76 2.36L40.76 2.36Q40.88 2.48 40.88 2.67L40.88 2.67L40.88 4.96L42.73 4.96L42.73 4.96Q42.90 4.96 43.00 5.06L43.00 5.06L43.00 5.06Q43.11 5.17 43.11 5.33L43.11 5.33L43.11 5.33Q43.11 5.50 43.00 5.61L43.00 5.61L43.00 5.61Q42.90 5.71 42.73 5.71L42.73 5.71L40.88 5.71L40.88 9.65L40.88 9.65Q40.88 10.46 41.38 10.97L41.38 10.97L41.38 10.97Q41.89 11.48 42.69 11.48L42.69 11.48L42.99 11.48Z"/>
    </g>
    <defs>
        <linearGradient gradientTransform="rotate(25)"
                        id="505f5cda-0ae6-4f4c-a9ee-a77dbeb4a523" x1="0%" y1="0%" x2="100%" y2="0%">
            <stop offset="0%"
                  style="stop-color: 673050; stop-opacity: 1;"></stop>
            <stop offset="100%"
                  style="stop-color: #844b6c; stop-opacity: 1;"></stop>
        </linearGradient>
    </defs>
    <g stroke="none" fill="url(#505f5cda-0ae6-4f4c-a9ee-a77dbeb4a523)"
       transform="matrix(0.9908285140991211,0,0,0.9908285140991211,22.709051261997523,100.45865141582803)">
        <path d="M78.549 28.899L54 14.725a8 8 0 0 0-8 0L21.451 28.899a8 8 0 0 0-4 6.928v28.348a8.003 8.003 0 0 0 4 6.929L46 85.275a8.001 8.001 0 0 0 8 0l24.549-14.172c2.475-1.43 4-4.07 4-6.929V35.827a8.002 8.002 0 0 0-4-6.928zM50 21.653l20.549 11.865-20.547 11.863-20.551-11.863L50 21.653zM25.451 64.175V40.446L46 52.31v23.728L25.451 64.175zM54 76.037V52.311l20.549-11.863v23.728L54 76.037z"/>
    </g>
</svg>
