<svg xmlns="http://www.w3.org/2000/svg" viewBox="40 127 220 46">
    <g fill="#000000"
       transform="matrix(2.089655876159668,0,0,2.089655876159668,104.92664122223529,132.1856834063054)">
        <path d="M4.76 4.58L4.76 4.58Q5.78 4.58 6.59 5.00L6.59 5.00L6.59 5.00Q7.39 5.42 7.85 6.22L7.85 6.22L7.85 6.22Q8.30 7.03 8.30 8.15L8.30 8.15L8.30 11.91L8.30 11.91Q8.30 12.10 8.18 12.21L8.18 12.21L8.18 12.21Q8.06 12.33 7.88 12.33L7.88 12.33L7.88 12.33Q7.70 12.33 7.58 12.21L7.58 12.21L7.58 12.21Q7.46 12.10 7.46 11.91L7.46 11.91L7.46 8.15L7.46 8.15Q7.46 6.82 6.71 6.12L6.71 6.12L6.71 6.12Q5.96 5.42 4.76 5.42L4.76 5.42L4.76 5.42Q4.02 5.42 3.41 5.70L3.41 5.70L3.41 5.70Q2.80 5.99 2.45 6.50L2.45 6.50L2.45 6.50Q2.10 7.01 2.10 7.63L2.10 7.63L2.10 11.91L2.10 11.91Q2.10 12.10 1.99 12.21L1.99 12.21L1.99 12.21Q1.88 12.33 1.68 12.33L1.68 12.33L1.68 12.33Q1.50 12.33 1.38 12.21L1.38 12.21L1.38 12.21Q1.26 12.10 1.26 11.91L1.26 11.91L1.26 1.82L1.26 1.82Q1.26 1.62 1.38 1.51L1.38 1.51L1.38 1.51Q1.50 1.40 1.68 1.40L1.68 1.40L1.68 1.40Q1.88 1.40 1.99 1.51L1.99 1.51L1.99 1.51Q2.10 1.62 2.10 1.82L2.10 1.82L2.10 5.82L2.10 5.82Q2.58 5.24 3.26 4.91L3.26 4.91L3.26 4.91Q3.95 4.58 4.76 4.58L4.76 4.58ZM16.77 4.69L16.77 4.69Q17.04 4.80 17.04 5.01L17.04 5.01L17.04 5.01Q17.04 5.07 16.98 5.21L16.98 5.21L12.28 15.40L12.28 15.40Q12.15 15.65 11.96 15.65L11.96 15.65L11.96 15.65Q11.87 15.65 11.76 15.61L11.76 15.61L11.76 15.61Q11.49 15.50 11.49 15.29L11.49 15.29L11.49 15.29Q11.49 15.23 11.55 15.09L11.55 15.09L12.95 12.07L12.95 12.07Q12.94 12.05 12.89 11.97L12.89 11.97L9.83 5.25L9.83 5.25Q9.77 5.14 9.77 5.03L9.77 5.03L9.77 5.03Q9.77 4.82 10.01 4.70L10.01 4.70L10.01 4.70Q10.12 4.65 10.23 4.65L10.23 4.65L10.23 4.65Q10.44 4.65 10.56 4.89L10.56 4.89L13.40 11.10L16.25 4.90L16.25 4.90Q16.38 4.65 16.58 4.65L16.58 4.65L16.58 4.65Q16.67 4.65 16.77 4.69L16.77 4.69ZM22.34 4.59L22.34 4.59Q23.45 4.59 24.35 5.10L24.35 5.10L24.35 5.10Q25.24 5.61 25.75 6.51L25.75 6.51L25.75 6.51Q26.26 7.41 26.26 8.51L26.26 8.51L26.26 8.51Q26.26 9.60 25.75 10.50L25.75 10.50L25.75 10.50Q25.24 11.40 24.35 11.91L24.35 11.91L24.35 11.91Q23.45 12.42 22.34 12.42L22.34 12.42L22.34 12.42Q21.35 12.42 20.55 11.99L20.55 11.99L20.55 11.99Q19.74 11.56 19.28 10.82L19.28 10.82L19.28 15.19L19.28 15.19Q19.28 15.39 19.17 15.50L19.17 15.50L19.17 15.50Q19.05 15.61 18.86 15.61L18.86 15.61L18.86 15.61Q18.68 15.61 18.56 15.50L18.56 15.50L18.56 15.50Q18.44 15.39 18.44 15.19L18.44 15.19L18.44 8.46L18.44 8.43L18.44 8.43Q18.45 7.35 18.97 6.47L18.97 6.47L18.97 6.47Q19.49 5.59 20.38 5.09L20.38 5.09L20.38 5.09Q21.27 4.59 22.34 4.59L22.34 4.59ZM22.34 11.63L22.34 11.63Q23.21 11.63 23.91 11.23L23.91 11.23L23.91 11.23Q24.61 10.82 25.02 10.11L25.02 10.11L25.02 10.11Q25.42 9.39 25.42 8.51L25.42 8.51L25.42 8.51Q25.42 7.63 25.02 6.92L25.02 6.92L25.02 6.92Q24.61 6.20 23.91 5.79L23.91 5.79L23.91 5.79Q23.21 5.38 22.34 5.38L22.34 5.38L22.34 5.38Q21.48 5.38 20.78 5.79L20.78 5.79L20.78 5.79Q20.08 6.20 19.68 6.92L19.68 6.92L19.68 6.92Q19.28 7.63 19.28 8.51L19.28 8.51L19.28 8.51Q19.28 9.39 19.68 10.11L19.68 10.11L19.68 10.11Q20.08 10.82 20.78 11.23L20.78 11.23L20.78 11.23Q21.48 11.63 22.34 11.63L22.34 11.63ZM31.54 4.61L31.54 4.61Q32.56 4.61 33.37 5.09L33.37 5.09L33.37 5.09Q34.17 5.57 34.62 6.43L34.62 6.43L34.62 6.43Q35.07 7.28 35.07 8.37L35.07 8.37L35.07 8.37Q35.07 8.55 34.96 8.66L34.96 8.66L34.96 8.66Q34.85 8.76 34.66 8.76L34.66 8.76L28.80 8.76L28.80 8.76Q28.84 9.59 29.23 10.24L29.23 10.24L29.23 10.24Q29.62 10.89 30.28 11.26L30.28 11.26L30.28 11.26Q30.94 11.62 31.75 11.62L31.75 11.62L31.75 11.62Q32.30 11.62 32.85 11.43L32.85 11.43L32.85 11.43Q33.40 11.24 33.73 10.93L33.73 10.93L33.73 10.93Q33.87 10.82 34.02 10.82L34.02 10.82L34.02 10.82Q34.17 10.82 34.27 10.91L34.27 10.91L34.27 10.91Q34.43 11.03 34.43 11.20L34.43 11.20L34.43 11.20Q34.43 11.34 34.30 11.47L34.30 11.47L34.30 11.47Q33.85 11.87 33.13 12.14L33.13 12.14L33.13 12.14Q32.41 12.40 31.75 12.40L31.75 12.40L31.75 12.40Q30.65 12.40 29.79 11.91L29.79 11.91L29.79 11.91Q28.92 11.41 28.43 10.52L28.43 10.52L28.43 10.52Q27.94 9.63 27.94 8.51L27.94 8.51L27.94 8.51Q27.94 7.38 28.40 6.49L28.40 6.49L28.40 6.49Q28.85 5.60 29.67 5.10L29.67 5.10L29.67 5.10Q30.49 4.61 31.54 4.61L31.54 4.61ZM31.54 5.39L31.54 5.39Q30.45 5.39 29.70 6.12L29.70 6.12L29.70 6.12Q28.95 6.85 28.81 8.04L28.81 8.04L34.26 8.04L34.26 8.04Q34.16 6.85 33.42 6.12L33.42 6.12L33.42 6.12Q32.68 5.39 31.54 5.39L31.54 5.39ZM40.14 4.59L40.14 4.59Q41.20 4.59 41.20 5.05L41.20 5.05L41.20 5.05Q41.20 5.12 41.19 5.17L41.19 5.17L41.19 5.17Q41.15 5.32 41.05 5.38L41.05 5.38L41.05 5.38Q40.96 5.45 40.81 5.45L40.81 5.45L40.81 5.45Q40.68 5.45 40.48 5.42L40.48 5.42L40.48 5.42Q40.28 5.39 40.14 5.39L40.14 5.39L40.14 5.39Q39.44 5.39 38.89 5.68L38.89 5.68L38.89 5.68Q38.35 5.98 38.04 6.50L38.04 6.50L38.04 6.50Q37.73 7.01 37.73 7.66L37.73 7.66L37.73 11.91L37.73 11.91Q37.73 12.10 37.62 12.21L37.62 12.21L37.62 12.21Q37.51 12.33 37.31 12.33L37.31 12.33L37.31 12.33Q37.13 12.33 37.01 12.21L37.01 12.21L37.01 12.21Q36.89 12.10 36.89 11.91L36.89 11.91L36.89 5.10L36.89 5.10Q36.89 4.90 37.01 4.79L37.01 4.79L37.01 4.79Q37.13 4.68 37.31 4.68L37.31 4.68L37.31 4.68Q37.51 4.68 37.62 4.79L37.62 4.79L37.62 4.79Q37.73 4.90 37.73 5.10L37.73 5.10L37.73 5.96L37.73 5.96Q38.14 5.32 38.77 4.96L38.77 4.96L38.77 4.96Q39.40 4.59 40.14 4.59L40.14 4.59ZM46.48 11.48L46.48 11.48Q46.68 11.48 46.79 11.60L46.79 11.60L46.79 11.60Q46.91 11.72 46.91 11.91L46.91 11.91L46.91 11.91Q46.91 12.10 46.79 12.21L46.79 12.21L46.79 12.21Q46.68 12.33 46.48 12.33L46.48 12.33L46.16 12.33L46.16 12.33Q45.39 12.33 44.79 11.98L44.79 11.98L44.79 11.98Q44.18 11.63 43.85 11.03L43.85 11.03L43.85 11.03Q43.51 10.42 43.51 9.65L43.51 9.65L43.51 5.71L42.42 5.71L42.42 5.71Q42.25 5.71 42.15 5.61L42.15 5.61L42.15 5.61Q42.04 5.50 42.04 5.33L42.04 5.33L42.04 5.33Q42.04 5.17 42.15 5.06L42.15 5.06L42.15 5.06Q42.25 4.96 42.42 4.96L42.42 4.96L43.51 4.96L43.51 2.67L43.51 2.67Q43.51 2.48 43.63 2.36L43.63 2.36L43.63 2.36Q43.75 2.24 43.93 2.24L43.93 2.24L43.93 2.24Q44.13 2.24 44.25 2.36L44.25 2.36L44.25 2.36Q44.37 2.48 44.37 2.67L44.37 2.67L44.37 4.96L46.21 4.96L46.21 4.96Q46.38 4.96 46.49 5.06L46.49 5.06L46.49 5.06Q46.59 5.17 46.59 5.33L46.59 5.33L46.59 5.33Q46.59 5.50 46.49 5.61L46.49 5.61L46.49 5.61Q46.38 5.71 46.21 5.71L46.21 5.71L44.37 5.71L44.37 9.65L44.37 9.65Q44.37 10.46 44.87 10.97L44.87 10.97L44.87 10.97Q45.37 11.48 46.17 11.48L46.17 11.48L46.48 11.48ZM55.15 4.68L55.15 4.68Q55.34 4.68 55.45 4.79L55.45 4.79L55.45 4.79Q55.57 4.90 55.57 5.10L55.57 5.10L55.57 11.91L55.57 11.91Q55.57 12.10 55.45 12.21L55.45 12.21L55.45 12.21Q55.34 12.33 55.15 12.33L55.15 12.33L55.15 12.33Q54.96 12.33 54.84 12.21L54.84 12.21L54.84 12.21Q54.73 12.10 54.73 11.91L54.73 11.91L54.73 11.19L54.73 11.19Q54.25 11.77 53.56 12.10L53.56 12.10L53.56 12.10Q52.88 12.43 52.07 12.43L52.07 12.43L52.07 12.43Q51.04 12.43 50.24 12.01L50.24 12.01L50.24 12.01Q49.43 11.59 48.98 10.79L48.98 10.79L48.98 10.79Q48.52 9.98 48.52 8.86L48.52 8.86L48.52 5.10L48.52 5.10Q48.52 4.91 48.64 4.79L48.64 4.79L48.64 4.79Q48.76 4.68 48.94 4.68L48.94 4.68L48.94 4.68Q49.13 4.68 49.24 4.79L49.24 4.79L49.24 4.79Q49.36 4.91 49.36 5.10L49.36 5.10L49.36 8.86L49.36 8.86Q49.36 10.19 50.11 10.89L50.11 10.89L50.11 10.89Q50.86 11.59 52.07 11.59L52.07 11.59L52.07 11.59Q52.81 11.59 53.42 11.30L53.42 11.30L53.42 11.30Q54.03 11.02 54.38 10.51L54.38 10.51L54.38 10.51Q54.73 10.00 54.73 9.38L54.73 9.38L54.73 5.10L54.73 5.10Q54.73 4.90 54.84 4.79L54.84 4.79L54.84 4.79Q54.96 4.68 55.15 4.68L55.15 4.68ZM61.59 4.58L61.59 4.58Q62.61 4.58 63.41 5.00L63.41 5.00L63.41 5.00Q64.22 5.42 64.67 6.22L64.67 6.22L64.67 6.22Q65.13 7.03 65.13 8.15L65.13 8.15L65.13 11.91L65.13 11.91Q65.13 12.10 65.01 12.21L65.01 12.21L65.01 12.21Q64.89 12.33 64.71 12.33L64.71 12.33L64.71 12.33Q64.53 12.33 64.41 12.21L64.41 12.21L64.41 12.21Q64.29 12.10 64.29 11.91L64.29 11.91L64.29 8.15L64.29 8.15Q64.29 6.82 63.54 6.12L63.54 6.12L63.54 6.12Q62.79 5.42 61.59 5.42L61.59 5.42L61.59 5.42Q60.84 5.42 60.23 5.70L60.23 5.70L60.23 5.70Q59.63 5.99 59.28 6.50L59.28 6.50L59.28 6.50Q58.93 7.01 58.93 7.63L58.93 7.63L58.93 11.91L58.93 11.91Q58.93 12.10 58.81 12.21L58.81 12.21L58.81 12.21Q58.70 12.33 58.51 12.33L58.51 12.33L58.51 12.33Q58.32 12.33 58.20 12.21L58.20 12.21L58.20 12.21Q58.09 12.10 58.09 11.91L58.09 11.91L58.09 5.10L58.09 5.10Q58.09 4.90 58.20 4.79L58.20 4.79L58.20 4.79Q58.32 4.68 58.51 4.68L58.51 4.68L58.51 4.68Q58.70 4.68 58.81 4.79L58.81 4.79L58.81 4.79Q58.93 4.90 58.93 5.10L58.93 5.10L58.93 5.82L58.93 5.82Q59.40 5.24 60.09 4.91L60.09 4.91L60.09 4.91Q60.77 4.58 61.59 4.58L61.59 4.58ZM70.69 4.61L70.69 4.61Q71.71 4.61 72.51 5.09L72.51 5.09L72.51 5.09Q73.32 5.57 73.77 6.43L73.77 6.43L73.77 6.43Q74.21 7.28 74.21 8.37L74.21 8.37L74.21 8.37Q74.21 8.55 74.10 8.66L74.10 8.66L74.10 8.66Q73.99 8.76 73.81 8.76L73.81 8.76L67.94 8.76L67.94 8.76Q67.98 9.59 68.38 10.24L68.38 10.24L68.38 10.24Q68.77 10.89 69.43 11.26L69.43 11.26L69.43 11.26Q70.08 11.62 70.90 11.62L70.90 11.62L70.90 11.62Q71.44 11.62 71.99 11.43L71.99 11.43L71.99 11.43Q72.55 11.24 72.87 10.93L72.87 10.93L72.87 10.93Q73.01 10.82 73.16 10.82L73.16 10.82L73.16 10.82Q73.32 10.82 73.42 10.91L73.42 10.91L73.42 10.91Q73.57 11.03 73.57 11.20L73.57 11.20L73.57 11.20Q73.57 11.34 73.44 11.47L73.44 11.47L73.44 11.47Q73.00 11.87 72.27 12.14L72.27 12.14L72.27 12.14Q71.55 12.40 70.90 12.40L70.90 12.40L70.90 12.40Q69.79 12.40 68.93 11.91L68.93 11.91L68.93 11.91Q68.07 11.41 67.58 10.52L67.58 10.52L67.58 10.52Q67.09 9.63 67.09 8.51L67.09 8.51L67.09 8.51Q67.09 7.38 67.54 6.49L67.54 6.49L67.54 6.49Q68.00 5.60 68.82 5.10L68.82 5.10L68.82 5.10Q69.64 4.61 70.69 4.61L70.69 4.61ZM70.69 5.39L70.69 5.39Q69.59 5.39 68.84 6.12L68.84 6.12L68.84 6.12Q68.10 6.85 67.96 8.04L67.96 8.04L73.40 8.04L73.40 8.04Q73.30 6.85 72.56 6.12L72.56 6.12L72.56 6.12Q71.82 5.39 70.69 5.39L70.69 5.39Z"></path>
    </g>
    <defs>
        <linearGradient gradientTransform="rotate(25)"
                        id="51cdbda9-2f5b-41b9-a73a-37e107910aa2" x1="0%" y1="0%" x2="100%" y2="0%">
            <stop offset="0%"
                  style="stop-color: #3D1F44; stop-opacity: 1;"></stop>
            <stop offset="100%"
                  style="stop-color: #1d0538; stop-opacity: 1;"></stop>
        </linearGradient>
    </defs>
    <g stroke="none" fill="url(#51cdbda9-2f5b-41b9-a73a-37e107910aa2)"
       transform="matrix(0.6199955344200134,0,0,0.6199955344200134,36.28002675110241,119.01357921026823)">
        <path style="text-indent:0;text-align:start;line-height:normal;text-transform:none;block-progression:tb;marker:none;-inkscape-font-specification:Sans"
              d="M17.781 13.969A2 2 0 0 0 16 16v7.156C10.342 24.12 6 29.08 6 35c0 5.92 4.342 10.88 10 11.844V84a2 2 0 1 0 4 0V46.844C25.658 45.88 30 40.92 30 35c0-5.92-4.342-10.88-10-11.844V16a2 2 0 0 0-2.219-2.031zm32 0A2 2 0 0 0 48 16v37.156C42.342 54.12 38 59.08 38 65c0 5.92 4.342 10.88 10 11.844V84a2 2 0 1 0 4 0v-7.156C57.658 75.88 62 70.92 62 65c0-5.92-4.342-10.88-10-11.844V16a2 2 0 0 0-2.219-2.031zm32 0A2 2 0 0 0 80 16v16a2 2 0 1 0 4 0V16a2 2 0 0 0-2.219-2.031zM18 27c4.442 0 8 3.558 8 8s-3.558 8-8 8a7.97 7.97 0 0 1-8-8c0-4.442 3.558-8 8-8zm64 11c-6.604 0-12 5.396-12 12 0 5.92 4.342 10.88 10 11.844V84a2 2 0 1 0 4 0V61.844C89.658 60.88 94 55.92 94 50c0-6.604-5.396-12-12-12zm0 4c4.442 0 8 3.558 8 8s-3.558 8-8 8a7.97 7.97 0 0 1-8-8c0-4.442 3.558-8 8-8zM50 57c4.442 0 8 3.558 8 8s-3.558 8-8 8a7.97 7.97 0 0 1-8-8c0-4.442 3.558-8 8-8z"></path>
    </g>
</svg>
