<svg xmlns="http://www.w3.org/2000/svg" viewBox="0 0 408 90">
    <g transform="matrix(4.325882911682129,0,0,4.325882911682129,125.95441436767578,1.3734664916992188)">
        <path d="M6.92 9.39L6.92 9.39L6.85 11.59L6.85 12.19L6.85 12.19Q6.87 12.77 7.13 12.88L7.13 12.88L7.13 12.88Q7.22 12.91 7.35 12.93L7.35 12.93L7.35 12.93Q7.48 12.95 7.53 12.98L7.53 12.98L7.53 12.98Q7.57 13.01 7.57 13.09L7.57 13.09L7.57 13.09Q7.57 13.45 7.34 13.70L7.34 13.70L7.34 13.70Q7.11 13.94 6.80 13.94L6.80 13.94L6.80 13.94Q6.29 13.94 6.08 13.54L6.08 13.54L6.08 13.54Q5.87 13.13 5.87 12.29L5.87 12.29L5.92 9.72L5.92 9.72Q5.92 8.75 5.51 8.17L5.51 8.17L5.51 8.17Q5.10 7.59 4.38 7.59L4.38 7.59L4.38 7.59Q3.67 7.59 3.00 8.38L3.00 8.38L3.00 8.38Q2.34 9.17 2.06 10.19L2.06 10.19L2.10 13.23L2.10 13.23Q2.10 13.94 1.57 13.94L1.57 13.94L1.57 13.94Q0.92 13.94 0.92 12.98L0.92 12.98L0.92 12.98Q0.92 12.03 1.20 10.19L1.20 10.19L1.20 10.19Q1.20 9.24 1.08 6.60L1.08 6.60L1.08 6.60Q0.95 3.96 0.95 3.75L0.95 3.75L0.95 3.75Q0.95 3.54 1.10 3.35L1.10 3.35L1.10 3.35Q1.25 3.15 1.41 3.15L1.41 3.15L1.41 3.15Q1.57 3.15 1.71 3.22L1.71 3.22L1.71 3.22Q2.04 3.37 2.04 3.77L2.04 3.77L2.04 3.77Q2.04 3.82 2.04 3.86L2.04 3.86L2.04 8.44L2.04 8.44Q3.07 6.66 4.56 6.66L4.56 6.66L4.56 6.66Q5.70 6.66 6.31 7.47L6.31 7.47L6.31 7.47Q6.92 8.27 6.92 9.39ZM13.87 10.42L13.87 10.42L13.83 7.38L13.83 7.38Q13.83 6.66 14.36 6.66L14.36 6.66L14.36 6.66Q15.01 6.66 15.01 7.71L15.01 7.71L15.01 7.71Q15.01 8.54 14.71 10.42L14.71 10.42L14.71 10.42Q14.88 12.12 14.88 12.96L14.88 12.96L14.88 12.96Q14.88 14.80 13.98 15.91L13.98 15.91L13.98 15.91Q13.08 17.02 11.47 17.02L11.47 17.02L11.47 17.02Q10.63 17.02 9.84 16.67L9.84 16.67L9.84 16.67Q9.06 16.31 9.06 15.95L9.06 15.95L9.06 15.95Q9.06 15.60 9.38 15.60L9.38 15.60L9.38 15.60Q9.52 15.60 10.15 15.86L10.15 15.86L10.15 15.86Q10.78 16.11 11.47 16.11L11.47 16.11L11.47 16.11Q12.63 16.11 13.32 15.28L13.32 15.28L13.32 15.28Q14.01 14.45 14.01 13.10L14.01 13.10L14.01 13.10Q14.01 12.61 13.97 12.15L13.97 12.15L13.97 12.15Q12.94 13.94 11.37 13.94L11.37 13.94L11.37 13.94Q10.25 13.94 9.63 13.12L9.63 13.12L9.63 13.12Q9.02 12.26 9.02 11.07L9.02 11.07L9.10 8.96L9.10 8.96Q9.10 8.53 8.99 7.92L8.99 7.92L8.99 7.92Q8.88 7.31 8.88 7.15L8.88 7.15L8.88 7.15Q8.88 7 9.05 6.83L9.05 6.83L9.05 6.83Q9.23 6.66 9.48 6.66L9.48 6.66L9.48 6.66Q10.12 6.66 10.12 7.81L10.12 7.81L10.01 10.89L10.01 10.89Q10.01 11.86 10.42 12.45L10.42 12.45L10.42 12.45Q10.84 13.03 11.55 13.03L11.55 13.03L11.55 13.03Q12.26 13.03 12.94 12.24L12.94 12.24L12.94 12.24Q13.59 11.42 13.87 10.42ZM20.43 7.57L20.43 7.57L20.43 7.57Q18.96 7.57 18.00 10.00L18.00 10.00L18.00 12.22L18.00 12.22Q18.83 13.03 19.99 13.03L19.99 13.03L19.99 13.03Q20.89 13.03 21.57 12.21L21.57 12.21L21.57 12.21Q22.25 11.40 22.25 10.28L22.25 10.28L22.25 10.28Q22.25 9.16 21.76 8.37L21.76 8.37L21.76 8.37Q21.28 7.57 20.43 7.57ZM18.00 13.26L18.00 13.26L18.00 13.26Q17.98 14.32 17.98 15.03L17.98 15.03L17.98 15.03Q17.98 15.74 17.96 16.07L17.96 16.07L17.96 16.07Q17.93 16.65 17.84 16.80L17.84 16.80L17.84 16.80Q17.71 17.02 17.41 17.02L17.41 17.02L17.41 17.02Q17.11 17.02 16.93 16.79L16.93 16.79L16.93 16.79Q16.74 16.55 16.74 16.00L16.74 16.00L16.74 16.00Q16.74 15.46 16.79 14.97L16.79 14.97L16.95 13.30L16.95 13.30Q17.11 11.69 17.14 11.41L17.14 11.41L17.14 11.14L17.15 10.61L17.15 10.39L17.15 10.39Q17.15 9.80 17.02 8.67L17.02 8.67L17.02 8.67Q16.90 7.53 16.90 7.28L16.90 7.28L16.90 7.28Q16.90 7.03 17.05 6.85L17.05 6.85L17.05 6.85Q17.21 6.66 17.44 6.66L17.44 6.66L17.44 6.66Q17.68 6.66 17.84 6.85L17.84 6.85L17.84 6.85Q17.99 7.03 17.99 7.24L17.99 7.24L17.99 7.24Q17.99 7.45 17.98 7.88L17.98 7.88L17.98 7.88Q17.98 8.32 17.98 8.47L17.98 8.47L17.98 8.47Q18.47 7.56 19.05 7.11L19.05 7.11L19.05 7.11Q19.63 6.66 20.52 6.66L20.52 6.66L20.52 6.66Q21.42 6.66 22.06 7.25L22.06 7.25L22.06 7.25Q23.28 8.33 23.28 10.15L23.28 10.15L23.28 10.15Q23.28 11.68 22.36 12.81L22.36 12.81L22.36 12.81Q21.43 13.94 19.99 13.94L19.99 13.94L19.99 13.94Q18.94 13.94 18.00 13.26ZM28.38 7.50L28.38 7.50L28.38 7.50Q27.45 7.50 26.83 8.20L26.83 8.20L26.83 8.20Q26.21 8.89 26.01 9.81L26.01 9.81L26.01 9.81Q26.77 10.04 27.71 10.04L27.71 10.04L27.71 10.04Q28.66 10.04 29.23 9.72L29.23 9.72L29.23 9.72Q29.81 9.39 29.81 8.83L29.81 8.83L29.81 8.83Q29.81 8.27 29.42 7.89L29.42 7.89L29.42 7.89Q29.04 7.50 28.38 7.50ZM27.78 10.92L27.78 10.92L27.78 10.92Q27.05 10.92 26.00 10.71L26.00 10.71L26.00 10.71Q26.08 11.70 26.73 12.40L26.73 12.40L26.73 12.40Q27.38 13.10 28.25 13.10L28.25 13.10L28.25 13.10Q29.12 13.10 29.68 12.68L29.68 12.68L29.68 12.68Q30.24 12.25 30.41 12.25L30.41 12.25L30.41 12.25Q30.59 12.25 30.69 12.36L30.69 12.36L30.69 12.36Q30.80 12.46 30.80 12.61L30.80 12.61L30.80 12.61Q30.80 13.01 29.99 13.51L29.99 13.51L29.99 13.51Q29.19 14.01 28.25 14.01L28.25 14.01L28.25 14.01Q26.80 14.01 25.93 12.98L25.93 12.98L25.93 12.98Q25.07 11.96 25.02 10.53L25.02 10.53L25.02 10.53Q24.28 10.29 24.28 9.80L24.28 9.80L24.28 9.80Q24.28 9.48 24.51 9.38L24.51 9.38L24.51 9.38Q24.60 9.35 24.73 9.35L24.73 9.35L24.73 9.35Q24.86 9.35 25.10 9.48L25.10 9.48L25.10 9.48Q25.42 8.20 26.27 7.40L26.27 7.40L26.27 7.40Q27.12 6.59 28.26 6.59L28.26 6.59L28.26 6.59Q29.40 6.59 30.10 7.22L30.10 7.22L30.10 7.22Q30.80 7.85 30.80 8.87L30.80 8.87L30.80 8.87Q30.80 9.88 29.93 10.40L29.93 10.40L29.93 10.40Q29.06 10.92 27.78 10.92ZM33.57 10.60L33.57 10.60L33.61 13.23L33.61 13.23Q33.61 13.94 33.08 13.94L33.08 13.94L33.08 13.94Q32.44 13.94 32.44 12.98L32.44 12.98L32.44 12.98Q32.44 12.03 32.72 10.19L32.72 10.19L32.72 10.19Q32.72 9.60 32.60 8.55L32.60 8.55L32.60 8.55Q32.48 7.49 32.48 7.27L32.48 7.27L32.48 7.27Q32.48 7.04 32.63 6.85L32.63 6.85L32.63 6.85Q32.79 6.66 33.03 6.66L33.03 6.66L33.03 6.66Q33.26 6.66 33.42 6.85L33.42 6.85L33.42 6.85Q33.57 7.04 33.57 7.24L33.57 7.24L33.57 7.24Q33.57 7.43 33.56 7.87L33.56 7.87L33.56 7.87Q33.56 8.30 33.56 8.47L33.56 8.47L33.56 8.47Q33.82 7.77 34.43 7.21L34.43 7.21L34.43 7.21Q35.04 6.66 35.65 6.66L35.65 6.66L35.65 6.66Q36.26 6.66 36.62 6.91L36.62 6.91L36.62 6.91Q36.97 7.15 36.97 7.46L36.97 7.46L36.97 7.46Q36.97 7.77 36.82 7.94L36.82 7.94L36.82 7.94Q36.67 8.11 36.42 8.11L36.42 8.11L36.42 8.11Q36.18 8.11 35.88 7.85L35.88 7.85L35.88 7.85Q35.62 7.59 35.43 7.59L35.43 7.59L35.43 7.59Q34.97 7.59 34.36 8.59L34.36 8.59L34.36 8.59Q33.74 9.59 33.57 10.60ZM40.92 7.69L40.92 7.69L39.76 7.66L39.73 10.98L39.73 10.98Q39.73 12.26 39.83 12.65L39.83 12.65L39.83 12.65Q39.93 13.03 40.39 13.03L40.39 13.03L40.39 13.03Q40.61 13.03 40.92 12.89L40.92 12.89L40.92 12.89Q41.23 12.74 41.30 12.74L41.30 12.74L41.30 12.74Q41.59 12.74 41.59 13.03L41.59 13.03L41.59 13.03Q41.59 13.33 41.08 13.64L41.08 13.64L41.08 13.64Q40.56 13.94 40.05 13.94L40.05 13.94L40.05 13.94Q38.84 13.94 38.84 12.15L38.84 12.15L38.82 7.66L38.82 7.66Q38.36 7.70 38.18 7.70L38.18 7.70L38.18 7.70Q37.48 7.70 37.48 7.24L37.48 7.24L37.48 7.24Q37.48 6.78 38.18 6.78L38.18 6.78L38.79 6.80L38.77 5.24L38.77 5.24Q38.77 4.54 39.30 4.54L39.30 4.54L39.30 4.54Q39.83 4.54 39.83 5.24L39.83 5.24L39.79 6.82L40.92 6.76L40.92 6.76Q41.62 6.76 41.62 7.24L41.62 7.24L41.62 7.24Q41.62 7.69 40.92 7.69ZM44.03 7.81L44.03 7.81L43.92 10.89L43.92 10.89Q43.92 11.86 44.33 12.45L44.33 12.45L44.33 12.45Q44.74 13.03 45.46 13.03L45.46 13.03L45.46 13.03Q46.17 13.03 46.84 12.24L46.84 12.24L46.84 12.24Q47.50 11.42 47.78 10.42L47.78 10.42L47.74 7.38L47.74 7.38Q47.74 6.66 48.27 6.66L48.27 6.66L48.27 6.66Q48.92 6.66 48.92 7.62L48.92 7.62L48.92 7.62Q48.92 8.58 48.64 10.42L48.64 10.42L48.64 10.42Q48.64 11.44 48.78 12.12L48.78 12.12L48.78 12.12Q48.93 12.80 49.15 12.88L49.15 12.88L49.15 12.88Q49.24 12.92 49.36 12.94L49.36 12.94L49.36 12.94Q49.48 12.95 49.52 12.98L49.52 12.98L49.52 12.98Q49.57 13.01 49.57 13.09L49.57 13.09L49.57 13.09Q49.57 13.47 49.34 13.71L49.34 13.71L49.34 13.71Q49.11 13.94 48.76 13.94L48.76 13.94L48.76 13.94Q47.88 13.94 47.88 12.15L47.88 12.15L47.88 12.15Q46.84 13.94 45.28 13.94L45.28 13.94L45.28 13.94Q44.16 13.94 43.54 13.12L43.54 13.12L43.54 13.12Q42.92 12.26 42.92 11.07L42.92 11.07L43.01 8.96L43.01 8.96Q43.01 8.53 42.90 7.92L42.90 7.92L42.90 7.92Q42.78 7.31 42.78 7.15L42.78 7.15L42.78 7.15Q42.78 7 42.96 6.83L42.96 6.83L42.96 6.83Q43.13 6.66 43.39 6.66L43.39 6.66L43.39 6.66Q44.03 6.66 44.03 7.81ZM57.04 9.39L57.04 9.39L56.97 11.59L56.97 12.19L56.97 12.19Q56.99 12.77 57.25 12.88L57.25 12.88L57.25 12.88Q57.34 12.91 57.47 12.93L57.47 12.93L57.47 12.93Q57.60 12.95 57.64 12.98L57.64 12.98L57.64 12.98Q57.69 13.01 57.69 13.09L57.69 13.09L57.69 13.09Q57.69 13.45 57.46 13.70L57.46 13.70L57.46 13.70Q57.23 13.94 56.92 13.94L56.92 13.94L56.92 13.94Q56.41 13.94 56.20 13.54L56.20 13.54L56.20 13.54Q55.99 13.13 55.99 12.29L55.99 12.29L56.04 9.72L56.04 9.72Q56.04 8.75 55.63 8.17L55.63 8.17L55.63 8.17Q55.22 7.59 54.50 7.59L54.50 7.59L54.50 7.59Q53.79 7.59 53.12 8.38L53.12 8.38L53.12 8.38Q52.46 9.17 52.18 10.19L52.18 10.19L52.22 13.23L52.22 13.23Q52.22 13.94 51.69 13.94L51.69 13.94L51.69 13.94Q51.04 13.94 51.04 12.98L51.04 12.98L51.04 12.98Q51.04 12.03 51.32 10.19L51.32 10.19L51.32 10.19Q51.32 9.60 51.20 8.54L51.20 8.54L51.20 8.54Q51.09 7.48 51.09 7.25L51.09 7.25L51.09 7.25Q51.09 7.03 51.24 6.85L51.24 6.85L51.24 6.85Q51.39 6.66 51.63 6.66L51.63 6.66L51.63 6.66Q51.87 6.66 52.02 6.85L52.02 6.85L52.02 6.85Q52.18 7.03 52.18 7.24L52.18 7.24L52.18 7.24Q52.18 7.45 52.17 7.87L52.17 7.87L52.17 7.87Q52.16 8.29 52.16 8.44L52.16 8.44L52.16 8.44Q53.19 6.66 54.68 6.66L54.68 6.66L54.68 6.66Q55.80 6.66 56.42 7.47L56.42 7.47L56.42 7.47Q57.04 8.27 57.04 9.39ZM62.64 7.50L62.64 7.50L62.64 7.50Q61.71 7.50 61.09 8.20L61.09 8.20L61.09 8.20Q60.47 8.89 60.27 9.81L60.27 9.81L60.27 9.81Q61.03 10.04 61.97 10.04L61.97 10.04L61.97 10.04Q62.92 10.04 63.49 9.72L63.49 9.72L63.49 9.72Q64.06 9.39 64.06 8.83L64.06 8.83L64.06 8.83Q64.06 8.27 63.68 7.89L63.68 7.89L63.68 7.89Q63.29 7.50 62.64 7.50ZM62.03 10.92L62.03 10.92L62.03 10.92Q61.31 10.92 60.26 10.71L60.26 10.71L60.26 10.71Q60.34 11.70 60.99 12.40L60.99 12.40L60.99 12.40Q61.64 13.10 62.51 13.10L62.51 13.10L62.51 13.10Q63.38 13.10 63.94 12.68L63.94 12.68L63.94 12.68Q64.50 12.25 64.67 12.25L64.67 12.25L64.67 12.25Q64.85 12.25 64.95 12.36L64.95 12.36L64.95 12.36Q65.06 12.46 65.06 12.61L65.06 12.61L65.06 12.61Q65.06 13.01 64.25 13.51L64.25 13.51L64.25 13.51Q63.45 14.01 62.51 14.01L62.51 14.01L62.51 14.01Q61.05 14.01 60.19 12.98L60.19 12.98L60.19 12.98Q59.33 11.96 59.28 10.53L59.28 10.53L59.28 10.53Q58.53 10.29 58.53 9.80L58.53 9.80L58.53 9.80Q58.53 9.48 58.77 9.38L58.77 9.38L58.77 9.38Q58.86 9.35 58.99 9.35L58.99 9.35L58.99 9.35Q59.12 9.35 59.36 9.48L59.36 9.48L59.36 9.48Q59.68 8.20 60.53 7.40L60.53 7.40L60.53 7.40Q61.38 6.59 62.52 6.59L62.52 6.59L62.52 6.59Q63.66 6.59 64.36 7.22L64.36 7.22L64.36 7.22Q65.06 7.85 65.06 8.87L65.06 8.87L65.06 8.87Q65.06 9.88 64.19 10.40L64.19 10.40L64.19 10.40Q63.32 10.92 62.03 10.92Z"/>
    </g>
    <g
       transform="matrix(1.2492523193359375,0,0,1.2492523193359375,-7.462615966796875,-16.478792190551758)"
       stroke="none" fill="#FFD8D7">
        <path style="text-indent:0;text-align:start;line-height:normal;text-transform:none;block-progression:tb;marker:none;-inkscape-font-specification:Sans"
              d="M17.781 13.969A2 2 0 0 0 16 16v7.156C10.342 24.12 6 29.08 6 35c0 5.92 4.342 10.88 10 11.844V84a2 2 0 1 0 4 0V46.844C25.658 45.88 30 40.92 30 35c0-5.92-4.342-10.88-10-11.844V16a2 2 0 0 0-2.219-2.031zm32 0A2 2 0 0 0 48 16v37.156C42.342 54.12 38 59.08 38 65c0 5.92 4.342 10.88 10 11.844V84a2 2 0 1 0 4 0v-7.156C57.658 75.88 62 70.92 62 65c0-5.92-4.342-10.88-10-11.844V16a2 2 0 0 0-2.219-2.031zm32 0A2 2 0 0 0 80 16v16a2 2 0 1 0 4 0V16a2 2 0 0 0-2.219-2.031zM18 27c4.442 0 8 3.558 8 8s-3.558 8-8 8a7.97 7.97 0 0 1-8-8c0-4.442 3.558-8 8-8zm64 11c-6.604 0-12 5.396-12 12 0 5.92 4.342 10.88 10 11.844V84a2 2 0 1 0 4 0V61.844C89.658 60.88 94 55.92 94 50c0-6.604-5.396-12-12-12zm0 4c4.442 0 8 3.558 8 8s-3.558 8-8 8a7.97 7.97 0 0 1-8-8c0-4.442 3.558-8 8-8zM50 57c4.442 0 8 3.558 8 8s-3.558 8-8 8a7.97 7.97 0 0 1-8-8c0-4.442 3.558-8 8-8z"/>
    </g>
</svg>
