<svg xmlns="http://www.w3.org/2000/svg" viewBox="0 0 477 90">
    <g fill="#000000"
       transform="matrix(4.683840751647949,0,0,4.683840751647949,84.19021606445312,-2.985947847366333)">
        <path d="M1.06 13.78L2.11 13.78L2.11 8.55C2.11 7.80 2.02 6.47 1.96 5.73L2.00 5.73L2.67 7.70L4.16 11.27L4.80 11.27L6.27 7.70L6.92 5.73L6.97 5.73C6.92 6.47 6.83 7.80 6.83 8.55L6.83 13.78L7.90 13.78L7.90 4.54L6.52 4.54L5.03 8.47L4.52 9.97L4.47 9.97L3.93 8.47L2.44 4.54L1.06 4.54ZM10.84 13.78L16.53 13.78L16.53 12.78L11.98 12.78L11.98 4.54L10.84 4.54ZM21.56 13.94C23.63 13.94 25.09 12.08 25.09 9.11C25.09 6.17 23.63 4.37 21.56 4.37C19.49 4.37 18.03 6.16 18.03 9.11C18.03 12.08 19.49 13.94 21.56 13.94ZM21.56 12.92C20.16 12.92 19.24 11.42 19.24 9.11C19.24 6.82 20.16 5.39 21.56 5.39C22.96 5.39 23.88 6.82 23.88 9.11C23.88 11.42 22.96 12.92 21.56 12.92ZM27.06 16.65L28.21 16.65L28.21 14.38L28.18 13.02C28.80 13.61 29.60 13.96 30.23 13.96C31.86 13.96 33.32 12.53 33.32 10.11C33.32 7.88 32.34 6.47 30.51 6.47C29.67 6.47 28.78 6.93 28.15 7.56L28.11 7.56L28.01 6.64L27.06 6.64ZM30.03 12.99C29.57 12.99 28.85 12.74 28.21 12.12L28.21 8.53C28.91 7.78 29.61 7.43 30.21 7.43C31.57 7.43 32.13 8.51 32.13 10.11C32.13 11.89 31.25 12.99 30.03 12.99ZM38.78 13.96C39.87 13.96 40.73 13.57 41.40 13.12L40.99 12.35C40.36 12.77 39.72 13.02 38.92 13.02C37.44 13.02 36.37 12.03 36.32 10.49L41.64 10.49C41.66 10.30 41.68 10.05 41.68 9.81C41.68 7.80 40.53 6.47 38.58 6.47C36.82 6.47 35.13 7.90 35.13 10.22C35.13 12.56 36.76 13.96 38.78 13.96ZM36.30 9.65C36.48 8.22 37.49 7.38 38.60 7.38C39.86 7.38 40.61 8.19 40.61 9.65ZM44.60 13.78L45.75 13.78L45.75 9.56C46.56 8.06 47.53 7.50 48.55 7.50C49.08 7.50 49.34 7.57 49.81 7.76L50.08 6.76C49.66 6.54 49.24 6.47 48.73 6.47C47.47 6.47 46.41 7.20 45.70 8.34L45.65 8.34L45.56 6.64L44.60 6.64ZM54.40 13.96C55.37 13.96 56.34 13.41 57.09 12.80L57.13 12.80L57.23 13.78L58.17 13.78L58.17 9.38C58.17 7.63 57.27 6.47 55.41 6.47C54.22 6.47 53.21 7.03 52.67 7.49L53.12 8.29C53.61 7.87 54.33 7.42 55.22 7.42C56.53 7.42 56.99 8.27 57.02 9.25C53.51 9.56 52.09 10.33 52.09 11.94C52.09 13.22 53.13 13.96 54.40 13.96ZM54.71 13.03C53.93 13.03 53.21 12.68 53.21 11.86C53.21 10.89 54.11 10.28 57.02 10.02L57.02 11.94C56.25 12.64 55.48 13.03 54.71 13.03ZM64.86 13.96C65.60 13.96 66.39 13.76 67.00 13.52L66.75 12.68C66.28 12.88 65.76 13.01 65.11 13.01C63.80 13.01 63.39 12.32 63.39 11.03L63.39 7.57L66.74 7.57L66.74 6.64L63.39 6.64L63.39 3.84L62.29 4.54L62.29 6.64L60.33 6.64L60.33 7.57L62.24 7.57L62.24 11.02C62.24 12.77 62.89 13.96 64.86 13.96ZM71.96 13.96C73.75 13.96 75.32 12.59 75.32 10.22C75.32 7.83 73.75 6.47 71.96 6.47C70.17 6.47 68.60 7.83 68.60 10.22C68.60 12.59 70.17 13.96 71.96 13.96ZM71.96 13.01C70.66 13.01 69.79 11.89 69.79 10.22C69.79 8.55 70.66 7.42 71.96 7.42C73.26 7.42 74.13 8.55 74.13 10.22C74.13 11.89 73.26 13.01 71.96 13.01ZM78.20 13.78L79.35 13.78L79.35 9.56C80.16 8.06 81.13 7.50 82.15 7.50C82.68 7.50 82.94 7.57 83.41 7.76L83.68 6.76C83.26 6.54 82.84 6.47 82.33 6.47C81.07 6.47 80.01 7.20 79.30 8.34L79.25 8.34L79.16 6.64L78.20 6.64Z"></path>
    </g>
    <defs>
        <linearGradient gradientTransform="rotate(25)"
                        id="beeb7c63-3bd8-4884-a173-54c916f1da67" x1="0%" y1="0%" x2="100%" y2="0%">
            <stop offset="0%"
                  style="stop-color: rgb(105, 63, 36); stop-opacity: 1;"></stop>
            <stop offset="100%"
                  style="stop-color: rgb(156, 146, 137); stop-opacity: 1;"></stop>
        </linearGradient>
    </defs>
    <g
       transform="matrix(1.2096772193908691,0,0,1.2096772193908691,-25.061901092529297,-14.683865547180176)"
       stroke="none" fill="url(#beeb7c63-3bd8-4884-a173-54c916f1da67)">
        <style>.st0{fill:none;stroke:#000;stroke-width:2;stroke-miterlimit:10;stroke-dasharray:8}
        </style>
        <path stroke-width="2.5" stroke-linecap="round" stroke-linejoin="round"
              stroke-miterlimit="10" d="M42.7 44.6l7.2 10.8 7.4-10.8z"></path>
        <path class="st0"
              d="M25.4 35.2c-8 13.2-3.6 31.2 9.3 39.5 3.7 2.4 8 3.9 12.4 4.3M71.3 69.8c12.1-13 8.5-35.6-6.6-44.8-5.5-3.4-12.2-4.6-18.6-3.7"></path>
        <path d="M32.5 15.8c2 0 3.9.8 5.3 2.2 1.4 1.4 2.2 3.3 2.2 5.3s-.8 3.9-2.2 5.3c-1.4 1.4-3.3 2.2-5.3 2.2s-3.9-.8-5.3-2.2c-2.9-2.9-2.9-7.7 0-10.6 1.4-1.4 3.3-2.2 5.3-2.2m0-3c-2.7 0-5.4 1-7.4 3.1-4.1 4.1-4.1 10.8 0 14.9 2.1 2.1 4.7 3.1 7.4 3.1s5.4-1 7.4-3.1c4.1-4.1 4.1-10.7 0-14.8-2-2.1-4.7-3.2-7.4-3.2zM59 69.2c2 0 3.9.8 5.3 2.2 1.4 1.4 2.2 3.3 2.2 5.3s-.8 3.9-2.2 5.3c-1.4 1.4-3.3 2.2-5.3 2.2s-3.9-.8-5.3-2.2c-2.9-2.9-2.9-7.7 0-10.6 1.4-1.5 3.3-2.2 5.3-2.2m0-3c-2.7 0-5.4 1-7.4 3.1-4.1 4.1-4.1 10.7 0 14.8 2.1 2.1 4.7 3.1 7.4 3.1s5.4-1 7.4-3.1c4.1-4.1 4.1-10.7 0-14.8-2-2.1-4.7-3.1-7.4-3.1z"></path>
    </g>
</svg>
