<svg xmlns="http://www.w3.org/2000/svg" viewBox="40 127 220 46">
    <g fill="#000000"
       transform="matrix(1.937198281288147,0,0,1.937198281288147,85.26472349892283,133.65973302863188)">
        <path d="M11.93 1.40L11.93 1.40Q12.11 1.40 12.22 1.52L12.22 1.52L12.22 1.52Q12.33 1.64 12.33 1.82L12.33 1.82L12.33 11.91L12.33 11.91Q12.33 12.10 12.22 12.21L12.22 12.21L12.22 12.21Q12.11 12.33 11.93 12.33L11.93 12.33L11.93 12.33Q11.75 12.33 11.62 12.21L11.62 12.21L11.62 12.21Q11.49 12.10 11.49 11.91L11.49 11.91L11.49 3.33L7.24 12.00L7.24 12.00Q7.14 12.19 6.87 12.19L6.87 12.19L6.87 12.19Q6.62 12.19 6.48 11.93L6.48 11.93L2.24 3.46L2.24 11.91L2.24 11.91Q2.24 12.10 2.12 12.21L2.12 12.21L2.12 12.21Q2.00 12.33 1.82 12.33L1.82 12.33L1.82 12.33Q1.64 12.33 1.52 12.21L1.52 12.21L1.52 12.21Q1.40 12.10 1.40 11.91L1.40 11.91L1.40 1.82L1.40 1.82Q1.40 1.64 1.52 1.52L1.52 1.52L1.52 1.52Q1.64 1.40 1.82 1.40L1.82 1.40L1.82 1.40Q2.10 1.40 2.20 1.61L2.20 1.61L6.90 10.91L11.55 1.61L11.55 1.61Q11.68 1.40 11.93 1.40L11.93 1.40ZM21.73 11.58L21.73 11.58Q21.91 11.58 22.03 11.68L22.03 11.68L22.03 11.68Q22.15 11.79 22.15 11.96L22.15 11.96L22.15 11.96Q22.15 12.12 22.03 12.23L22.03 12.23L22.03 12.23Q21.91 12.33 21.73 12.33L21.73 12.33L15.55 12.33L15.55 12.33Q15.39 12.33 15.26 12.21L15.26 12.21L15.26 12.21Q15.13 12.10 15.13 11.91L15.13 11.91L15.13 1.82L15.13 1.82Q15.13 1.64 15.26 1.52L15.26 1.52L15.26 1.52Q15.39 1.40 15.55 1.40L15.55 1.40L15.55 1.40Q15.74 1.40 15.86 1.52L15.86 1.52L15.86 1.52Q15.97 1.64 15.97 1.82L15.97 1.82L15.97 11.58L21.73 11.58ZM28.95 1.26L28.95 1.26Q30.52 1.26 31.80 1.99L31.80 1.99L31.80 1.99Q33.08 2.73 33.82 4.01L33.82 4.01L33.82 4.01Q34.55 5.29 34.55 6.86L34.55 6.86L34.55 6.86Q34.55 8.44 33.82 9.72L33.82 9.72L33.82 9.72Q33.08 11.00 31.80 11.74L31.80 11.74L31.80 11.74Q30.52 12.47 28.95 12.47L28.95 12.47L28.95 12.47Q27.37 12.47 26.09 11.74L26.09 11.74L26.09 11.74Q24.81 11.00 24.07 9.72L24.07 9.72L24.07 9.72Q23.34 8.44 23.34 6.86L23.34 6.86L23.34 6.86Q23.34 5.29 24.07 4.01L24.07 4.01L24.07 4.01Q24.81 2.73 26.09 1.99L26.09 1.99L26.09 1.99Q27.37 1.26 28.95 1.26L28.95 1.26ZM28.95 2.10L28.95 2.10Q27.61 2.10 26.52 2.72L26.52 2.72L26.52 2.72Q25.42 3.35 24.80 4.44L24.80 4.44L24.80 4.44Q24.18 5.53 24.18 6.86L24.18 6.86L24.18 6.86Q24.18 8.20 24.80 9.30L24.80 9.30L24.80 9.30Q25.42 10.39 26.52 11.01L26.52 11.01L26.52 11.01Q27.61 11.63 28.95 11.63L28.95 11.63L28.95 11.63Q30.28 11.63 31.37 11.01L31.37 11.01L31.37 11.01Q32.47 10.39 33.09 9.30L33.09 9.30L33.09 9.30Q33.71 8.20 33.71 6.86L33.71 6.86L33.71 6.86Q33.71 5.53 33.09 4.44L33.09 4.44L33.09 4.44Q32.47 3.35 31.37 2.72L31.37 2.72L31.37 2.72Q30.28 2.10 28.95 2.10L28.95 2.10ZM40.56 4.59L40.56 4.59Q41.66 4.59 42.56 5.10L42.56 5.10L42.56 5.10Q43.46 5.61 43.97 6.51L43.97 6.51L43.97 6.51Q44.48 7.41 44.48 8.51L44.48 8.51L44.48 8.51Q44.48 9.60 43.97 10.50L43.97 10.50L43.97 10.50Q43.46 11.40 42.56 11.91L42.56 11.91L42.56 11.91Q41.66 12.42 40.56 12.42L40.56 12.42L40.56 12.42Q39.56 12.42 38.76 11.99L38.76 11.99L38.76 11.99Q37.95 11.56 37.49 10.82L37.49 10.82L37.49 15.19L37.49 15.19Q37.49 15.39 37.38 15.50L37.38 15.50L37.38 15.50Q37.27 15.61 37.07 15.61L37.07 15.61L37.07 15.61Q36.89 15.61 36.77 15.50L36.77 15.50L36.77 15.50Q36.65 15.39 36.65 15.19L36.65 15.19L36.65 8.46L36.65 8.43L36.65 8.43Q36.67 7.35 37.18 6.47L37.18 6.47L37.18 6.47Q37.70 5.59 38.59 5.09L38.59 5.09L38.59 5.09Q39.48 4.59 40.56 4.59L40.56 4.59ZM40.56 11.63L40.56 11.63Q41.43 11.63 42.13 11.23L42.13 11.23L42.13 11.23Q42.83 10.82 43.23 10.11L43.23 10.11L43.23 10.11Q43.64 9.39 43.64 8.51L43.64 8.51L43.64 8.51Q43.64 7.63 43.23 6.92L43.23 6.92L43.23 6.92Q42.83 6.20 42.13 5.79L42.13 5.79L42.13 5.79Q41.43 5.38 40.56 5.38L40.56 5.38L40.56 5.38Q39.69 5.38 38.99 5.79L38.99 5.79L38.99 5.79Q38.29 6.20 37.89 6.92L37.89 6.92L37.89 6.92Q37.49 7.63 37.49 8.51L37.49 8.51L37.49 8.51Q37.49 9.39 37.89 10.11L37.89 10.11L37.89 10.11Q38.29 10.82 38.99 11.23L38.99 11.23L38.99 11.23Q39.69 11.63 40.56 11.63L40.56 11.63ZM49.76 4.61L49.76 4.61Q50.78 4.61 51.58 5.09L51.58 5.09L51.58 5.09Q52.39 5.57 52.84 6.43L52.84 6.43L52.84 6.43Q53.28 7.28 53.28 8.37L53.28 8.37L53.28 8.37Q53.28 8.55 53.17 8.66L53.17 8.66L53.17 8.66Q53.06 8.76 52.88 8.76L52.88 8.76L47.01 8.76L47.01 8.76Q47.05 9.59 47.45 10.24L47.45 10.24L47.45 10.24Q47.84 10.89 48.50 11.26L48.50 11.26L48.50 11.26Q49.15 11.62 49.97 11.62L49.97 11.62L49.97 11.62Q50.51 11.62 51.06 11.43L51.06 11.43L51.06 11.43Q51.62 11.24 51.94 10.93L51.94 10.93L51.94 10.93Q52.08 10.82 52.23 10.82L52.23 10.82L52.23 10.82Q52.39 10.82 52.49 10.91L52.49 10.91L52.49 10.91Q52.64 11.03 52.64 11.20L52.64 11.20L52.64 11.20Q52.64 11.34 52.51 11.47L52.51 11.47L52.51 11.47Q52.07 11.87 51.34 12.14L51.34 12.14L51.34 12.14Q50.62 12.40 49.97 12.40L49.97 12.40L49.97 12.40Q48.86 12.40 48.00 11.91L48.00 11.91L48.00 11.91Q47.14 11.41 46.65 10.52L46.65 10.52L46.65 10.52Q46.16 9.63 46.16 8.51L46.16 8.51L46.16 8.51Q46.16 7.38 46.61 6.49L46.61 6.49L46.61 6.49Q47.07 5.60 47.89 5.10L47.89 5.10L47.89 5.10Q48.71 4.61 49.76 4.61L49.76 4.61ZM49.76 5.39L49.76 5.39Q48.66 5.39 47.91 6.12L47.91 6.12L47.91 6.12Q47.17 6.85 47.03 8.04L47.03 8.04L52.47 8.04L52.47 8.04Q52.37 6.85 51.63 6.12L51.63 6.12L51.63 6.12Q50.89 5.39 49.76 5.39L49.76 5.39ZM58.35 4.59L58.35 4.59Q59.42 4.59 59.42 5.05L59.42 5.05L59.42 5.05Q59.42 5.12 59.40 5.17L59.40 5.17L59.40 5.17Q59.36 5.32 59.27 5.38L59.27 5.38L59.27 5.38Q59.18 5.45 59.02 5.45L59.02 5.45L59.02 5.45Q58.90 5.45 58.69 5.42L58.69 5.42L58.69 5.42Q58.49 5.39 58.35 5.39L58.35 5.39L58.35 5.39Q57.65 5.39 57.11 5.68L57.11 5.68L57.11 5.68Q56.56 5.98 56.25 6.50L56.25 6.50L56.25 6.50Q55.94 7.01 55.94 7.66L55.94 7.66L55.94 11.91L55.94 11.91Q55.94 12.10 55.83 12.21L55.83 12.21L55.83 12.21Q55.72 12.33 55.52 12.33L55.52 12.33L55.52 12.33Q55.34 12.33 55.22 12.21L55.22 12.21L55.22 12.21Q55.10 12.10 55.10 11.91L55.10 11.91L55.10 5.10L55.10 5.10Q55.10 4.90 55.22 4.79L55.22 4.79L55.22 4.79Q55.34 4.68 55.52 4.68L55.52 4.68L55.52 4.68Q55.72 4.68 55.83 4.79L55.83 4.79L55.83 4.79Q55.94 4.90 55.94 5.10L55.94 5.10L55.94 5.96L55.94 5.96Q56.35 5.32 56.98 4.96L56.98 4.96L56.98 4.96Q57.61 4.59 58.35 4.59L58.35 4.59ZM64.74 4.59L64.74 4.59Q65.83 4.59 66.72 5.10L66.72 5.10L66.72 5.10Q67.62 5.61 68.13 6.51L68.13 6.51L68.13 6.51Q68.64 7.41 68.64 8.51L68.64 8.51L68.64 11.91L68.64 11.91Q68.64 12.10 68.53 12.21L68.53 12.21L68.53 12.21Q68.42 12.33 68.22 12.33L68.22 12.33L68.22 12.33Q68.04 12.33 67.92 12.21L67.92 12.21L67.92 12.21Q67.80 12.10 67.80 11.91L67.80 11.91L67.80 10.82L67.80 10.82Q67.34 11.56 66.53 11.99L66.53 11.99L66.53 11.99Q65.73 12.42 64.74 12.42L64.74 12.42L64.74 12.42Q63.63 12.42 62.73 11.91L62.73 11.91L62.73 11.91Q61.84 11.40 61.33 10.50L61.33 10.50L61.33 10.50Q60.82 9.60 60.82 8.51L60.82 8.51L60.82 8.51Q60.82 7.41 61.33 6.51L61.33 6.51L61.33 6.51Q61.84 5.61 62.73 5.10L62.73 5.10L62.73 5.10Q63.63 4.59 64.74 4.59L64.74 4.59ZM64.74 11.63L64.74 11.63Q65.60 11.63 66.30 11.23L66.30 11.23L66.30 11.23Q67.00 10.82 67.40 10.11L67.40 10.11L67.40 10.11Q67.80 9.39 67.80 8.51L67.80 8.51L67.80 8.51Q67.80 7.63 67.40 6.92L67.40 6.92L67.40 6.92Q67.00 6.20 66.30 5.79L66.30 5.79L66.30 5.79Q65.60 5.38 64.74 5.38L64.74 5.38L64.74 5.38Q63.87 5.38 63.17 5.79L63.17 5.79L63.17 5.79Q62.47 6.20 62.06 6.92L62.06 6.92L62.06 6.92Q61.66 7.63 61.66 8.51L61.66 8.51L61.66 8.51Q61.66 9.39 62.06 10.11L62.06 10.11L62.06 10.11Q62.47 10.82 63.17 11.23L63.17 11.23L63.17 11.23Q63.87 11.63 64.74 11.63L64.74 11.63ZM74.20 11.48L74.20 11.48Q74.40 11.48 74.52 11.60L74.52 11.60L74.52 11.60Q74.63 11.72 74.63 11.91L74.63 11.91L74.63 11.91Q74.63 12.10 74.52 12.21L74.52 12.21L74.52 12.21Q74.40 12.33 74.20 12.33L74.20 12.33L73.88 12.33L73.88 12.33Q73.11 12.33 72.51 11.98L72.51 11.98L72.51 11.98Q71.90 11.63 71.57 11.03L71.57 11.03L71.57 11.03Q71.23 10.42 71.23 9.65L71.23 9.65L71.23 5.71L70.14 5.71L70.14 5.71Q69.97 5.71 69.87 5.61L69.87 5.61L69.87 5.61Q69.76 5.50 69.76 5.33L69.76 5.33L69.76 5.33Q69.76 5.17 69.87 5.06L69.87 5.06L69.87 5.06Q69.97 4.96 70.14 4.96L70.14 4.96L71.23 4.96L71.23 2.67L71.23 2.67Q71.23 2.48 71.35 2.36L71.35 2.36L71.35 2.36Q71.47 2.24 71.65 2.24L71.65 2.24L71.65 2.24Q71.85 2.24 71.97 2.36L71.97 2.36L71.97 2.36Q72.09 2.48 72.09 2.67L72.09 2.67L72.09 4.96L73.93 4.96L73.93 4.96Q74.10 4.96 74.21 5.06L74.21 5.06L74.21 5.06Q74.31 5.17 74.31 5.33L74.31 5.33L74.31 5.33Q74.31 5.50 74.21 5.61L74.21 5.61L74.21 5.61Q74.10 5.71 73.93 5.71L73.93 5.71L72.09 5.71L72.09 9.65L72.09 9.65Q72.09 10.46 72.59 10.97L72.59 10.97L72.59 10.97Q73.09 11.48 73.89 11.48L73.89 11.48L74.20 11.48ZM79.88 4.59L79.88 4.59Q80.98 4.59 81.87 5.10L81.87 5.10L81.87 5.10Q82.77 5.61 83.28 6.51L83.28 6.51L83.28 6.51Q83.79 7.41 83.79 8.51L83.79 8.51L83.79 8.51Q83.79 9.60 83.28 10.50L83.28 10.50L83.28 10.50Q82.77 11.40 81.87 11.91L81.87 11.91L81.87 11.91Q80.98 12.42 79.88 12.42L79.88 12.42L79.88 12.42Q78.78 12.42 77.88 11.91L77.88 11.91L77.88 11.91Q76.99 11.40 76.47 10.50L76.47 10.50L76.47 10.50Q75.96 9.60 75.96 8.51L75.96 8.51L75.96 8.51Q75.96 7.41 76.47 6.51L76.47 6.51L76.47 6.51Q76.99 5.61 77.88 5.10L77.88 5.10L77.88 5.10Q78.78 4.59 79.88 4.59L79.88 4.59ZM79.88 5.38L79.88 5.38Q79.02 5.38 78.32 5.79L78.32 5.79L78.32 5.79Q77.62 6.20 77.21 6.92L77.21 6.92L77.21 6.92Q76.80 7.63 76.80 8.51L76.80 8.51L76.80 8.51Q76.80 9.39 77.21 10.11L77.21 10.11L77.21 10.11Q77.62 10.82 78.32 11.23L78.32 11.23L78.32 11.23Q79.02 11.63 79.88 11.63L79.88 11.63L79.88 11.63Q80.75 11.63 81.45 11.23L81.45 11.23L81.45 11.23Q82.15 10.82 82.55 10.11L82.55 10.11L82.55 10.11Q82.95 9.39 82.95 8.51L82.95 8.51L82.95 8.51Q82.95 7.63 82.55 6.92L82.55 6.92L82.55 6.92Q82.15 6.20 81.45 5.79L81.45 5.79L81.45 5.79Q80.75 5.38 79.88 5.38L79.88 5.38ZM89.14 4.59L89.14 4.59Q90.20 4.59 90.20 5.05L90.20 5.05L90.20 5.05Q90.20 5.12 90.19 5.17L90.19 5.17L90.19 5.17Q90.15 5.32 90.05 5.38L90.05 5.38L90.05 5.38Q89.96 5.45 89.81 5.45L89.81 5.45L89.81 5.45Q89.68 5.45 89.48 5.42L89.48 5.42L89.48 5.42Q89.28 5.39 89.14 5.39L89.14 5.39L89.14 5.39Q88.44 5.39 87.89 5.68L87.89 5.68L87.89 5.68Q87.35 5.98 87.04 6.50L87.04 6.50L87.04 6.50Q86.73 7.01 86.73 7.66L86.73 7.66L86.73 11.91L86.73 11.91Q86.73 12.10 86.62 12.21L86.62 12.21L86.62 12.21Q86.51 12.33 86.31 12.33L86.31 12.33L86.31 12.33Q86.13 12.33 86.01 12.21L86.01 12.21L86.01 12.21Q85.89 12.10 85.89 11.91L85.89 11.91L85.89 5.10L85.89 5.10Q85.89 4.90 86.01 4.79L86.01 4.79L86.01 4.79Q86.13 4.68 86.31 4.68L86.31 4.68L86.31 4.68Q86.51 4.68 86.62 4.79L86.62 4.79L86.62 4.79Q86.73 4.90 86.73 5.10L86.73 5.10L86.73 5.96L86.73 5.96Q87.14 5.32 87.77 4.96L87.77 4.96L87.77 4.96Q88.40 4.59 89.14 4.59L89.14 4.59Z"></path>
    </g>
    <defs>
        <linearGradient gradientTransform="rotate(25)"
                        id="c6ca81ec-da5e-4570-a45c-08d2663b5f00" x1="0%" y1="0%" x2="100%" y2="0%">
            <stop offset="0%"
                  style="stop-color: #44311F; stop-opacity: 1;"></stop>
            <stop offset="100%"
                  style="stop-color: #aa1426; stop-opacity: 1;"></stop>
        </linearGradient>
    </defs>
    <g stroke="none" fill="url(#c6ca81ec-da5e-4570-a45c-08d2663b5f00)"
       transform="matrix(0.8703078627586365,0,0,0.8703078627586365,16.05957244960396,104.86322375162729)">
        <path d="M54.666 49.756c-7.186 0-13.032 5.846-13.032 13.032s5.847 13.031 13.032 13.031 13.031-5.846 13.031-13.031-5.845-13.032-13.031-13.032zm0 23.063c-5.532 0-10.032-4.5-10.032-10.031 0-5.532 4.5-10.032 10.032-10.032 5.531 0 10.031 4.5 10.031 10.032 0 5.531-4.5 10.031-10.031 10.031zM34.375 30.514c-3.786 0-6.867 3.081-6.867 6.867s3.081 6.867 6.867 6.867 6.866-3.081 6.866-6.867-3.08-6.867-6.866-6.867zm0 10.734c-2.133 0-3.867-1.734-3.867-3.867s1.734-3.867 3.867-3.867c2.132 0 3.866 1.734 3.866 3.867s-1.734 3.867-3.866 3.867z"></path>
        <circle cx="33.587" cy="61.151" r="5.367"></circle>
        <circle cx="42.15" cy="46.04" r="2.409"></circle>
        <circle cx="50.465" cy="31.021" r="3.114"></circle>
        <circle cx="61.841" cy="41.909" r="4.497"></circle>
    </g>
</svg>
