<svg xmlns="http://www.w3.org/2000/svg" viewBox="0 0 452 90">
    <g fill="#321E0F"
       transform="matrix(6.122448921203613,0,0,6.122448921203613,105.40077209472656,-6.4285688400268555)">
        <path d="M0.87 12.32L0.87 12.32C1.43 12.77 2.30 13.29 3.40 13.30L3.40 13.30C4.07 13.30 4.63 13.10 5.11 12.75L5.11 12.75C5.57 12.40 5.89 11.94 5.89 11.37L5.89 11.37C5.89 10.79 5.57 10.26 5.12 9.97L5.12 9.97C4.65 9.70 4.12 9.51 3.46 9.41L3.43 9.41L3.43 9.41C2.80 9.31 2.34 9.14 2.03 8.93L2.03 8.93C1.76 8.72 1.64 8.53 1.64 8.25L1.64 8.25C1.64 7.97 1.79 7.69 2.07 7.46L2.07 7.46C2.37 7.22 2.81 7.07 3.37 7.07L3.37 7.07C4.05 7.07 4.55 7.42 5.05 7.76L5.05 7.76C5.21 7.85 5.42 7.81 5.52 7.66L5.52 7.66C5.61 7.50 5.57 7.29 5.42 7.18L5.42 7.18C4.89 6.85 4.26 6.44 3.37 6.44L3.37 6.44C2.67 6.44 2.10 6.62 1.69 6.90L1.69 6.90C1.26 7.22 0.95 7.70 0.95 8.25L0.95 8.25C0.95 8.78 1.26 9.23 1.69 9.48L1.69 9.48C2.09 9.76 2.63 9.90 3.25 10.01L3.28 10.02L3.28 10.02C3.95 10.14 4.44 10.30 4.73 10.53L4.73 10.53C5.08 10.82 5.21 11.05 5.22 11.37L5.22 11.37C5.22 11.68 5.04 11.98 4.70 12.21L4.70 12.21C4.40 12.46 3.93 12.63 3.40 12.63L3.40 12.63C2.53 12.63 1.78 12.18 1.30 11.83L1.30 11.83C1.15 11.70 0.94 11.73 0.83 11.87L0.83 11.87C0.71 12.01 0.73 12.19 0.87 12.32ZM13.61 6.44C13.43 6.44 13.27 6.58 13.27 6.78L13.27 7.78C12.68 6.97 11.75 6.44 10.70 6.44C8.89 6.44 7.45 7.99 7.45 9.87C7.45 11.75 8.89 13.30 10.70 13.30C11.75 13.30 12.68 12.75 13.27 11.94L13.27 12.96C13.27 13.15 13.43 13.30 13.61 13.30C13.79 13.30 13.94 13.15 13.94 12.96L13.94 6.78C13.94 6.58 13.79 6.44 13.61 6.44ZM10.70 12.63C9.30 12.63 8.12 11.41 8.12 9.87C8.12 8.33 9.30 7.10 10.70 7.10C12.11 7.10 13.27 8.33 13.27 9.87C13.27 11.41 12.11 12.63 10.70 12.63ZM21.62 12.96C21.62 13.16 21.77 13.30 21.95 13.30C22.13 13.30 22.29 13.16 22.29 12.96L22.29 9.24C22.29 7.71 21.04 6.45 19.50 6.45C18.65 6.45 17.88 6.85 17.37 7.45L17.37 6.79C17.37 6.61 17.23 6.45 17.05 6.45C16.86 6.45 16.72 6.61 16.72 6.79L16.72 9.13L16.72 9.24L16.72 12.96L16.72 13.05C16.72 13.05 16.73 13.06 16.73 13.08C16.73 13.09 16.73 13.10 16.74 13.12C16.79 13.20 16.87 13.27 16.97 13.30L17.05 13.30C17.15 13.30 17.25 13.26 17.30 13.17C17.35 13.13 17.36 13.08 17.37 13.02L17.37 12.96L17.37 9.24C17.40 8.08 18.34 7.13 19.50 7.13C20.68 7.13 21.62 8.08 21.62 9.24L21.62 12.96ZM30.51 12.96C30.51 13.15 30.66 13.30 30.86 13.30C31.04 13.30 31.19 13.15 31.19 12.96L31.19 9.88L31.19 9.74L31.19 3.84C31.19 3.65 31.04 3.50 30.86 3.50C30.66 3.50 30.51 3.65 30.51 3.84L30.51 7.78C29.90 6.97 28.95 6.44 27.87 6.44C26.03 6.44 24.56 7.98 24.56 9.88C24.56 11.76 26.03 13.30 27.87 13.30C28.95 13.30 29.90 12.78 30.51 11.97ZM27.87 12.61C26.43 12.61 25.24 11.40 25.24 9.88C25.24 8.36 26.43 7.13 27.87 7.13C29.29 7.13 30.45 8.30 30.51 9.77L30.51 10.00C30.45 11.45 29.29 12.61 27.87 12.61ZM34.26 12.96C34.26 13.15 34.41 13.30 34.59 13.30C34.79 13.30 34.94 13.15 34.94 12.96L34.94 11.97C35.55 12.78 36.50 13.30 37.58 13.30C39.42 13.30 40.89 11.76 40.89 9.88C40.89 7.98 39.42 6.44 37.58 6.44C36.50 6.44 35.55 6.97 34.94 7.78L34.94 3.84C34.94 3.65 34.79 3.50 34.59 3.50C34.41 3.50 34.26 3.65 34.26 3.84L34.26 9.74L34.26 9.88L34.26 10.02ZM34.94 9.77C35 8.30 36.16 7.13 37.58 7.13C39.03 7.13 40.21 8.36 40.21 9.88C40.21 11.40 39.03 12.61 37.58 12.61C36.13 12.61 34.94 11.40 34.94 9.88ZM43.18 9.87L43.18 9.87C43.18 11.73 44.63 13.30 46.42 13.30L46.42 13.30C48.23 13.30 49.67 11.73 49.67 9.87L49.67 9.87C49.67 8.01 48.23 6.44 46.42 6.44L46.42 6.44C44.63 6.44 43.18 8.01 43.18 9.87ZM43.85 9.87L43.85 9.87C43.85 8.34 45.02 7.10 46.42 7.10L46.42 7.10C47.82 7.10 49.00 8.34 49.00 9.87L49.00 9.87C49.00 11.40 47.82 12.63 46.42 12.63L46.42 12.63C45.02 12.63 43.85 11.40 43.85 9.87ZM51.56 13.23C51.63 13.27 51.70 13.30 51.76 13.30C51.86 13.30 51.97 13.26 52.02 13.16L54.01 10.46L55.99 13.16C56.04 13.26 56.15 13.30 56.27 13.30C56.32 13.30 56.39 13.27 56.43 13.23C56.60 13.12 56.63 12.92 56.53 12.77L54.42 9.90L56.53 7.01C56.63 6.85 56.60 6.65 56.43 6.54C56.31 6.44 56.10 6.47 55.99 6.62L54.01 9.32L52.02 6.62C51.93 6.47 51.70 6.44 51.56 6.54C51.42 6.65 51.39 6.85 51.49 7.01L53.59 9.90L51.49 12.77C51.39 12.92 51.42 13.12 51.56 13.23Z"></path>
    </g>
    <g
       transform="matrix(1.5,0,0,1.5,-30,-30)" fill="#DA2AA0">
        <path d="M27 20h46c4 0 7 3 7 7v46c0 4-3 7-7 7H27c-4 0-7-3-7-7V27c0-4 3-7 7-7zm33 26c2 0 3 2 3 3 0 2-2 3-3 3-2 0-3-2-3-3 0-2 2-3 3-3zm-20 0c2 0 3 2 3 3 0 2-2 3-3 3-2 0-3-2-3-3 0-2 2-3 3-3zm10 0c2 0 3 2 3 3 0 2-2 3-3 3-2 0-3-2-3-3 0-2 2-3 3-3zM26 25v48h48V25H26z"></path>
    </g>
</svg>
