<svg xmlns="http://www.w3.org/2000/svg" viewBox="0 130 320 40">
    <g id="08249c1f-7dda-4f67-81b7-7f18bb45ec48" fill="#000000"
       transform="matrix(2.700839042663574,0,0,2.700839042663574,90.52234600206873,131.337201266323)">
        <path d="M3.88 4.59L3.88 4.59Q5.64 4.59 6.55 5.85L6.55 5.85L6.55 5.85Q6.64 5.95 6.64 6.09L6.64 6.09L6.64 6.09Q6.64 6.29 6.41 6.41L6.41 6.41L6.41 6.41Q6.27 6.47 6.20 6.47L6.20 6.47L6.20 6.47Q5.99 6.47 5.85 6.29L5.85 6.29L5.85 6.29Q5.14 5.38 3.85 5.38L3.85 5.38L3.85 5.38Q3.00 5.38 2.49 5.75L2.49 5.75L2.49 5.75Q1.99 6.12 1.99 6.66L1.99 6.66L1.99 6.66Q1.99 7.22 2.47 7.56L2.47 7.56L2.47 7.56Q2.95 7.90 4.09 8.06L4.09 8.06L4.09 8.06Q5.57 8.27 6.22 8.86L6.22 8.86L6.22 8.86Q6.87 9.44 6.87 10.26L6.87 10.26L6.87 10.26Q6.87 10.91 6.46 11.40L6.46 11.40L6.46 11.40Q6.05 11.89 5.36 12.15L5.36 12.15L5.36 12.15Q4.68 12.42 3.86 12.42L3.86 12.42L3.86 12.42Q3.05 12.42 2.28 12.13L2.28 12.13L2.28 12.13Q1.51 11.84 1.01 11.26L1.01 11.26L1.01 11.26Q0.91 11.14 0.91 11.00L0.91 11.00L0.91 11.00Q0.91 10.81 1.09 10.68L1.09 10.68L1.09 10.68Q1.18 10.61 1.33 10.61L1.33 10.61L1.33 10.61Q1.53 10.61 1.65 10.77L1.65 10.77L1.65 10.77Q2.35 11.62 3.91 11.62L3.91 11.62L3.91 11.62Q5.01 11.62 5.54 11.23L5.54 11.23L5.54 11.23Q6.06 10.84 6.06 10.22L6.06 10.22L6.06 10.22Q6.06 9.11 3.92 8.81L3.92 8.81L3.92 8.81Q2.56 8.61 1.87 8.06L1.87 8.06L1.87 8.06Q1.18 7.52 1.18 6.75L1.18 6.75L1.18 6.75Q1.18 5.73 1.93 5.16L1.93 5.16L1.93 5.16Q2.67 4.59 3.88 4.59L3.88 4.59ZM12.26 4.59L12.26 4.59Q13.36 4.59 14.25 5.10L14.25 5.10L14.25 5.10Q15.15 5.61 15.66 6.51L15.66 6.51L15.66 6.51Q16.17 7.41 16.17 8.51L16.17 8.51L16.17 11.91L16.17 11.91Q16.17 12.10 16.06 12.21L16.06 12.21L16.06 12.21Q15.95 12.33 15.75 12.33L15.75 12.33L15.75 12.33Q15.57 12.33 15.45 12.21L15.45 12.21L15.45 12.21Q15.33 12.10 15.33 11.91L15.33 11.91L15.33 10.82L15.33 10.82Q14.87 11.56 14.06 11.99L14.06 11.99L14.06 11.99Q13.26 12.42 12.26 12.42L12.26 12.42L12.26 12.42Q11.16 12.42 10.26 11.91L10.26 11.91L10.26 11.91Q9.37 11.40 8.86 10.50L8.86 10.50L8.86 10.50Q8.34 9.60 8.34 8.51L8.34 8.51L8.34 8.51Q8.34 7.41 8.86 6.51L8.86 6.51L8.86 6.51Q9.37 5.61 10.26 5.10L10.26 5.10L10.26 5.10Q11.16 4.59 12.26 4.59L12.26 4.59ZM12.26 11.63L12.26 11.63Q13.13 11.63 13.83 11.23L13.83 11.23L13.83 11.23Q14.53 10.82 14.93 10.11L14.93 10.11L14.93 10.11Q15.33 9.39 15.33 8.51L15.33 8.51L15.33 8.51Q15.33 7.63 14.93 6.92L14.93 6.92L14.93 6.92Q14.53 6.20 13.83 5.79L13.83 5.79L13.83 5.79Q13.13 5.38 12.26 5.38L12.26 5.38L12.26 5.38Q11.40 5.38 10.70 5.79L10.70 5.79L10.70 5.79Q10.00 6.20 9.59 6.92L9.59 6.92L9.59 6.92Q9.18 7.63 9.18 8.51L9.18 8.51L9.18 8.51Q9.18 9.39 9.59 10.11L9.59 10.11L9.59 10.11Q10.00 10.82 10.70 11.23L10.70 11.23L10.70 11.23Q11.40 11.63 12.26 11.63L12.26 11.63ZM21.77 4.58L21.77 4.58Q22.79 4.58 23.60 5.00L23.60 5.00L23.60 5.00Q24.40 5.42 24.86 6.22L24.86 6.22L24.86 6.22Q25.31 7.03 25.31 8.15L25.31 8.15L25.31 11.91L25.31 11.91Q25.31 12.10 25.19 12.21L25.19 12.21L25.19 12.21Q25.07 12.33 24.89 12.33L24.89 12.33L24.89 12.33Q24.71 12.33 24.59 12.21L24.59 12.21L24.59 12.21Q24.47 12.10 24.47 11.91L24.47 11.91L24.47 8.15L24.47 8.15Q24.47 6.82 23.72 6.12L23.72 6.12L23.72 6.12Q22.97 5.42 21.77 5.42L21.77 5.42L21.77 5.42Q21.03 5.42 20.42 5.70L20.42 5.70L20.42 5.70Q19.81 5.99 19.46 6.50L19.46 6.50L19.46 6.50Q19.11 7.01 19.11 7.63L19.11 7.63L19.11 11.91L19.11 11.91Q19.11 12.10 19.00 12.21L19.00 12.21L19.00 12.21Q18.89 12.33 18.69 12.33L18.69 12.33L18.69 12.33Q18.51 12.33 18.39 12.21L18.39 12.21L18.39 12.21Q18.27 12.10 18.27 11.91L18.27 11.91L18.27 5.10L18.27 5.10Q18.27 4.90 18.39 4.79L18.39 4.79L18.39 4.79Q18.51 4.68 18.69 4.68L18.69 4.68L18.69 4.68Q18.89 4.68 19.00 4.79L19.00 4.79L19.00 4.79Q19.11 4.90 19.11 5.10L19.11 5.10L19.11 5.82L19.11 5.82Q19.59 5.24 20.27 4.91L20.27 4.91L20.27 4.91Q20.96 4.58 21.77 4.58L21.77 4.58ZM34.68 1.40L34.68 1.40Q34.87 1.40 34.99 1.51L34.99 1.51L34.99 1.51Q35.10 1.62 35.10 1.82L35.10 1.82L35.10 8.55L35.10 8.58L35.10 8.58Q35.08 9.66 34.57 10.54L34.57 10.54L34.57 10.54Q34.05 11.42 33.16 11.92L33.16 11.92L33.16 11.92Q32.27 12.42 31.19 12.42L31.19 12.42L31.19 12.42Q30.09 12.42 29.19 11.91L29.19 11.91L29.19 11.91Q28.29 11.40 27.78 10.50L27.78 10.50L27.78 10.50Q27.27 9.60 27.27 8.50L27.27 8.50L27.27 8.50Q27.27 7.41 27.78 6.51L27.78 6.51L27.78 6.51Q28.29 5.61 29.19 5.10L29.19 5.10L29.19 5.10Q30.09 4.59 31.19 4.59L31.19 4.59L31.19 4.59Q32.19 4.59 32.99 5.02L32.99 5.02L32.99 5.02Q33.80 5.45 34.26 6.19L34.26 6.19L34.26 1.82L34.26 1.82Q34.26 1.62 34.38 1.51L34.38 1.51L34.38 1.51Q34.50 1.40 34.68 1.40L34.68 1.40ZM31.19 11.63L31.19 11.63Q32.06 11.63 32.76 11.22L32.76 11.22L32.76 11.22Q33.46 10.81 33.86 10.09L33.86 10.09L33.86 10.09Q34.26 9.38 34.26 8.50L34.26 8.50L34.26 8.50Q34.26 7.62 33.86 6.90L33.86 6.90L33.86 6.90Q33.46 6.19 32.76 5.78L32.76 5.78L32.76 5.78Q32.06 5.38 31.19 5.38L31.19 5.38L31.19 5.38Q30.32 5.38 29.62 5.78L29.62 5.78L29.62 5.78Q28.92 6.19 28.52 6.90L28.52 6.90L28.52 6.90Q28.11 7.62 28.11 8.50L28.11 8.50L28.11 8.50Q28.11 9.38 28.52 10.09L28.52 10.09L28.52 10.09Q28.92 10.81 29.62 11.22L29.62 11.22L29.62 11.22Q30.32 11.63 31.19 11.63L31.19 11.63ZM38.04 1.40L38.04 1.40Q37.84 1.40 37.73 1.51L37.73 1.51L37.73 1.51Q37.62 1.62 37.62 1.82L37.62 1.82L37.62 8.55L37.62 8.58L37.62 8.58Q37.63 9.66 38.15 10.54L38.15 10.54L38.15 10.54Q38.67 11.42 39.56 11.92L39.56 11.92L39.56 11.92Q40.45 12.42 41.52 12.42L41.52 12.42L41.52 12.42Q42.63 12.42 43.53 11.91L43.53 11.91L43.53 11.91Q44.42 11.40 44.93 10.50L44.93 10.50L44.93 10.50Q45.44 9.60 45.44 8.50L45.44 8.50L45.44 8.50Q45.44 7.41 44.93 6.51L44.93 6.51L44.93 6.51Q44.42 5.61 43.53 5.10L43.53 5.10L43.53 5.10Q42.63 4.59 41.52 4.59L41.52 4.59L41.52 4.59Q40.53 4.59 39.73 5.02L39.73 5.02L39.73 5.02Q38.92 5.45 38.46 6.19L38.46 6.19L38.46 1.82L38.46 1.82Q38.46 1.62 38.34 1.51L38.34 1.51L38.34 1.51Q38.22 1.40 38.04 1.40L38.04 1.40ZM41.52 11.63L41.52 11.63Q40.66 11.63 39.96 11.22L39.96 11.22L39.96 11.22Q39.26 10.81 38.86 10.09L38.86 10.09L38.86 10.09Q38.46 9.38 38.46 8.50L38.46 8.50L38.46 8.50Q38.46 7.62 38.86 6.90L38.86 6.90L38.86 6.90Q39.26 6.19 39.96 5.78L39.96 5.78L39.96 5.78Q40.66 5.38 41.52 5.38L41.52 5.38L41.52 5.38Q42.39 5.38 43.09 5.78L43.09 5.78L43.09 5.78Q43.79 6.19 44.20 6.90L44.20 6.90L44.20 6.90Q44.60 7.62 44.60 8.50L44.60 8.50L44.60 8.50Q44.60 9.38 44.20 10.09L44.20 10.09L44.20 10.09Q43.79 10.81 43.09 11.22L43.09 11.22L43.09 11.22Q42.39 11.63 41.52 11.63L41.52 11.63ZM51.04 4.59L51.04 4.59Q52.14 4.59 53.03 5.10L53.03 5.10L53.03 5.10Q53.93 5.61 54.44 6.51L54.44 6.51L54.44 6.51Q54.95 7.41 54.95 8.51L54.95 8.51L54.95 8.51Q54.95 9.60 54.44 10.50L54.44 10.50L54.44 10.50Q53.93 11.40 53.03 11.91L53.03 11.91L53.03 11.91Q52.14 12.42 51.04 12.42L51.04 12.42L51.04 12.42Q49.94 12.42 49.04 11.91L49.04 11.91L49.04 11.91Q48.15 11.40 47.64 10.50L47.64 10.50L47.64 10.50Q47.12 9.60 47.12 8.51L47.12 8.51L47.12 8.51Q47.12 7.41 47.64 6.51L47.64 6.51L47.64 6.51Q48.15 5.61 49.04 5.10L49.04 5.10L49.04 5.10Q49.94 4.59 51.04 4.59L51.04 4.59ZM51.04 5.38L51.04 5.38Q50.18 5.38 49.48 5.79L49.48 5.79L49.48 5.79Q48.78 6.20 48.37 6.92L48.37 6.92L48.37 6.92Q47.96 7.63 47.96 8.51L47.96 8.51L47.96 8.51Q47.96 9.39 48.37 10.11L48.37 10.11L48.37 10.11Q48.78 10.82 49.48 11.23L49.48 11.23L49.48 11.23Q50.18 11.63 51.04 11.63L51.04 11.63L51.04 11.63Q51.91 11.63 52.61 11.23L52.61 11.23L52.61 11.23Q53.31 10.82 53.71 10.11L53.71 10.11L53.71 10.11Q54.11 9.39 54.11 8.51L54.11 8.51L54.11 8.51Q54.11 7.63 53.71 6.92L53.71 6.92L53.71 6.92Q53.31 6.20 52.61 5.79L52.61 5.79L52.61 5.79Q51.91 5.38 51.04 5.38L51.04 5.38ZM62.62 11.65L62.62 11.65Q62.75 11.82 62.75 11.97L62.75 11.97L62.75 11.97Q62.75 12.14 62.62 12.24L62.62 12.24L62.62 12.24Q62.50 12.33 62.37 12.33L62.37 12.33L62.37 12.33Q62.20 12.33 62.11 12.28L62.11 12.28L62.11 12.28Q62.02 12.22 61.89 12.07L61.89 12.07L59.54 8.95L56.99 12.21L56.99 12.21Q56.91 12.33 56.70 12.33L56.70 12.33L56.70 12.33Q56.52 12.33 56.40 12.21L56.40 12.21L56.40 12.21Q56.28 12.08 56.28 11.91L56.28 11.91L56.28 11.91Q56.28 11.76 56.38 11.65L56.38 11.65L58.98 8.41L56.69 5.38L56.69 5.38Q56.59 5.26 56.59 5.10L56.59 5.10L56.59 5.10Q56.59 4.93 56.71 4.80L56.71 4.80L56.71 4.80Q56.83 4.68 57.01 4.68L57.01 4.68L57.01 4.68Q57.19 4.68 57.32 4.80L57.32 4.80L59.56 7.78L61.89 4.93L61.89 4.93Q62.10 4.68 62.33 4.68L62.33 4.68L62.33 4.68Q62.51 4.68 62.62 4.79L62.62 4.79L62.62 4.79Q62.72 4.90 62.72 5.07L62.72 5.07L62.72 5.07Q62.72 5.22 62.61 5.38L62.61 5.38L60.13 8.33L62.62 11.65Z"></path>
    </g>
    <defs>
        <linearGradient gradientTransform="rotate(25)"
                        id="505f5cda-0ae6-4f4c-a9ee-a77dbeb4a523" x1="0%" y1="0%" x2="100%" y2="0%">
            <stop offset="0%"
                  style="stop-color: 673050; stop-opacity: 1;"></stop>
            <stop offset="100%"
                  style="stop-color: #844b6c; stop-opacity: 1;"></stop>
        </linearGradient>
    </defs>
    <g stroke="none" fill="url(#505f5cda-0ae6-4f4c-a9ee-a77dbeb4a523)"
       transform="matrix(0.614152729511261,0,0,0.614152729511261,29.28242052818748,119.29241138604122)">
        <path d="M78.549 28.899L54 14.725a8 8 0 0 0-8 0L21.451 28.899a8 8 0 0 0-4 6.928v28.348a8.003 8.003 0 0 0 4 6.929L46 85.275a8.001 8.001 0 0 0 8 0l24.549-14.172c2.475-1.43 4-4.07 4-6.929V35.827a8.002 8.002 0 0 0-4-6.928zM50 21.653l20.549 11.865-20.547 11.863-20.551-11.863L50 21.653zM25.451 64.175V40.446L46 52.31v23.728L25.451 64.175zM54 76.037V52.311l20.549-11.863v23.728L54 76.037z"></path>
    </g>
</svg>
