<svg xmlns="http://www.w3.org/2000/svg" viewBox="0 0 376 90">
    <g
            transform="matrix(5.424954891204834,0,0,5.424954891204834,104.14039611816406,5.886077404022217)">
        <path d="M1.34 10.35L0.42 10.88C0.51 11.40 0.81 11.84 1.30 12.20C1.80 12.56 2.34 12.74 2.94 12.74C3.67 12.74 4.24 12.58 4.66 12.26C5.08 11.93 5.29 11.44 5.29 10.78C5.29 10.01 4.70 9.37 3.51 8.88C3.20 8.75 2.95 8.64 2.77 8.55C2.58 8.46 2.40 8.34 2.22 8.18C2.04 8.03 1.95 7.87 1.95 7.71C1.95 7.29 2.27 7.08 2.93 7.08C3.21 7.08 3.48 7.15 3.75 7.28C4.01 7.41 4.21 7.60 4.34 7.85L5.24 7.28C5.11 6.93 4.83 6.63 4.37 6.38C3.91 6.14 3.43 6.02 2.91 6.02C2.36 6.02 1.88 6.18 1.46 6.49C1.04 6.80 0.83 7.21 0.83 7.71C0.83 7.97 0.88 8.19 0.98 8.40C1.08 8.61 1.23 8.78 1.44 8.93C1.64 9.08 1.82 9.20 2.00 9.29C2.18 9.38 2.40 9.48 2.67 9.59C2.92 9.68 3.10 9.76 3.23 9.82C3.35 9.88 3.50 9.97 3.66 10.07C3.82 10.18 3.94 10.30 4.02 10.43C4.09 10.56 4.13 10.71 4.13 10.88C4.13 11.42 3.76 11.69 3.01 11.69C2.61 11.69 2.25 11.56 1.94 11.31C1.63 11.06 1.43 10.74 1.34 10.35ZM7.27 9.38C7.27 8.71 7.47 8.15 7.89 7.72C8.30 7.29 8.83 7.07 9.46 7.07C9.97 7.07 10.43 7.18 10.85 7.40C11.27 7.62 11.55 7.89 11.70 8.20L11.70 6.85C11.48 6.59 11.16 6.39 10.75 6.24C10.34 6.09 9.91 6.02 9.46 6.02C8.51 6.02 7.72 6.34 7.08 6.97C6.45 7.61 6.13 8.41 6.13 9.38C6.13 10.35 6.45 11.15 7.08 11.79C7.72 12.42 8.51 12.74 9.46 12.74C9.92 12.74 10.36 12.67 10.77 12.52C11.18 12.38 11.49 12.18 11.70 11.91L11.70 10.56C11.55 10.87 11.27 11.14 10.85 11.36C10.43 11.58 9.97 11.69 9.46 11.69C8.83 11.69 8.30 11.47 7.89 11.04C7.47 10.61 7.27 10.05 7.27 9.38ZM14.57 8.68C14.57 8.21 14.73 7.83 15.03 7.52C15.33 7.22 15.73 7.07 16.21 7.07C17.13 7.07 17.58 7.61 17.58 8.68L17.58 12.60L18.70 12.60L18.70 8.54C18.70 7.73 18.51 7.10 18.11 6.67C17.71 6.24 17.17 6.02 16.49 6.02C15.69 6.02 15.05 6.36 14.57 7.03L14.57 1.68L13.45 1.68L13.45 12.60L14.57 12.60ZM25.26 8.71L21.42 8.71C21.48 8.19 21.69 7.78 22.07 7.47C22.45 7.16 22.90 7.00 23.44 7.00C23.98 7.00 24.40 7.15 24.71 7.46C25.02 7.77 25.20 8.19 25.26 8.71ZM21.39 9.66L26.46 9.66C26.47 9.59 26.47 9.47 26.47 9.32C26.47 8.32 26.20 7.51 25.64 6.92C25.09 6.32 24.35 6.02 23.44 6.02C22.49 6.02 21.73 6.33 21.13 6.96C20.54 7.59 20.24 8.40 20.24 9.38C20.24 10.35 20.53 11.15 21.11 11.79C21.69 12.42 22.42 12.74 23.30 12.74C24.07 12.74 24.69 12.60 25.14 12.33C25.60 12.06 26.01 11.65 26.36 11.10L25.45 10.53C24.98 11.30 24.30 11.69 23.44 11.69C22.85 11.69 22.37 11.51 22.01 11.16C21.64 10.80 21.44 10.30 21.39 9.66ZM29.13 8.68C29.13 8.20 29.26 7.82 29.53 7.52C29.79 7.22 30.16 7.07 30.63 7.07C31.07 7.07 31.39 7.20 31.58 7.46C31.77 7.72 31.86 8.13 31.86 8.68L31.86 12.60L32.98 12.60L32.98 8.68C32.98 8.20 33.11 7.82 33.38 7.52C33.64 7.22 34.01 7.07 34.48 7.07C34.92 7.07 35.24 7.20 35.43 7.46C35.62 7.72 35.71 8.13 35.71 8.68L35.71 12.60L36.83 12.60L36.83 8.54C36.83 7.71 36.66 7.08 36.30 6.66C35.95 6.23 35.43 6.02 34.76 6.02C34.35 6.02 33.97 6.12 33.61 6.33C33.26 6.53 32.97 6.81 32.76 7.17C32.45 6.40 31.84 6.02 30.91 6.02C30.17 6.02 29.57 6.33 29.13 6.96L29.13 6.16L28.01 6.16L28.01 12.60L29.13 12.60ZM39.44 7.67C40.05 7.22 40.69 7.00 41.36 7.00C41.73 7.00 42.05 7.09 42.31 7.26C42.58 7.43 42.71 7.67 42.71 7.98L42.71 8.95C42.29 8.71 41.79 8.60 41.19 8.60C40.42 8.60 39.75 8.78 39.17 9.13C38.59 9.49 38.30 10.00 38.30 10.64C38.30 11.33 38.54 11.85 39.00 12.21C39.46 12.56 39.97 12.74 40.52 12.74C41.01 12.74 41.45 12.65 41.84 12.46C42.23 12.27 42.52 12.01 42.71 11.68L42.71 12.60L43.83 12.60L43.83 7.98C43.83 7.36 43.61 6.88 43.16 6.54C42.70 6.19 42.10 6.02 41.36 6.02C40.44 6.02 39.62 6.29 38.89 6.82ZM39.44 10.64C39.44 9.85 40.04 9.45 41.24 9.45C41.78 9.45 42.27 9.53 42.71 9.70L42.71 10.08C42.71 11.19 42.12 11.75 40.94 11.75C39.94 11.75 39.44 11.38 39.44 10.64ZM46.02 10.35L45.09 10.88C45.19 11.40 45.48 11.84 45.98 12.20C46.47 12.56 47.02 12.74 47.61 12.74C48.34 12.74 48.92 12.58 49.34 12.26C49.76 11.93 49.97 11.44 49.97 10.78C49.97 10.01 49.37 9.37 48.19 8.88C47.87 8.75 47.62 8.64 47.44 8.55C47.26 8.46 47.08 8.34 46.89 8.18C46.71 8.03 46.62 7.87 46.62 7.71C46.62 7.29 46.95 7.08 47.60 7.08C47.88 7.08 48.15 7.15 48.42 7.28C48.69 7.41 48.88 7.60 49.01 7.85L49.91 7.28C49.79 6.93 49.50 6.63 49.04 6.38C48.58 6.14 48.10 6.02 47.59 6.02C47.04 6.02 46.55 6.18 46.13 6.49C45.71 6.80 45.50 7.21 45.50 7.71C45.50 7.97 45.55 8.19 45.65 8.40C45.76 8.61 45.91 8.78 46.11 8.93C46.31 9.08 46.50 9.20 46.68 9.29C46.85 9.38 47.08 9.48 47.35 9.59C47.59 9.68 47.77 9.76 47.90 9.82C48.03 9.88 48.17 9.97 48.34 10.07C48.50 10.18 48.62 10.30 48.69 10.43C48.77 10.56 48.80 10.71 48.80 10.88C48.80 11.42 48.43 11.69 47.68 11.69C47.28 11.69 46.93 11.56 46.61 11.31C46.30 11.06 46.10 10.74 46.02 10.35Z"></path>
    </g>
    <g
            transform="matrix(1.2789767980575562,0,0,1.2789767980575562,-21.007837295532227,-18.109678268432617)"
            stroke="none" fill="#1DC7DA">
        <g>
            <path d="M75.5 37.3c-.6 0-1 .4-1 1v34.3C74.5 78.4 69.8 83 64 83H29.7c-5.8 0-10.5-4.7-10.5-10.5V38.3c0-5.8 4.7-10.5 10.5-10.5H64c1.6 0 3.1.3 4.5 1 .5.2 1.1 0 1.3-.5.2-.5 0-1.1-.5-1.3-1.7-.8-3.5-1.2-5.3-1.2H29.7c-6.9 0-12.5 5.6-12.5 12.5v34.3c0 6.9 5.6 12.5 12.5 12.5H64c6.9 0 12.5-5.6 12.5-12.5V38.3c0-.6-.5-1-1-1z"></path>
            <path d="M84.3 14.9c-.5-.3-1.1-.2-1.4.3l-35 53.9-20.4-21.4c-.4-.4-1-.4-1.4 0-.4.4-.4 1 0 1.4l21.3 22.3c.2.2.5.3.7.3h.1c.3 0 .6-.2.7-.5l35.7-55c.3-.4.2-1-.3-1.3z"></path>
        </g>
    </g>
</svg>
