<svg xmlns="http://www.w3.org/2000/svg" viewBox="40 115 220 70">
    <g transform="matrix(4.019070625305176,0,0,4.019070625305176,116.92108613347028,122.40907915098325)">
        <path d="M4.55 1.26L4.55 1.26Q5.57 1.26 6.43 1.75L6.43 1.75L6.43 1.75Q7.28 2.24 7.69 2.93L7.69 2.93L7.69 2.93Q7.74 3.02 7.74 3.15L7.74 3.15L7.74 3.15Q7.74 3.26 7.68 3.35L7.68 3.35L7.68 3.35Q7.62 3.44 7.50 3.50L7.50 3.50L7.50 3.50Q7.45 3.53 7.34 3.53L7.34 3.53L7.34 3.53Q7.08 3.53 6.94 3.32L6.94 3.32L6.94 3.32Q6.12 2.10 4.55 2.10L4.55 2.10L4.55 2.10Q3.39 2.10 2.74 2.63L2.74 2.63L2.74 2.63Q2.09 3.15 2.09 4.09L2.09 4.09L2.09 4.09Q2.09 4.87 2.73 5.40L2.73 5.40L2.73 5.40Q3.37 5.94 4.72 6.16L4.72 6.16L4.72 6.16Q6.48 6.45 7.29 7.24L7.29 7.24L7.29 7.24Q8.11 8.04 8.11 9.32L8.11 9.32L8.11 9.32Q8.11 10.29 7.68 11.00L7.68 11.00L7.68 11.00Q7.25 11.72 6.48 12.10L6.48 12.10L6.48 12.10Q5.70 12.47 4.68 12.47L4.68 12.47L4.68 12.47Q3.36 12.47 2.39 11.93L2.39 11.93L2.39 11.93Q1.43 11.40 0.95 10.46L0.95 10.46L0.95 10.46Q0.91 10.37 0.91 10.29L0.91 10.29L0.91 10.29Q0.91 10.12 1.03 10.01L1.03 10.01L1.03 10.01Q1.15 9.90 1.34 9.90L1.34 9.90L1.34 9.90Q1.62 9.90 1.75 10.16L1.75 10.16L1.75 10.16Q2.13 10.86 2.88 11.25L2.88 11.25L2.88 11.25Q3.63 11.63 4.68 11.63L4.68 11.63L4.68 11.63Q5.88 11.63 6.57 11.03L6.57 11.03L6.57 11.03Q7.27 10.43 7.27 9.32L7.27 9.32L7.27 9.32Q7.27 8.37 6.59 7.75L6.59 7.75L6.59 7.75Q5.91 7.13 4.58 6.94L4.58 6.94L4.58 6.94Q3.02 6.72 2.14 5.93L2.14 5.93L2.14 5.93Q1.25 5.14 1.25 4.00L1.25 4.00L1.25 4.00Q1.25 3.19 1.66 2.57L1.66 2.57L1.66 2.57Q2.07 1.95 2.82 1.60L2.82 1.60L2.82 1.60Q3.57 1.26 4.55 1.26L4.55 1.26ZM13.36 1.40L13.36 1.40Q14.94 1.40 16.18 2.10L16.18 2.10L16.18 2.10Q17.43 2.80 18.13 4.04L18.13 4.04L18.13 4.04Q18.83 5.28 18.83 6.86L18.83 6.86L18.83 6.86Q18.83 8.44 18.13 9.69L18.13 9.69L18.13 9.69Q17.43 10.93 16.18 11.63L16.18 11.63L16.18 11.63Q14.94 12.33 13.36 12.33L13.36 12.33L10.84 12.33L10.84 12.33Q10.65 12.33 10.54 12.21L10.54 12.21L10.54 12.21Q10.42 12.10 10.42 11.91L10.42 11.91L10.42 1.82L10.42 1.82Q10.42 1.62 10.54 1.51L10.54 1.51L10.54 1.51Q10.65 1.40 10.84 1.40L10.84 1.40L13.36 1.40ZM13.36 11.58L13.36 11.58Q14.70 11.58 15.75 10.97L15.75 10.97L15.75 10.97Q16.80 10.36 17.39 9.28L17.39 9.28L17.39 9.28Q17.99 8.20 17.99 6.86L17.99 6.86L17.99 6.86Q17.99 5.52 17.39 4.44L17.39 4.44L17.39 4.44Q16.80 3.37 15.75 2.76L15.75 2.76L15.75 2.76Q14.70 2.16 13.36 2.16L13.36 2.16L11.26 2.16L11.26 11.58L13.36 11.58ZM21.91 11.91L21.91 11.91Q21.91 12.10 21.79 12.21L21.79 12.21L21.79 12.21Q21.67 12.33 21.49 12.33L21.49 12.33L21.49 12.33Q21.32 12.33 21.20 12.21L21.20 12.21L21.20 12.21Q21.07 12.10 21.07 11.91L21.07 11.91L21.07 1.82L21.07 1.82Q21.07 1.64 21.20 1.52L21.20 1.52L21.20 1.52Q21.32 1.40 21.49 1.40L21.49 1.40L21.49 1.40Q21.67 1.40 21.79 1.52L21.79 1.52L21.79 1.52Q21.91 1.64 21.91 1.82L21.91 1.82L21.91 6.96L27.34 1.53L27.34 1.53Q27.50 1.40 27.66 1.40L27.66 1.40L27.66 1.40Q27.85 1.40 27.97 1.53L27.97 1.53L27.97 1.53Q28.08 1.65 28.08 1.82L28.08 1.82L28.08 1.82Q28.08 1.97 27.96 2.13L27.96 2.13L23.94 6.15L28 11.66L28 11.66Q28.08 11.79 28.08 11.91L28.08 11.91L28.08 11.91Q28.08 12.08 27.96 12.21L27.96 12.21L27.96 12.21Q27.83 12.33 27.68 12.33L27.68 12.33L27.68 12.33Q27.44 12.33 27.31 12.15L27.31 12.15L23.32 6.76L21.91 8.18L21.91 11.91ZM32.61 4.59L32.61 4.59Q34.37 4.59 35.28 5.85L35.28 5.85L35.28 5.85Q35.36 5.95 35.36 6.09L35.36 6.09L35.36 6.09Q35.36 6.29 35.14 6.41L35.14 6.41L35.14 6.41Q35 6.47 34.93 6.47L34.93 6.47L34.93 6.47Q34.72 6.47 34.58 6.29L34.58 6.29L34.58 6.29Q33.87 5.38 32.58 5.38L32.58 5.38L32.58 5.38Q31.72 5.38 31.22 5.75L31.22 5.75L31.22 5.75Q30.72 6.12 30.72 6.66L30.72 6.66L30.72 6.66Q30.72 7.22 31.20 7.56L31.20 7.56L31.20 7.56Q31.68 7.90 32.82 8.06L32.82 8.06L32.82 8.06Q34.30 8.27 34.95 8.86L34.95 8.86L34.95 8.86Q35.60 9.44 35.60 10.26L35.60 10.26L35.60 10.26Q35.60 10.91 35.19 11.40L35.19 11.40L35.19 11.40Q34.78 11.89 34.09 12.15L34.09 12.15L34.09 12.15Q33.40 12.42 32.59 12.42L32.59 12.42L32.59 12.42Q31.78 12.42 31.01 12.13L31.01 12.13L31.01 12.13Q30.24 11.84 29.74 11.26L29.74 11.26L29.74 11.26Q29.64 11.14 29.64 11.00L29.64 11.00L29.64 11.00Q29.64 10.81 29.82 10.68L29.82 10.68L29.82 10.68Q29.90 10.61 30.06 10.61L30.06 10.61L30.06 10.61Q30.25 10.61 30.38 10.77L30.38 10.77L30.38 10.77Q31.08 11.62 32.63 11.62L32.63 11.62L32.63 11.62Q33.74 11.62 34.27 11.23L34.27 11.23L34.27 11.23Q34.79 10.84 34.79 10.22L34.79 10.22L34.79 10.22Q34.79 9.11 32.65 8.81L32.65 8.81L32.65 8.81Q31.29 8.61 30.60 8.06L30.60 8.06L30.60 8.06Q29.90 7.52 29.90 6.75L29.90 6.75L29.90 6.75Q29.90 5.73 30.65 5.16L30.65 5.16L30.65 5.16Q31.40 4.59 32.61 4.59L32.61 4.59Z"></path>
    </g>
    <defs>
        <linearGradient gradientTransform="rotate(25)"
                        id="57cd6bb2-2c56-4b80-8c54-e576d0ac8ed8" x1="0%" y1="0%" x2="100%" y2="0%">
            <stop offset="0%" stop-color="#006678" stop-opacity="1"></stop>
            <stop offset="100%" stop-color="#4FA8FF" stop-opacity="1"></stop>
        </linearGradient>
    </defs>
    <g id="5f409481-e163-43ab-8375-2c2dc2274be3" stroke="none"
       fill="url(#57cd6bb2-2c56-4b80-8c54-e576d0ac8ed8)"
       transform="matrix(2.2314987182617188,0,0,2.2314987182617188,2.0619548742831313,78.59071231600763)">
        <path d="M37.092 22.808a9.93 9.93 0 0 0-7.07-2.929 9.921 9.921 0 0 0-6.329 2.257l-4.985-4.985a.999.999 0 1 0-1.414 1.414l4.985 4.985a9.921 9.921 0 0 0-2.257 6.329 9.928 9.928 0 0 0 2.929 7.07.997.997 0 0 0 1.414 0l12.728-12.728a1 1 0 0 0-.001-1.413zM23.701 34.784a7.934 7.934 0 0 1-1.679-4.905c0-2.137.832-4.146 2.343-5.657a7.948 7.948 0 0 1 5.657-2.343c1.8 0 3.509.59 4.905 1.679L23.701 34.784zM46.992 45.436l-4.279-4.279c3.213-3.923 2.99-9.738-.671-13.398a.999.999 0 0 0-1.414 0L37.8 30.586l-1.415-1.414a.999.999 0 1 0-1.414 1.414L36.386 32l-4.243 4.243-1.414-1.415a.999.999 0 1 0-1.414 1.414l1.414 1.415-2.829 2.828a.999.999 0 0 0 0 1.414 9.934 9.934 0 0 0 7.071 2.929 9.918 9.918 0 0 0 6.328-2.257l4.278 4.278a.997.997 0 0 0 1.414 0 .997.997 0 0 0 .001-1.413zm-16.927-4.288l2.784-2.783.001-.001.001-.001 5.656-5.656 2.784-2.784c2.438 3.136 2.217 7.683-.663 10.563a7.947 7.947 0 0 1-5.656 2.343 7.943 7.943 0 0 1-4.907-1.681z"></path>
    </g>
</svg>
