<svg xmlns="http://www.w3.org/2000/svg" viewBox="40 127 220 46">
    <g fill="#000000"
       transform="matrix(2.7057323455810547,0,0,2.7057323455810547,96.9525649890025,131.3033883522473)">
        <path d="M4.72 11.48L4.72 11.48Q4.91 11.48 5.03 11.60L5.03 11.60L5.03 11.60Q5.15 11.72 5.15 11.91L5.15 11.91L5.15 11.91Q5.15 12.10 5.03 12.21L5.03 12.21L5.03 12.21Q4.91 12.33 4.72 12.33L4.72 12.33L4.40 12.33L4.40 12.33Q3.63 12.33 3.02 11.98L3.02 11.98L3.02 11.98Q2.42 11.63 2.09 11.03L2.09 11.03L2.09 11.03Q1.75 10.42 1.75 9.65L1.75 9.65L1.75 5.71L0.66 5.71L0.66 5.71Q0.49 5.71 0.39 5.61L0.39 5.61L0.39 5.61Q0.28 5.50 0.28 5.33L0.28 5.33L0.28 5.33Q0.28 5.17 0.39 5.06L0.39 5.06L0.39 5.06Q0.49 4.96 0.66 4.96L0.66 4.96L1.75 4.96L1.75 2.67L1.75 2.67Q1.75 2.48 1.87 2.36L1.87 2.36L1.87 2.36Q1.99 2.24 2.17 2.24L2.17 2.24L2.17 2.24Q2.37 2.24 2.48 2.36L2.48 2.36L2.48 2.36Q2.60 2.48 2.60 2.67L2.60 2.67L2.60 4.96L4.45 4.96L4.45 4.96Q4.62 4.96 4.73 5.06L4.73 5.06L4.73 5.06Q4.83 5.17 4.83 5.33L4.83 5.33L4.83 5.33Q4.83 5.50 4.73 5.61L4.73 5.61L4.73 5.61Q4.62 5.71 4.45 5.71L4.45 5.71L2.60 5.71L2.60 9.65L2.60 9.65Q2.60 10.46 3.11 10.97L3.11 10.97L3.11 10.97Q3.61 11.48 4.41 11.48L4.41 11.48L4.72 11.48ZM10.15 4.59L10.15 4.59Q11.21 4.59 11.21 5.05L11.21 5.05L11.21 5.05Q11.21 5.12 11.20 5.17L11.20 5.17L11.20 5.17Q11.16 5.32 11.07 5.38L11.07 5.38L11.07 5.38Q10.98 5.45 10.82 5.45L10.82 5.45L10.82 5.45Q10.70 5.45 10.49 5.42L10.49 5.42L10.49 5.42Q10.29 5.39 10.15 5.39L10.15 5.39L10.15 5.39Q9.45 5.39 8.90 5.68L8.90 5.68L8.90 5.68Q8.36 5.98 8.05 6.50L8.05 6.50L8.05 6.50Q7.74 7.01 7.74 7.66L7.74 7.66L7.74 11.91L7.74 11.91Q7.74 12.10 7.63 12.21L7.63 12.21L7.63 12.21Q7.52 12.33 7.32 12.33L7.32 12.33L7.32 12.33Q7.14 12.33 7.02 12.21L7.02 12.21L7.02 12.21Q6.90 12.10 6.90 11.91L6.90 11.91L6.90 5.10L6.90 5.10Q6.90 4.90 7.02 4.79L7.02 4.79L7.02 4.79Q7.14 4.68 7.32 4.68L7.32 4.68L7.32 4.68Q7.52 4.68 7.63 4.79L7.63 4.79L7.63 4.79Q7.74 4.90 7.74 5.10L7.74 5.10L7.74 5.96L7.74 5.96Q8.15 5.32 8.78 4.96L8.78 4.96L8.78 4.96Q9.41 4.59 10.15 4.59L10.15 4.59ZM16.53 4.59L16.53 4.59Q17.63 4.59 18.52 5.10L18.52 5.10L18.52 5.10Q19.42 5.61 19.93 6.51L19.93 6.51L19.93 6.51Q20.44 7.41 20.44 8.51L20.44 8.51L20.44 11.91L20.44 11.91Q20.44 12.10 20.33 12.21L20.33 12.21L20.33 12.21Q20.22 12.33 20.02 12.33L20.02 12.33L20.02 12.33Q19.84 12.33 19.72 12.21L19.72 12.21L19.72 12.21Q19.60 12.10 19.60 11.91L19.60 11.91L19.60 10.82L19.60 10.82Q19.14 11.56 18.33 11.99L18.33 11.99L18.33 11.99Q17.53 12.42 16.53 12.42L16.53 12.42L16.53 12.42Q15.43 12.42 14.53 11.91L14.53 11.91L14.53 11.91Q13.64 11.40 13.13 10.50L13.13 10.50L13.13 10.50Q12.61 9.60 12.61 8.51L12.61 8.51L12.61 8.51Q12.61 7.41 13.13 6.51L13.13 6.51L13.13 6.51Q13.64 5.61 14.53 5.10L14.53 5.10L14.53 5.10Q15.43 4.59 16.53 4.59L16.53 4.59ZM16.53 11.63L16.53 11.63Q17.40 11.63 18.10 11.23L18.10 11.23L18.10 11.23Q18.80 10.82 19.20 10.11L19.20 10.11L19.20 10.11Q19.60 9.39 19.60 8.51L19.60 8.51L19.60 8.51Q19.60 7.63 19.20 6.92L19.20 6.92L19.20 6.92Q18.80 6.20 18.10 5.79L18.10 5.79L18.10 5.79Q17.40 5.38 16.53 5.38L16.53 5.38L16.53 5.38Q15.67 5.38 14.97 5.79L14.97 5.79L14.97 5.79Q14.27 6.20 13.86 6.92L13.86 6.92L13.86 6.92Q13.45 7.63 13.45 8.51L13.45 8.51L13.45 8.51Q13.45 9.39 13.86 10.11L13.86 10.11L13.86 10.11Q14.27 10.82 14.97 11.23L14.97 11.23L14.97 11.23Q15.67 11.63 16.53 11.63L16.53 11.63ZM25.72 4.61L25.72 4.61Q26.61 4.61 27.36 4.96L27.36 4.96L27.36 4.96Q28.10 5.31 28.64 5.99L28.64 5.99L28.64 5.99Q28.74 6.13 28.74 6.23L28.74 6.23L28.74 6.23Q28.74 6.43 28.55 6.54L28.55 6.54L28.55 6.54Q28.45 6.62 28.32 6.62L28.32 6.62L28.32 6.62Q28.13 6.62 28 6.45L28 6.45L28 6.45Q27.10 5.39 25.72 5.39L25.72 5.39L25.72 5.39Q24.91 5.39 24.28 5.79L24.28 5.79L24.28 5.79Q23.65 6.19 23.30 6.90L23.30 6.90L23.30 6.90Q22.96 7.62 22.96 8.51L22.96 8.51L22.96 8.51Q22.96 9.39 23.34 10.11L23.34 10.11L23.34 10.11Q23.72 10.82 24.39 11.23L24.39 11.23L24.39 11.23Q25.06 11.63 25.93 11.63L25.93 11.63L25.93 11.63Q27.16 11.63 27.90 10.95L27.90 10.95L27.90 10.95Q28.03 10.82 28.20 10.82L28.20 10.82L28.20 10.82Q28.35 10.82 28.45 10.92L28.45 10.92L28.45 10.92Q28.59 11.05 28.59 11.23L28.59 11.23L28.59 11.23Q28.59 11.38 28.48 11.48L28.48 11.48L28.48 11.48Q27.99 11.93 27.33 12.17L27.33 12.17L27.33 12.17Q26.67 12.42 25.93 12.42L25.93 12.42L25.93 12.42Q24.85 12.42 23.98 11.91L23.98 11.91L23.98 11.91Q23.11 11.40 22.62 10.50L22.62 10.50L22.62 10.50Q22.12 9.60 22.12 8.51L22.12 8.51L22.12 8.51Q22.12 7.41 22.58 6.52L22.58 6.52L22.58 6.52Q23.04 5.63 23.87 5.12L23.87 5.12L23.87 5.12Q24.70 4.61 25.72 4.61L25.72 4.61ZM34.02 4.61L34.02 4.61Q35.04 4.61 35.85 5.09L35.85 5.09L35.85 5.09Q36.65 5.57 37.10 6.43L37.10 6.43L37.10 6.43Q37.55 7.28 37.55 8.37L37.55 8.37L37.55 8.37Q37.55 8.55 37.44 8.66L37.44 8.66L37.44 8.66Q37.32 8.76 37.14 8.76L37.14 8.76L31.28 8.76L31.28 8.76Q31.32 9.59 31.71 10.24L31.71 10.24L31.71 10.24Q32.10 10.89 32.76 11.26L32.76 11.26L32.76 11.26Q33.42 11.62 34.23 11.62L34.23 11.62L34.23 11.62Q34.78 11.62 35.33 11.43L35.33 11.43L35.33 11.43Q35.88 11.24 36.20 10.93L36.20 10.93L36.20 10.93Q36.34 10.82 36.50 10.82L36.50 10.82L36.50 10.82Q36.65 10.82 36.75 10.91L36.75 10.91L36.75 10.91Q36.90 11.03 36.90 11.20L36.90 11.20L36.90 11.20Q36.90 11.34 36.78 11.47L36.78 11.47L36.78 11.47Q36.33 11.87 35.61 12.14L35.61 12.14L35.61 12.14Q34.89 12.40 34.23 12.40L34.23 12.40L34.23 12.40Q33.12 12.40 32.26 11.91L32.26 11.91L32.26 11.91Q31.40 11.41 30.91 10.52L30.91 10.52L30.91 10.52Q30.42 9.63 30.42 8.51L30.42 8.51L30.42 8.51Q30.42 7.38 30.88 6.49L30.88 6.49L30.88 6.49Q31.33 5.60 32.15 5.10L32.15 5.10L32.15 5.10Q32.97 4.61 34.02 4.61L34.02 4.61ZM34.02 5.39L34.02 5.39Q32.93 5.39 32.18 6.12L32.18 6.12L32.18 6.12Q31.43 6.85 31.29 8.04L31.29 8.04L36.74 8.04L36.74 8.04Q36.64 6.85 35.90 6.12L35.90 6.12L35.90 6.12Q35.15 5.39 34.02 5.39L34.02 5.39ZM50.04 1.40L50.04 1.40Q50.22 1.40 50.33 1.52L50.33 1.52L50.33 1.52Q50.44 1.64 50.44 1.82L50.44 1.82L50.44 11.91L50.44 11.91Q50.44 12.10 50.33 12.21L50.33 12.21L50.33 12.21Q50.22 12.33 50.04 12.33L50.04 12.33L50.04 12.33Q49.85 12.33 49.73 12.21L49.73 12.21L49.73 12.21Q49.60 12.10 49.60 11.91L49.60 11.91L49.60 3.33L45.35 12.00L45.35 12.00Q45.25 12.19 44.98 12.19L44.98 12.19L44.98 12.19Q44.73 12.19 44.59 11.93L44.59 11.93L40.35 3.46L40.35 11.91L40.35 11.91Q40.35 12.10 40.23 12.21L40.23 12.21L40.23 12.21Q40.11 12.33 39.93 12.33L39.93 12.33L39.93 12.33Q39.75 12.33 39.63 12.21L39.63 12.21L39.63 12.21Q39.51 12.10 39.51 11.91L39.51 11.91L39.51 1.82L39.51 1.82Q39.51 1.64 39.63 1.52L39.63 1.52L39.63 1.52Q39.75 1.40 39.93 1.40L39.93 1.40L39.93 1.40Q40.21 1.40 40.31 1.61L40.31 1.61L45.01 10.91L49.66 1.61L49.66 1.61Q49.78 1.40 50.04 1.40L50.04 1.40ZM59.84 11.58L59.84 11.58Q60.02 11.58 60.14 11.68L60.14 11.68L60.14 11.68Q60.26 11.79 60.26 11.96L60.26 11.96L60.26 11.96Q60.26 12.12 60.14 12.23L60.14 12.23L60.14 12.23Q60.02 12.33 59.84 12.33L59.84 12.33L53.66 12.33L53.66 12.33Q53.49 12.33 53.37 12.21L53.37 12.21L53.37 12.21Q53.24 12.10 53.24 11.91L53.24 11.91L53.24 1.82L53.24 1.82Q53.24 1.64 53.37 1.52L53.37 1.52L53.37 1.52Q53.49 1.40 53.66 1.40L53.66 1.40L53.66 1.40Q53.84 1.40 53.96 1.52L53.96 1.52L53.96 1.52Q54.08 1.64 54.08 1.82L54.08 1.82L54.08 11.58L59.84 11.58Z"></path>
    </g>
    <defs>
        <linearGradient gradientTransform="rotate(25)"
                        id="30190931-855e-4ddd-b807-9cb2a01de649" x1="0%" y1="0%" x2="100%" y2="0%">
            <stop offset="0%"
                  style="stop-color: #29441F; stop-opacity: 1;"></stop>
            <stop offset="100%"
                  style="stop-color: #1f2f50; stop-opacity: 1;"></stop>
        </linearGradient>
    </defs>
    <g stroke="none" fill="url(#30190931-855e-4ddd-b807-9cb2a01de649)"
       transform="matrix(0.6352643370628357,0,0,0.6352643370628357,39.682367841631034,127.14134904120581)">
        <path d="M67.6 48.7c-.2 0-.4 0-.7-.1-1-.4-1.6-1.5-1.2-2.5 1.2-3.3 1.8-6.8 1.8-10.4 0-14.8-10.5-27.8-25-30.8-1.1-.2-1.8-1.3-1.5-2.4.2-1.1 1.3-1.8 2.4-1.5 16.3 3.4 28.1 18 28.1 34.7 0 4-.7 7.9-2 11.7-.3.8-1 1.3-1.9 1.3zM4.4 48.7c-.8 0-1.6-.5-1.9-1.3-1.3-3.8-2-7.7-2-11.7C.5 19 12.3 4.4 28.6.9c1.1-.2 2.1.5 2.4 1.5.2 1.1-.5 2.1-1.5 2.4-14.5 3.1-25 16-25 30.8 0 3.5.6 7 1.8 10.4.4 1-.2 2.2-1.2 2.5-.3.1-.5.2-.7.2zM36 71.1c-9.7 0-18.8-3.9-25.6-10.9-.8-.8-.7-2.1.1-2.8.8-.8 2.1-.7 2.8.1 6 6.2 14.1 9.7 22.7 9.7s16.7-3.4 22.7-9.7c.8-.8 2-.8 2.8-.1.8.8.8 2 .1 2.8-6.8 7.1-15.9 10.9-25.6 10.9z"></path>
        <circle cx="36" cy="36" r="7.7"></circle>
    </g>
</svg>
