<svg xmlns="http://www.w3.org/2000/svg" viewBox="0 0 386 90" class="iconLeft">
    <g fill="#14242A"
       transform="matrix(6.430868148803711,0,0,6.430868148803711,50.61064910888672,6.382636070251465)">
        <path d="M4.98 5.12L3.09 5.12L3.09 8.46L3.09 8.46Q3.09 9.59 4.06 9.59L4.06 9.59L4.06 9.59Q4.47 9.59 4.89 9.38L4.89 9.38L4.89 10.40L4.89 10.40Q4.31 10.67 3.67 10.67L3.67 10.67L3.67 10.67Q2.74 10.67 2.23 10.14L2.23 10.14L2.23 10.14Q1.72 9.62 1.72 8.60L1.72 8.60L1.72 5.12L0.45 5.12L0.45 4.05L1.72 4.05L1.72 1.95L3.09 1.62L3.09 4.05L4.98 4.05L4.98 5.12ZM10.64 3.30L10.64 4.47L10.64 4.47Q10.54 4.44 10.43 4.41L10.43 4.41L10.43 4.41Q10.33 4.38 10.21 4.36L10.21 4.36L10.21 4.36Q10.09 4.34 9.98 4.34L9.98 4.34L9.98 4.34Q9.38 4.34 8.99 4.61L8.99 4.61L8.99 4.61Q8.60 4.89 8.37 5.31L8.37 5.31L8.37 5.31Q8.15 5.73 8.06 6.24L8.06 6.24L8.06 6.24Q7.97 6.76 7.97 7.25L7.97 7.25L7.97 10.50L6.65 10.50L6.65 3.36L7.77 3.36L7.92 4.47L7.92 4.47Q8.12 4.12 8.36 3.84L8.36 3.84L8.36 3.84Q8.60 3.57 8.92 3.40L8.92 3.40L8.92 3.40Q9.24 3.23 9.66 3.20L9.66 3.20L9.66 3.20Q10.08 3.16 10.64 3.30L10.64 3.30ZM14.91 3.19L14.91 3.19L14.91 3.19Q15.68 3.23 16.28 3.51L16.28 3.51L16.28 3.51Q16.53 3.64 16.79 3.82L16.79 3.82L16.79 3.82Q17.04 4.00 17.23 4.27L17.23 4.27L17.23 4.27Q17.43 4.54 17.55 4.89L17.55 4.89L17.55 4.89Q17.67 5.25 17.67 5.73L17.67 5.73L17.67 10.50L16.44 10.50L16.27 9.63L16.27 9.63Q16.27 9.63 16.13 9.80L16.13 9.80L16.13 9.80Q15.99 9.97 15.72 10.16L15.72 10.16L15.72 10.16Q15.46 10.35 15.07 10.51L15.07 10.51L15.07 10.51Q14.69 10.67 14.21 10.67L14.21 10.67L14.21 10.67Q13.05 10.67 12.33 10.14L12.33 10.14L12.33 10.14Q11.62 9.62 11.62 8.46L11.62 8.46L11.62 8.46Q11.62 7.78 11.94 7.34L11.94 7.34L11.94 7.34Q12.26 6.90 12.73 6.64L12.73 6.64L12.73 6.64Q13.20 6.38 13.73 6.29L13.73 6.29L13.73 6.29Q14.25 6.19 14.66 6.19L14.66 6.19L16.35 6.19L16.35 5.71L16.35 5.71Q16.30 5.07 16.01 4.75L16.01 4.75L16.01 4.75Q15.72 4.42 15.31 4.32L15.31 4.32L15.31 4.32Q14.90 4.21 14.41 4.29L14.41 4.29L14.41 4.29Q13.93 4.37 13.51 4.50L13.51 4.50L13.51 4.50Q13.09 4.63 12.78 4.78L12.78 4.78L12.78 4.78Q12.47 4.93 12.39 4.98L12.39 4.98L12.39 3.86L12.39 3.86Q12.78 3.68 13.20 3.53L13.20 3.53L13.20 3.53Q13.57 3.40 14.01 3.30L14.01 3.30L14.01 3.30Q14.46 3.19 14.91 3.19ZM14.32 9.60L14.32 9.60L14.32 9.60Q15.16 9.60 15.69 9.21L15.69 9.21L15.69 9.21Q16.23 8.81 16.35 8.16L16.35 8.16L16.35 7.14L15.61 7.14L15.61 7.14Q15.34 7.14 14.90 7.16L14.90 7.16L14.90 7.16Q14.46 7.18 14.04 7.29L14.04 7.29L14.04 7.29Q13.62 7.41 13.31 7.67L13.31 7.67L13.31 7.67Q13.01 7.92 13.01 8.40L13.01 8.40L13.01 8.40Q13.01 8.69 13.13 8.92L13.13 8.92L13.13 8.92Q13.26 9.14 13.45 9.30L13.45 9.30L13.45 9.30Q13.64 9.45 13.87 9.53L13.87 9.53L13.87 9.53Q14.11 9.60 14.32 9.60ZM22.99 3.19L22.99 3.19L22.99 3.19Q23.44 3.19 23.76 3.24L23.76 3.24L23.76 3.24Q24.08 3.29 24.29 3.35L24.29 3.35L24.29 3.35Q24.54 3.42 24.71 3.50L24.71 3.50L24.71 4.49L24.71 4.49Q24.08 4.28 23.40 4.26L23.40 4.26L23.40 4.26Q22.72 4.23 22.15 4.48L22.15 4.48L22.15 4.48Q21.57 4.73 21.20 5.32L21.20 5.32L21.20 5.32Q20.83 5.91 20.83 6.93L20.83 6.93L20.83 6.93Q20.83 7.97 21.20 8.55L21.20 8.55L21.20 8.55Q21.57 9.14 22.15 9.39L22.15 9.39L22.15 9.39Q22.72 9.63 23.41 9.59L23.41 9.59L23.41 9.59Q24.09 9.55 24.71 9.31L24.71 9.31L24.71 10.32L24.71 10.32Q24.54 10.43 24.29 10.50L24.29 10.50L24.29 10.50Q24.08 10.57 23.76 10.62L23.76 10.62L23.76 10.62Q23.44 10.67 22.99 10.67L22.99 10.67L22.99 10.67Q22.46 10.67 21.84 10.51L21.84 10.51L21.84 10.51Q21.22 10.35 20.68 9.93L20.68 9.93L20.68 9.93Q20.15 9.51 19.79 8.78L19.79 8.78L19.79 8.78Q19.43 8.05 19.43 6.93L19.43 6.93L19.43 6.93Q19.43 5.80 19.79 5.07L19.79 5.07L19.79 5.07Q20.15 4.34 20.68 3.93L20.68 3.93L20.68 3.93Q21.22 3.51 21.84 3.35L21.84 3.35L21.84 3.35Q22.46 3.19 22.99 3.19ZM29.85 10.67L29.85 10.67L29.85 10.67Q28.64 10.67 27.89 10.31L27.89 10.31L27.89 10.31Q27.15 9.95 26.73 9.39L26.73 9.39L26.73 9.39Q26.31 8.83 26.15 8.14L26.15 8.14L26.15 8.14Q26.00 7.45 26.00 6.78L26.00 6.78L26.00 6.78Q26.00 6.10 26.21 5.46L26.21 5.46L26.21 5.46Q26.43 4.82 26.84 4.31L26.84 4.31L26.84 4.31Q27.26 3.81 27.86 3.50L27.86 3.50L27.86 3.50Q28.46 3.19 29.25 3.19L29.25 3.19L29.25 3.19Q30.18 3.19 30.81 3.52L30.81 3.52L30.81 3.52Q31.44 3.85 31.82 4.38L31.82 4.38L31.82 4.38Q32.20 4.90 32.35 5.54L32.35 5.54L32.35 5.54Q32.51 6.17 32.51 6.78L32.51 6.78L32.51 7.22L27.40 7.22L27.40 7.22Q27.45 7.90 27.71 8.41L27.71 8.41L27.71 8.41Q27.82 8.64 27.99 8.86L27.99 8.86L27.99 8.86Q28.15 9.07 28.40 9.24L28.40 9.24L28.40 9.24Q28.64 9.41 28.97 9.51L28.97 9.51L28.97 9.51Q29.29 9.60 29.71 9.60L29.71 9.60L29.71 9.60Q30.16 9.60 30.55 9.50L30.55 9.50L30.55 9.50Q30.95 9.39 31.26 9.27L31.26 9.27L31.26 9.27Q31.63 9.11 31.93 8.92L31.93 8.92L31.95 10.12L31.95 10.12Q31.95 10.12 31.79 10.21L31.79 10.21L31.79 10.21Q31.63 10.30 31.35 10.40L31.35 10.40L31.35 10.40Q31.07 10.50 30.68 10.58L30.68 10.58L30.68 10.58Q30.30 10.67 29.85 10.67ZM27.40 6.24L31.11 6.24L31.11 6.24Q31.11 5.89 31.00 5.54L31.00 5.54L31.00 5.54Q30.90 5.18 30.67 4.89L30.67 4.89L30.67 4.89Q30.45 4.61 30.10 4.43L30.10 4.43L30.10 4.43Q29.75 4.26 29.25 4.26L29.25 4.26L29.25 4.26Q28.81 4.26 28.47 4.43L28.47 4.43L28.47 4.43Q28.13 4.61 27.89 4.89L27.89 4.89L27.89 4.89Q27.65 5.18 27.52 5.54L27.52 5.54L27.52 5.54Q27.40 5.89 27.40 6.24L27.40 6.24ZM34.41 1.36L36.67 1.36L39.47 8.85L42.10 1.36L44.35 1.36L42.10 1.36L44.35 1.36L44.35 10.50L42.95 10.50L42.95 2.73L41.61 6.62L41.61 6.62Q41.02 8.33 40.25 10.50L40.25 10.50L38.67 10.50L35.81 2.73L35.81 10.50L34.41 10.50L34.41 1.36ZM52.02 9.27L52.02 10.50L46.89 10.50L46.89 1.34L48.29 1.34L48.29 9.27L52.02 9.27Z"></path>
    </g>
    <defs>
        <linearGradient gradientTransform="rotate(25)"
                        id="dc2f152b-f996-46fb-a3aa-be2516434e2e" x1="0%" y1="0%" x2="100%" y2="0%">
            <stop offset="0%"
                  style="stop-color: rgb(62, 110, 129); stop-opacity: 1;"></stop>
            <stop offset="100%"
                  style="stop-color: rgb(69, 135, 161); stop-opacity: 1;"></stop>
        </linearGradient>
    </defs>
    <g
       transform="matrix(1.6669487953186035,0,0,1.6669487953186035,-66.39720153808594,-37.33924865722656)"
       stroke="none" fill="url(#dc2f152b-f996-46fb-a3aa-be2516434e2e)">
        <g color="#000" font-weight="400" font-family="sans-serif"
           stroke-width="1.5" stroke-linecap="round" stroke-linejoin="round">
            <path style="line-height:normal;text-indent:0;text-align:start;text-decoration-line:none;text-decoration-style:solid;text-decoration-color:#000;text-transform:none;block-progression:tb;isolation:auto;mix-blend-mode:normal"
                  d="M49.736 41.862a.75.75 0 0 0-.738.762V76.24a.75.75 0 1 0 1.5 0V42.624a.75.75 0 0 0-.762-.762zM41.05 45.245a.75.75 0 0 0-.74.616s-.196 1.068-.294 2.375c-.099 1.306-.151 2.83.34 4.015.648 1.565 2.2 3.046 3.591 4.242a35.046 35.046 0 0 0 2.643 2.059.75.75 0 0 0 1.164-.483s.196-1.068.295-2.375c.098-1.306.15-2.83-.34-4.015-.648-1.565-2.2-3.046-3.592-4.242-1.39-1.197-2.644-2.059-2.644-2.059a.75.75 0 0 0-.422-.133zm.579 2.15c.47.347.715.495 1.51 1.178 1.323 1.139 2.755 2.643 3.183 3.678.271.654.323 2.114.23 3.332-.039.523-.065.571-.116.951-.471-.346-.717-.494-1.512-1.177-1.324-1.139-2.755-2.643-3.184-3.678-.27-.654-.322-2.114-.23-3.332.04-.523.067-.571.119-.951zM41.05 57.185a.75.75 0 0 0-.74.613s-.196 1.068-.294 2.375c-.099 1.307-.151 2.833.34 4.018.648 1.565 2.2 3.046 3.591 4.242a35.014 35.014 0 0 0 2.643 2.058.75.75 0 0 0 1.164-.482s.196-1.068.295-2.375c.098-1.307.15-2.833-.34-4.018-.648-1.565-2.2-3.044-3.592-4.24-1.39-1.196-2.644-2.058-2.644-2.058a.75.75 0 0 0-.422-.133zm.577 2.15c.47.346.716.494 1.512 1.178 1.323 1.138 2.755 2.643 3.183 3.678.271.654.323 2.111.23 3.33-.039.522-.065.57-.116.95-.471-.345-.717-.493-1.512-1.177-1.324-1.138-2.755-2.643-3.184-3.678-.27-.654-.322-2.111-.23-3.33.04-.522.066-.57.117-.95zM41.05 33.308a.75.75 0 0 0-.74.613s-.196 1.068-.294 2.375c-.099 1.307-.15 2.833.34 4.018.648 1.565 2.2 3.044 3.591 4.24a35.025 35.025 0 0 0 2.643 2.058.75.75 0 0 0 1.164-.48s.196-1.068.295-2.375c.098-1.307.15-2.833-.34-4.018-.648-1.565-2.2-3.046-3.592-4.242-1.39-1.196-2.644-2.058-2.644-2.058a.75.75 0 0 0-.422-.131zm.577 2.15c.47.346.716.494 1.512 1.178 1.323 1.138 2.755 2.643 3.183 3.678.271.654.323 2.111.23 3.33-.039.522-.065.57-.116.95-.471-.345-.715-.493-1.51-1.177-1.324-1.138-2.757-2.643-3.186-3.678-.27-.654-.322-2.111-.23-3.33.04-.522.066-.57.117-.95zM58.943 33.308a.75.75 0 0 0-.416.13s-1.253.863-2.644 2.06c-1.391 1.195-2.944 2.676-3.592 4.241-.49 1.185-.438 2.711-.34 4.018.099 1.307.295 2.375.295 2.375a.75.75 0 0 0 1.164.48s1.252-.862 2.643-2.058c1.39-1.196 2.943-2.675 3.592-4.24.49-1.185.438-2.711.34-4.018-.1-1.307-.296-2.375-.296-2.375a.75.75 0 0 0-.746-.613zm-.57 2.15c.051.38.078.429.117.951.092 1.219.04 2.676-.23 3.33-.429 1.035-1.862 2.54-3.186 3.678-.795.684-1.039.832-1.51 1.178-.05-.38-.077-.429-.117-.951-.092-1.219-.04-2.676.23-3.33.43-1.035 1.86-2.54 3.184-3.678.796-.684 1.042-.832 1.512-1.178zM58.943 45.245a.75.75 0 0 0-.416.133s-1.253.862-2.644 2.059c-1.391 1.196-2.944 2.677-3.592 4.242-.49 1.184-.438 2.709-.34 4.015.099 1.307.295 2.375.295 2.375a.75.75 0 0 0 1.164.483s1.252-.862 2.643-2.059c1.39-1.196 2.943-2.677 3.592-4.242.49-1.184.438-2.709.34-4.015-.1-1.307-.296-2.375-.296-2.375a.75.75 0 0 0-.746-.616zm-.572 2.15c.052.38.08.429.12.952.091 1.218.04 2.678-.231 3.332-.429 1.035-1.862 2.54-3.186 3.678-.794.683-1.039.831-1.51 1.177-.051-.38-.077-.428-.117-.95-.092-1.22-.04-2.679.23-3.333.43-1.035 1.86-2.54 3.184-3.678.795-.683 1.04-.831 1.51-1.177zM58.943 57.185a.75.75 0 0 0-.416.133s-1.253.862-2.644 2.058c-1.391 1.196-2.944 2.675-3.592 4.24-.49 1.185-.438 2.711-.34 4.018.099 1.307.295 2.375.295 2.375a.75.75 0 0 0 1.164.482s1.252-.862 2.643-2.058c1.39-1.196 2.943-2.677 3.592-4.242.49-1.185.438-2.711.34-4.018-.1-1.307-.296-2.375-.296-2.375a.75.75 0 0 0-.746-.613zm-.57 2.15c.051.38.078.429.117.951.092 1.219.04 2.676-.23 3.33-.429 1.035-1.862 2.54-3.186 3.678-.795.684-1.039.832-1.51 1.178-.05-.38-.077-.429-.117-.951-.092-1.219-.04-2.676.23-3.33.43-1.035 1.86-2.54 3.184-3.678.796-.684 1.042-.832 1.512-1.178zM50.346 23.001a.75.75 0 0 0-.518.262s-.705.828-1.443 1.91c-.739 1.082-1.546 2.378-1.713 3.648-.221 1.68.383 3.738.99 5.47.607 1.73 1.262 3.105 1.262 3.105a.75.75 0 0 0 1.248.164s.705-.826 1.443-1.908c.739-1.083 1.546-2.378 1.713-3.649.221-1.68-.383-3.739-.99-5.47-.607-1.732-1.262-3.106-1.262-3.106a.75.75 0 0 0-.73-.426zm-.145 2.252c.235.535.374.786.72 1.775.578 1.649 1.065 3.667.919 4.778-.093.702-.776 1.99-1.465 3-.295.432-.342.46-.576.763-.235-.535-.374-.785-.72-1.775-.578-1.648-1.065-3.667-.919-4.777.093-.702.776-1.991 1.465-3 .295-.433.342-.46.576-.764z"
            ></path>
        </g>
    </g>
</svg>
