<svg xmlns="http://www.w3.org/2000/svg" viewBox="0 0 95.37003098685861 60">
    <defs>
        <linearGradient gradientTransform="rotate(25)"
                        id="e1a75d53-b707-4ebb-a680-02e23f601c49" x1="0%" y1="0%" x2="100%" y2="0%">
            <stop offset="0%"
                  style="stop-color: rgb(1, 100, 139); stop-opacity: 1;"></stop>
            <stop offset="100%"
                  style="stop-color: rgb(91, 208, 164); stop-opacity: 1;"></stop>
        </linearGradient>
    </defs>
    <g transform="matrix(0.9996331334114075,0,0,0.9996331334114075,-3.2847492694854736,-20.75238800048828)"
       fill="url(#e1a75d53-b707-4ebb-a680-02e23f601c49)">
        <path d="M92.559 45.057a20.865 20.865 0 0 0-14.788-6.131 20.919 20.919 0 0 0-10.021 2.553c-.113-11.463-9.433-20.717-20.922-20.719-10.65.002-19.432 7.959-20.748 18.252a20.79 20.79 0 0 0-1.867-.086v.001a20.876 20.876 0 0 0-14.796 6.13 20.85 20.85 0 0 0-6.131 14.79 20.873 20.873 0 0 0 6.13 14.807 20.868 20.868 0 0 0 14.797 6.128h53.556a20.864 20.864 0 0 0 14.791-6.126 20.892 20.892 0 0 0 6.131-14.807 20.883 20.883 0 0 0-6.132-14.792zm-2.573 27.022a17.228 17.228 0 0 1-12.225 5.063h-53.55a17.212 17.212 0 0 1-12.224-5.064 17.224 17.224 0 0 1-5.062-12.231 17.216 17.216 0 0 1 5.063-12.216 17.217 17.217 0 0 1 12.225-5.064 17.217 17.217 0 0 1 12.224 5.064l2.573-2.575a20.82 20.82 0 0 0-9.343-5.402c1.02-8.586 8.304-15.237 17.159-15.254 9.549.017 17.271 7.741 17.289 17.288 0 .836-.061 1.656-.175 2.458-.332.292-.659.594-.977.911l2.572 2.572a17.23 17.23 0 0 1 12.233-5.062 17.214 17.214 0 0 1 12.215 5.064 17.23 17.23 0 0 1 5.065 12.218c-.002 4.432-1.681 8.849-5.062 12.23z"></path>
    </g>
</svg>
