<svg xmlns="http://www.w3.org/2000/svg" viewBox="0 0 96.45013286872906 60">
    <defs>
        <linearGradient gradientTransform="rotate(25)"
                        id="5819079b-94d8-4811-8731-33d78b2ad27b" x1="0%" y1="0%" x2="100%" y2="0%">
            <stop offset="0%"
                  style="stop-color: rgb(1, 100, 139); stop-opacity: 1;"></stop>
            <stop offset="100%"
                  style="stop-color: rgb(91, 208, 164); stop-opacity: 1;"></stop>
        </linearGradient>
    </defs>
    <g id="ba33a19c-9c4e-403f-8d1b-883bed0a8dee"
       fill="url(#5819079b-94d8-4811-8731-33d78b2ad27b)"
       transform="matrix(5.48947811126709,0,0,5.48947811126709,-7.685264587402344,-7.685268402099609)">
        <path d="M8.46 10.99L8.46 10.99Q8.78 10.99 8.97 11.17L8.97 11.17L8.97 11.17Q9.17 11.35 9.17 11.65L9.17 11.65L9.17 11.65Q9.17 11.96 8.97 12.14L8.97 12.14L8.97 12.14Q8.78 12.33 8.46 12.33L8.46 12.33L2.13 12.33L2.13 12.33Q1.82 12.33 1.61 12.12L1.61 12.12L1.61 12.12Q1.40 11.91 1.40 11.61L1.40 11.61L1.40 2.13L1.40 2.13Q1.40 1.81 1.61 1.60L1.61 1.60L1.61 1.60Q1.82 1.40 2.13 1.40L2.13 1.40L8.46 1.40L8.46 1.40Q8.78 1.40 8.97 1.59L8.97 1.59L8.97 1.59Q9.17 1.78 9.17 2.09L9.17 2.09L9.17 2.09Q9.17 2.38 8.97 2.56L8.97 2.56L8.97 2.56Q8.78 2.74 8.46 2.74L8.46 2.74L2.86 2.74L2.86 6.15L6.87 6.15L6.87 6.15Q7.18 6.15 7.38 6.33L7.38 6.33L7.38 6.33Q7.59 6.52 7.59 6.82L7.59 6.82L7.59 6.82Q7.59 7.11 7.38 7.30L7.38 7.30L7.38 7.30Q7.18 7.49 6.87 7.49L6.87 7.49L2.86 7.49L2.86 10.99L8.46 10.99ZM18.26 10.99L18.26 10.99Q18.58 10.99 18.77 11.17L18.77 11.17L18.77 11.17Q18.97 11.35 18.97 11.65L18.97 11.65L18.97 11.65Q18.97 11.96 18.77 12.14L18.77 12.14L18.77 12.14Q18.58 12.33 18.26 12.33L18.26 12.33L11.93 12.33L11.93 12.33Q11.62 12.33 11.41 12.12L11.41 12.12L11.41 12.12Q11.20 11.91 11.20 11.61L11.20 11.61L11.20 2.13L11.20 2.13Q11.20 1.81 11.41 1.60L11.41 1.60L11.41 1.60Q11.62 1.40 11.93 1.40L11.93 1.40L18.26 1.40L18.26 1.40Q18.58 1.40 18.77 1.59L18.77 1.59L18.77 1.59Q18.97 1.78 18.97 2.09L18.97 2.09L18.97 2.09Q18.97 2.38 18.77 2.56L18.77 2.56L18.77 2.56Q18.58 2.74 18.26 2.74L18.26 2.74L12.66 2.74L12.66 6.15L16.67 6.15L16.67 6.15Q16.98 6.15 17.19 6.33L17.19 6.33L17.19 6.33Q17.39 6.52 17.39 6.82L17.39 6.82L17.39 6.82Q17.39 7.11 17.19 7.30L17.19 7.30L17.19 7.30Q16.98 7.49 16.67 7.49L16.67 7.49L12.66 7.49L12.66 10.99L18.26 10.99Z"></path>
    </g>
</svg>
