<svg width="512" height="512" xmlns="http://www.w3.org/2000/svg">

 <g>
  <title>background</title>
  <rect fill="none" id="canvas_background" height="402" width="582" y="-1" x="-1"/>
 </g>
 <g>
  <title>Layer 1</title>
  <rect id="svg_1" fill="#ECEEF1" height="400.783" width="496.971" y="55.609" x="7.515"/>
  <rect id="svg_2" fill="#D9DDE2" height="400.783" width="32.063" y="55.609" x="7.515"/>
  <rect id="svg_3" fill="#69788D" height="80.157" width="496.971" y="55.609" x="7.515"/>
  <rect id="svg_4" fill="#56677E" height="80.157" width="32.063" y="55.609" x="7.515"/>
  <circle id="svg_5" fill="#FF8C78" r="16.031" cy="95.687" cx="464.407"/>
  <circle id="svg_6" fill="#FFDB66" r="16.031" cy="95.687" cx="400.282"/>
  <circle id="svg_7" fill="#7EC97D" r="16.031" cy="95.687" cx="336.157"/>
  <g id="svg_8">
   <path id="svg_9" fill="#6b7b9e" d="m171.836,312.11l-12.023,0l0,-84.164c0,-5.175 -3.311,-9.77 -8.221,-11.406c-4.913,-1.637 -10.316,0.053 -13.421,4.192l-72.141,96.188c-2.732,3.643 -3.172,8.518 -1.135,12.592c2.037,4.074 6.2,6.646 10.754,6.646l60.117,0l0,12.023c0,6.64 5.384,12.023 12.023,12.023s12.023,-5.384 12.023,-12.023l0,-12.023l12.023,0c6.64,0 12.023,-5.384 12.023,-12.023s-5.382,-12.025 -12.022,-12.025zm-36.071,0l-36.07,0l36.07,-48.094l0,48.094z"/>
   <path id="svg_10" fill="#6b7b9e" d="m436.352,312.11l-12.023,0l0,-84.164c0,-5.175 -3.311,-9.77 -8.221,-11.406c-4.913,-1.637 -10.316,0.053 -13.421,4.192l-72.141,96.188c-2.732,3.643 -3.172,8.518 -1.135,12.592c2.037,4.074 6.2,6.646 10.754,6.646l60.117,0l0,12.023c0,6.64 5.383,12.023 12.023,12.023s12.023,-5.384 12.023,-12.023l0,-12.023l12.023,0c6.64,0 12.023,-5.384 12.023,-12.023s-5.382,-12.025 -12.022,-12.025zm-36.07,0l-36.07,0l36.07,-48.094l0,48.094z"/>
  </g>
  <path id="svg_11" fill="#6b7b9e" d="m260.008,215.922l-8.016,0c-24.309,0 -44.086,19.777 -44.086,44.086l0,56.11c0,24.309 19.777,44.086 44.086,44.086l8.016,0c24.309,0 44.086,-19.777 44.086,-44.086l0,-56.11c0,-24.31 -19.777,-44.086 -44.086,-44.086zm20.039,100.195c0,11.05 -8.99,20.039 -20.039,20.039l-8.016,0c-11.05,0 -20.039,-8.99 -20.039,-20.039l0,-56.11c0,-11.05 8.99,-20.039 20.039,-20.039l8.016,0c11.05,0 20.039,8.99 20.039,20.039l0,56.11z"/>
  <path id="svg_12" d="m504.485,48.094l-496.97,0c-4.15,0 -7.515,3.365 -7.515,7.515l0,400.783c0,4.15 3.365,7.515 7.515,7.515l496.971,0c4.151,0 7.515,-3.365 7.515,-7.515l0,-400.783c-0.001,-4.15 -3.365,-7.515 -7.516,-7.515zm-489.456,400.783l0,-305.597l367.217,0c4.151,0 7.515,-3.365 7.515,-7.515s-3.364,-7.515 -7.515,-7.515l-367.217,0l0,-65.127l481.941,0l0,65.127l-79.656,0c-4.151,0 -7.515,3.365 -7.515,7.515s3.364,7.515 7.515,7.515l79.656,0l0,305.597l-481.941,0z"/>
  <path id="svg_13" d="m464.407,119.233c12.983,0 23.546,-10.563 23.546,-23.546s-10.563,-23.546 -23.546,-23.546s-23.546,10.563 -23.546,23.546s10.563,23.546 23.546,23.546zm0,-32.063c4.696,0 8.517,3.82 8.517,8.517s-3.82,8.517 -8.517,8.517c-4.696,0 -8.517,-3.82 -8.517,-8.517s3.821,-8.517 8.517,-8.517z"/>
  <path id="svg_14" d="m423.828,95.687c0,-12.983 -10.563,-23.546 -23.546,-23.546s-23.546,10.563 -23.546,23.546s10.563,23.546 23.546,23.546s23.546,-10.563 23.546,-23.546zm-32.063,0c0,-4.696 3.82,-8.517 8.517,-8.517c4.696,0 8.517,3.82 8.517,8.517s-3.82,8.517 -8.517,8.517c-4.696,0 -8.517,-3.821 -8.517,-8.517z"/>
  <path id="svg_15" d="m336.157,72.141c-12.983,0 -23.546,10.563 -23.546,23.546s10.563,23.546 23.546,23.546s23.546,-10.563 23.546,-23.546s-10.563,-23.546 -23.546,-23.546zm0,32.063c-4.696,0 -8.517,-3.82 -8.517,-8.517s3.82,-8.517 8.517,-8.517c4.696,0 8.517,3.82 8.517,8.517s-3.821,8.517 -8.517,8.517z"/>
  <path id="svg_16" d="m47.593,88.172l-8.016,0c-4.15,0 -7.515,3.365 -7.515,7.515c0,4.15 3.365,7.515 7.515,7.515l8.016,0c4.15,0 7.515,-3.365 7.515,-7.515c0,-4.15 -3.365,-7.515 -7.515,-7.515z"/>
  <path id="svg_17" d="m87.671,88.172l-16.031,0c-4.15,0 -7.515,3.365 -7.515,7.515c0,4.15 3.365,7.515 7.515,7.515l16.031,0c4.15,0 7.515,-3.365 7.515,-7.515c0,-4.15 -3.365,-7.515 -7.515,-7.515z"/>
  <path id="svg_18" d="m119.734,88.172l-8.016,0c-4.15,0 -7.515,3.365 -7.515,7.515c0,4.15 3.365,7.515 7.515,7.515l8.016,0c4.15,0 7.515,-3.365 7.515,-7.515c0,-4.15 -3.365,-7.515 -7.515,-7.515z"/>
  <path id="svg_19" d="m171.836,304.595l-4.509,0l0,-76.65c0,-8.423 -5.368,-15.872 -13.359,-18.536c-7.994,-2.664 -16.756,0.074 -21.81,6.812l-72.141,96.188c-4.469,5.959 -5.176,13.799 -1.845,20.461c3.331,6.663 10.027,10.801 17.475,10.801l52.603,0l0,4.509c0,10.773 8.765,19.538 19.538,19.538s19.538,-8.765 19.538,-19.538l0,-4.509l4.509,0c10.773,0 19.538,-8.765 19.538,-19.538c0.001,-10.773 -8.764,-19.538 -19.537,-19.538zm0,24.047l-12.023,0c-4.15,0 -7.515,3.365 -7.515,7.515l0,12.023c0,2.486 -2.023,4.509 -4.509,4.509s-4.509,-2.023 -4.509,-4.509l0,-12.023c0,-4.15 -3.365,-7.515 -7.515,-7.515l-60.117,0c-3.638,0 -5.798,-4.292 -3.607,-7.214l72.141,-96.188c2.545,-3.393 8.116,-1.516 8.116,2.705l0,84.164c0,4.15 3.365,7.515 7.515,7.515l12.023,0c2.486,0 4.509,2.023 4.509,4.509c-0.001,2.486 -2.024,4.509 -4.509,4.509z"/>
  <path id="svg_20" d="m138.142,256.887c-3.067,-1.021 -6.448,0.033 -8.388,2.62l-36.07,48.094c-3.647,4.863 -0.053,12.023 6.012,12.023l36.07,0c4.15,0 7.515,-3.365 7.515,-7.515l0,-48.094c-0.001,-3.234 -2.071,-6.105 -5.139,-7.128zm-9.892,47.708l-13.526,0l13.526,-18.035l0,18.035z"/>
  <path id="svg_21" d="m436.352,304.595l-4.509,0l0,-76.65c0,-8.422 -5.368,-15.872 -13.36,-18.536c-7.991,-2.664 -16.757,0.074 -21.81,6.812l-72.141,96.188c-4.469,5.959 -5.175,13.798 -1.845,20.461c3.332,6.663 10.028,10.801 17.476,10.801l52.603,0l0,4.509c0,10.773 8.765,19.538 19.538,19.538c10.773,0 19.538,-8.765 19.538,-19.538l0,-4.509l4.509,0c10.773,0 19.538,-8.765 19.538,-19.538c0.001,-10.773 -8.764,-19.538 -19.537,-19.538zm0,24.047l-12.023,0c-4.151,0 -7.515,3.365 -7.515,7.515l0,12.023c0,2.486 -2.023,4.509 -4.509,4.509c-2.486,0 -4.509,-2.023 -4.509,-4.509l0,-12.023c0,-4.15 -3.364,-7.515 -7.515,-7.515l-60.117,0c-3.637,0 -5.799,-4.292 -3.608,-7.214l72.141,-96.188c2.545,-3.393 8.117,-1.516 8.117,2.705l0,84.164c0,4.15 3.364,7.515 7.515,7.515l12.023,0c2.486,0 4.509,2.023 4.509,4.509c0,2.486 -2.023,4.509 -4.509,4.509z"/>
  <path id="svg_22" d="m402.658,256.887c-3.071,-1.023 -6.45,0.032 -8.388,2.62l-36.07,48.094c-1.707,2.276 -1.983,5.323 -0.709,7.869c1.273,2.546 3.875,4.154 6.721,4.154l36.07,0c4.151,0 7.515,-3.365 7.515,-7.515l0,-48.094c-0.001,-3.234 -2.07,-6.105 -5.139,-7.128zm-9.891,47.708l-13.526,0l13.526,-18.035l0,18.035z"/>
  <path id="svg_23" d="m260.008,232.454l-8.016,0c-15.194,0 -27.554,12.36 -27.554,27.554l0,56.11c0,15.194 12.36,27.554 27.554,27.554l8.016,0c15.193,0 27.554,-12.36 27.554,-27.554l0,-56.11c0,-15.194 -12.361,-27.554 -27.554,-27.554zm12.524,83.663c0,6.906 -5.618,12.524 -12.524,12.524l-8.016,0c-6.906,0 -12.524,-5.618 -12.524,-12.524l0,-56.11c0,-6.906 5.618,-12.524 12.524,-12.524l8.016,0c6.906,0 12.524,5.618 12.524,12.524l0,56.11z"/>
  <path id="svg_24" d="m260.008,208.407l-8.016,0c-28.453,0 -51.601,23.148 -51.601,51.601l0,56.11c0,28.453 23.148,51.601 51.601,51.601l8.016,0c28.453,0 51.601,-23.148 51.601,-51.601l0,-56.11c0,-28.453 -23.149,-51.601 -51.601,-51.601zm36.571,107.71c0,20.165 -16.406,36.571 -36.571,36.571l-8.016,0c-20.165,0 -36.571,-16.406 -36.571,-36.571l0,-56.11c0,-20.165 16.406,-36.571 36.571,-36.571l8.016,0c20.165,0 36.571,16.406 36.571,36.571l0,56.11z"/>
  <g id="svg_25"/>
  <g id="svg_26"/>
  <g id="svg_27"/>
  <g id="svg_28"/>
  <g id="svg_29"/>
  <g id="svg_30"/>
  <g id="svg_31"/>
  <g id="svg_32"/>
  <g id="svg_33"/>
  <g id="svg_34"/>
  <g id="svg_35"/>
  <g id="svg_36"/>
  <g id="svg_37"/>
  <g id="svg_38"/>
  <g id="svg_39"/>
 </g>
</svg>