<?xml version="1.0" encoding="iso-8859-1"?>
<!-- Generator: Adobe Illustrator 19.0.0, SVG Export Plug-In . SVG Version: 6.00 Build 0)  -->
<svg version="1.1" id="Capa_1" xmlns="http://www.w3.org/2000/svg" xmlns:xlink="http://www.w3.org/1999/xlink" x="0px" y="0px"
	 viewBox="0 0 512 512" style="enable-background:new 0 0 512 512;" xml:space="preserve">
<rect x="7.515" y="55.609" style="fill:#ECEEF1;" width="496.971" height="400.783"/>
<rect x="7.515" y="55.609" style="fill:#D9DDE2;" width="32.063" height="400.783"/>
<rect x="7.515" y="55.609" style="fill:#69788D;" width="496.971" height="80.157"/>
<rect x="7.515" y="55.609" style="fill:#56677E;" width="32.063" height="80.157"/>
<circle style="fill:#FF8C78;" cx="464.407" cy="95.687" r="16.031"/>
<circle style="fill:#FFDB66;" cx="400.282" cy="95.687" r="16.031"/>
<circle style="fill:#7EC97D;" cx="336.157" cy="95.687" r="16.031"/>
<g>
	<path style="fill:#FF8C78;" d="M171.836,312.11h-12.023v-84.164c0-5.175-3.311-9.77-8.221-11.406
		c-4.913-1.637-10.316,0.053-13.421,4.192l-72.141,96.188c-2.732,3.643-3.172,8.518-1.135,12.592
		c2.037,4.074,6.2,6.646,10.754,6.646h60.117v12.023c0,6.64,5.384,12.023,12.023,12.023s12.023-5.384,12.023-12.023v-12.023h12.023
		c6.64,0,12.023-5.384,12.023-12.023S178.476,312.11,171.836,312.11z M135.765,312.11h-36.07l36.07-48.094V312.11z"/>
	<path style="fill:#FF8C78;" d="M436.352,312.11h-12.023v-84.164c0-5.175-3.311-9.77-8.221-11.406
		c-4.913-1.637-10.316,0.053-13.421,4.192l-72.141,96.188c-2.732,3.643-3.172,8.518-1.135,12.592
		c2.037,4.074,6.2,6.646,10.754,6.646h60.117v12.023c0,6.64,5.383,12.023,12.023,12.023s12.023-5.384,12.023-12.023v-12.023h12.023
		c6.64,0,12.023-5.384,12.023-12.023S442.992,312.11,436.352,312.11z M400.282,312.11h-36.07l36.07-48.094V312.11z"/>
</g>
<path style="fill:#DB6B5E;" d="M260.008,215.922h-8.016c-24.309,0-44.086,19.777-44.086,44.086v56.11
	c0,24.309,19.777,44.086,44.086,44.086h8.016c24.309,0,44.086-19.777,44.086-44.086v-56.11
	C304.094,235.698,284.317,215.922,260.008,215.922z M280.047,316.117c0,11.05-8.99,20.039-20.039,20.039h-8.016
	c-11.05,0-20.039-8.99-20.039-20.039v-56.11c0-11.05,8.99-20.039,20.039-20.039h8.016c11.05,0,20.039,8.99,20.039,20.039V316.117z"
	/>
<path d="M504.485,48.094H7.515C3.365,48.094,0,51.459,0,55.609v400.783c0,4.15,3.365,7.515,7.515,7.515h496.971
	c4.151,0,7.515-3.365,7.515-7.515V55.609C512,51.459,508.636,48.094,504.485,48.094z M15.029,448.877V143.28h367.217
	c4.151,0,7.515-3.365,7.515-7.515s-3.364-7.515-7.515-7.515H15.029V63.123h481.941v65.127h-79.656c-4.151,0-7.515,3.365-7.515,7.515
	s3.364,7.515,7.515,7.515h79.656v305.597H15.029z"/>
<path d="M464.407,119.233c12.983,0,23.546-10.563,23.546-23.546s-10.563-23.546-23.546-23.546s-23.546,10.563-23.546,23.546
	S451.424,119.233,464.407,119.233z M464.407,87.17c4.696,0,8.517,3.82,8.517,8.517s-3.82,8.517-8.517,8.517
	c-4.696,0-8.517-3.82-8.517-8.517S459.711,87.17,464.407,87.17z"/>
<path d="M423.828,95.687c0-12.983-10.563-23.546-23.546-23.546s-23.546,10.563-23.546,23.546s10.563,23.546,23.546,23.546
	S423.828,108.67,423.828,95.687z M391.765,95.687c0-4.696,3.82-8.517,8.517-8.517c4.696,0,8.517,3.82,8.517,8.517
	s-3.82,8.517-8.517,8.517C395.586,104.204,391.765,100.383,391.765,95.687z"/>
<path d="M336.157,72.141c-12.983,0-23.546,10.563-23.546,23.546s10.563,23.546,23.546,23.546s23.546-10.563,23.546-23.546
	S349.14,72.141,336.157,72.141z M336.157,104.204c-4.696,0-8.517-3.82-8.517-8.517s3.82-8.517,8.517-8.517
	c4.696,0,8.517,3.82,8.517,8.517S340.853,104.204,336.157,104.204z"/>
<path d="M47.593,88.172h-8.016c-4.15,0-7.515,3.365-7.515,7.515c0,4.15,3.365,7.515,7.515,7.515h8.016
	c4.15,0,7.515-3.365,7.515-7.515C55.108,91.537,51.743,88.172,47.593,88.172z"/>
<path d="M87.671,88.172H71.64c-4.15,0-7.515,3.365-7.515,7.515c0,4.15,3.365,7.515,7.515,7.515h16.031
	c4.15,0,7.515-3.365,7.515-7.515C95.186,91.537,91.821,88.172,87.671,88.172z"/>
<path d="M119.734,88.172h-8.016c-4.15,0-7.515,3.365-7.515,7.515c0,4.15,3.365,7.515,7.515,7.515h8.016
	c4.15,0,7.515-3.365,7.515-7.515C127.249,91.537,123.884,88.172,119.734,88.172z"/>
<path d="M171.836,304.595h-4.509v-76.65c0-8.423-5.368-15.872-13.359-18.536c-7.994-2.664-16.756,0.074-21.81,6.812l-72.141,96.188
	c-4.469,5.959-5.176,13.799-1.845,20.461c3.331,6.663,10.027,10.801,17.475,10.801h52.603v4.509
	c0,10.773,8.765,19.538,19.538,19.538s19.538-8.765,19.538-19.538v-4.509h4.509c10.773,0,19.538-8.765,19.538-19.538
	C191.374,313.36,182.609,304.595,171.836,304.595z M171.836,328.642h-12.023c-4.15,0-7.515,3.365-7.515,7.515v12.023
	c0,2.486-2.023,4.509-4.509,4.509s-4.509-2.023-4.509-4.509v-12.023c0-4.15-3.365-7.515-7.515-7.515H75.648
	c-3.638,0-5.798-4.292-3.607-7.214l72.141-96.188c2.545-3.393,8.116-1.516,8.116,2.705v84.164c0,4.15,3.365,7.515,7.515,7.515
	h12.023c2.486,0,4.509,2.023,4.509,4.509C176.344,326.619,174.321,328.642,171.836,328.642z"/>
<path d="M138.142,256.887c-3.067-1.021-6.448,0.033-8.388,2.62l-36.07,48.094c-3.647,4.863-0.053,12.023,6.012,12.023h36.07
	c4.15,0,7.515-3.365,7.515-7.515v-48.094C143.28,260.781,141.21,257.91,138.142,256.887z M128.25,304.595h-13.526l13.526-18.035
	V304.595z"/>
<path d="M436.352,304.595h-4.509v-76.65c0-8.422-5.368-15.872-13.36-18.536c-7.991-2.664-16.757,0.074-21.81,6.812l-72.141,96.188
	c-4.469,5.959-5.175,13.798-1.845,20.461c3.332,6.663,10.028,10.801,17.476,10.801h52.603v4.509
	c0,10.773,8.765,19.538,19.538,19.538c10.773,0,19.538-8.765,19.538-19.538v-4.509h4.509c10.773,0,19.538-8.765,19.538-19.538
	C455.89,313.36,447.125,304.595,436.352,304.595z M436.352,328.642h-12.023c-4.151,0-7.515,3.365-7.515,7.515v12.023
	c0,2.486-2.023,4.509-4.509,4.509c-2.486,0-4.509-2.023-4.509-4.509v-12.023c0-4.15-3.364-7.515-7.515-7.515h-60.117
	c-3.637,0-5.799-4.292-3.608-7.214l72.141-96.188c2.545-3.393,8.117-1.516,8.117,2.705v84.164c0,4.15,3.364,7.515,7.515,7.515
	h12.023c2.486,0,4.509,2.023,4.509,4.509C440.861,326.619,438.838,328.642,436.352,328.642z"/>
<path d="M402.658,256.887c-3.071-1.023-6.45,0.032-8.388,2.62l-36.07,48.094c-1.707,2.276-1.983,5.323-0.709,7.869
	c1.273,2.546,3.875,4.154,6.721,4.154h36.07c4.151,0,7.515-3.365,7.515-7.515v-48.094
	C407.796,260.781,405.727,257.91,402.658,256.887z M392.767,304.595h-13.526l13.526-18.035V304.595z"/>
<path d="M260.008,232.454h-8.016c-15.194,0-27.554,12.36-27.554,27.554v56.11c0,15.194,12.36,27.554,27.554,27.554h8.016
	c15.193,0,27.554-12.36,27.554-27.554v-56.11C287.562,244.814,275.201,232.454,260.008,232.454z M272.532,316.117
	c0,6.906-5.618,12.524-12.524,12.524h-8.016c-6.906,0-12.524-5.618-12.524-12.524v-56.11c0-6.906,5.618-12.524,12.524-12.524h8.016
	c6.906,0,12.524,5.618,12.524,12.524V316.117z"/>
<path d="M260.008,208.407h-8.016c-28.453,0-51.601,23.148-51.601,51.601v56.11c0,28.453,23.148,51.601,51.601,51.601h8.016
	c28.453,0,51.601-23.148,51.601-51.601v-56.11C311.609,231.555,288.46,208.407,260.008,208.407z M296.579,316.117
	c0,20.165-16.406,36.571-36.571,36.571h-8.016c-20.165,0-36.571-16.406-36.571-36.571v-56.11c0-20.165,16.406-36.571,36.571-36.571
	h8.016c20.165,0,36.571,16.406,36.571,36.571V316.117z"/>
<g>
</g>
<g>
</g>
<g>
</g>
<g>
</g>
<g>
</g>
<g>
</g>
<g>
</g>
<g>
</g>
<g>
</g>
<g>
</g>
<g>
</g>
<g>
</g>
<g>
</g>
<g>
</g>
<g>
</g>
</svg>
