<?xml version="1.0" encoding="iso-8859-1"?>
<!-- Generator: Adobe Illustrator 19.0.0, SVG Export Plug-In . SVG Version: 6.00 Build 0)  -->
<svg version="1.1" id="Capa_1" xmlns="http://www.w3.org/2000/svg" xmlns:xlink="http://www.w3.org/1999/xlink" x="0px" y="0px"
	 viewBox="0 0 504.123 504.123" style="enable-background:new 0 0 504.123 504.123;" xml:space="preserve">
<path style="fill:#E1E6E8;" d="M464.738,135.483H39.385c-17.329,0-31.508,14.178-31.508,31.508v265.452
	c0,17.329,14.178,31.508,31.508,31.508h425.354c17.329,0,31.508-14.178,31.508-31.508V166.991
	C496.246,149.662,482.068,135.483,464.738,135.483z"/>
<path style="fill:#183651;" d="M464.738,471.828H39.385C17.329,471.828,0,454.498,0,432.443V166.991
	c0-22.055,17.329-39.385,39.385-39.385h425.354c22.055,0,39.385,17.329,39.385,39.385v265.452
	C504.123,453.711,486.794,471.828,464.738,471.828z M39.385,143.36c-13.391,0-23.631,10.24-23.631,23.631v265.452
	c0,13.391,10.24,23.631,23.631,23.631h425.354c13.391,0,23.631-10.24,23.631-23.631V166.991c0-13.391-10.24-23.631-23.631-23.631
	H39.385z"/>
<path style="fill:#FFFFFF;" d="M44.111,432.443c-2.363,0-4.726-2.363-4.726-4.726v-256c0-2.363,2.363-4.726,4.726-4.726h415.902
	c2.363,0,4.726,2.363,4.726,4.726v256c0,2.363-2.363,4.726-4.726,4.726L44.111,432.443L44.111,432.443z"/>
<g>
	<rect x="67.742" y="388.332" style="fill:#183651;" width="15.754" height="15.754"/>
	<rect x="118.154" y="388.332" style="fill:#183651;" width="15.754" height="15.754"/>
	<rect x="218.978" y="388.332" style="fill:#183651;" width="15.754" height="15.754"/>
	<rect x="168.566" y="388.332" style="fill:#183651;" width="15.754" height="15.754"/>
	<rect x="269.391" y="388.332" style="fill:#183651;" width="15.754" height="15.754"/>
	<rect x="370.215" y="388.332" style="fill:#183651;" width="15.754" height="15.754"/>
	<rect x="319.803" y="388.332" style="fill:#183651;" width="15.754" height="15.754"/>
	<rect x="420.628" y="388.332" style="fill:#183651;" width="15.754" height="15.754"/>
</g>
<polygon style="fill:#FFFFFF;" points="165.415,176.443 165.415,74.043 111.065,74.043 111.065,176.443 44.111,320.591 
	232.369,320.591 "/>
<path style="fill:#183651;" d="M232.369,328.468H44.111c-2.363,0-5.514-1.575-6.302-3.938c-1.575-2.363-1.575-4.726-0.788-7.877
	l66.166-143.36V74.043c0-4.726,3.151-7.877,7.877-7.877h54.351c4.726,0,7.877,3.151,7.877,7.877v100.825l66.166,143.36
	c0.788,2.363,0.788,5.514-0.788,7.877C237.095,327.68,234.732,328.468,232.369,328.468z M56.714,312.714h163.84l-61.44-133.908
	c-0.788-0.788-0.788-2.363-0.788-3.151V81.132h-38.597v94.523c0,0.788,0,2.363-0.788,3.151L56.714,312.714z"/>
<polygon style="fill:#2AA0DA;" points="122.092,226.855 93.735,289.083 182.745,289.083 153.6,226.855 "/>
<rect x="102.4" y="40.172" style="fill:#FFFFFF;" width="70.892" height="33.083"/>
<path style="fill:#183651;" d="M173.292,81.92H102.4c-4.726,0-7.877-3.151-7.877-7.877V40.172c0-4.726,3.151-7.877,7.877-7.877
	h70.892c4.726,0,7.877,3.151,7.877,7.877v33.083C181.169,77.982,178.018,81.92,173.292,81.92z M110.277,66.166h55.138V48.049
	h-55.138V66.166z"/>
<polygon style="fill:#FFFFFF;" points="393.058,176.443 393.058,74.043 338.708,74.043 338.708,176.443 271.754,320.591 
	460.012,320.591 "/>
<path style="fill:#183651;" d="M460.012,328.468H271.754c-2.363,0-5.514-1.575-6.302-3.938c-1.575-2.363-1.575-4.726-0.788-7.877
	l66.166-143.36V74.043c0-4.726,3.151-7.877,7.877-7.877h54.351c4.726,0,7.877,3.151,7.877,7.877v100.825l66.166,143.36
	c0.788,2.363,0.788,5.514-0.788,7.877C464.738,327.68,462.375,328.468,460.012,328.468z M284.357,312.714h163.84l-61.44-133.908
	c-0.788-0.788-0.788-2.363-0.788-3.151V81.132h-38.597v94.523c0,0.788,0,2.363-0.788,3.151L284.357,312.714z"/>
<polygon style="fill:#FCBD5E;" points="349.735,226.855 320.591,289.083 410.388,289.083 381.243,226.855 "/>
<rect x="330.043" y="40.172" style="fill:#FFFFFF;" width="70.892" height="33.083"/>
<path style="fill:#183651;" d="M400.935,81.92h-70.892c-4.726,0-7.877-3.151-7.877-7.877V40.172c0-4.726,3.151-7.877,7.877-7.877
	h70.892c4.726,0,7.877,3.151,7.877,7.877v33.083C408.812,77.982,405.662,81.92,400.935,81.92z M337.92,66.166h55.138V48.049H337.92
	V66.166z"/>
<g>
</g>
<g>
</g>
<g>
</g>
<g>
</g>
<g>
</g>
<g>
</g>
<g>
</g>
<g>
</g>
<g>
</g>
<g>
</g>
<g>
</g>
<g>
</g>
<g>
</g>
<g>
</g>
<g>
</g>
</svg>
