<svg width="496" height="496" xmlns="http://www.w3.org/2000/svg">

 <g>
  <title>background</title>
  <rect fill="none" id="canvas_background" height="402" width="582" y="-1" x="-1"/>
 </g>
 <g>
  <title>Layer 1</title>
  <g id="svg_1">
   <path id="svg_2" fill="#6b7b9e" d="m472,112l-96,0c-13.232,0 -24,-10.768 -24,-24l0,-64c0,-13.232 10.768,-24 24,-24l96,0c13.232,0 24,10.768 24,24l0,64c0,13.232 -10.768,24 -24,24z"/>
   <path id="svg_3" fill="#6b7b9e" d="m120,112l-96,0c-13.232,0 -24,-10.768 -24,-24l0,-64c0,-13.232 10.768,-24 24,-24l96,0c13.232,0 24,10.768 24,24l0,64c0,13.232 -10.768,24 -24,24z"/>
   <path id="svg_4" fill="#6b7b9e" d="m120,496l-96,0c-13.232,0 -24,-10.768 -24,-24l0,-64c0,-13.232 10.768,-24 24,-24l96,0c13.232,0 24,10.768 24,24l0,64c0,13.232 -10.768,24 -24,24z"/>
  </g>
  <path id="svg_5" d="m400,336c0,-10.416 -6.712,-19.216 -16,-22.528l0,-26.952c9.288,-3.312 16,-12.112 16,-22.528c0,-13.232 -10.768,-24 -24,-24c-4.912,0 -9.48,1.496 -13.28,4.032l-27.912,-20.936c0.704,-2.248 1.192,-4.6 1.192,-7.088c0,-10.416 -6.712,-19.216 -16,-22.528l0,-26.952c9.288,-3.312 16,-12.112 16,-22.528c0,-13.232 -10.768,-24 -24,-24c-4.912,0 -9.48,1.496 -13.28,4.032l-27.912,-20.936c0.704,-2.248 1.192,-4.6 1.192,-7.088c0,-13.232 -10.768,-24 -24,-24s-24,10.768 -24,24c0,2.488 0.488,4.84 1.192,7.104l-27.912,20.936c-3.8,-2.544 -8.368,-4.04 -13.28,-4.04c-13.232,0 -24,10.768 -24,24c0,10.416 6.712,19.216 16,22.528l0,26.952c-9.288,3.312 -16,12.112 -16,22.528c0,2.488 0.488,4.84 1.192,7.104l-27.912,20.936c-3.8,-2.552 -8.368,-4.048 -13.28,-4.048c-13.232,0 -24,10.768 -24,24c0,10.416 6.712,19.216 16,22.528l0,26.952c-9.288,3.312 -16,12.112 -16,22.528c0,13.232 10.768,24 24,24c4.912,0 9.48,-1.496 13.288,-4.04l26.712,20.032c0,13.232 10.768,24 24,24s24,-10.768 24,-24l26.72,-20.04c3.8,2.544 8.368,4.04 13.28,4.04c4.912,0 9.48,-1.496 13.28,-4.032l26.72,20.032c0,13.232 10.768,24 24,24s24,-10.768 24,-24l26.712,-20.04c3.808,2.544 8.376,4.04 13.288,4.04c13.232,0 24,-10.768 24,-24zm-48,0c0,2.488 0.488,4.84 1.192,7.104l-23.088,17.32c-4.4,-5.112 -10.84,-8.424 -18.104,-8.424s-13.704,3.312 -18.104,8.424l-23.088,-17.32c0.704,-2.256 1.192,-4.616 1.192,-7.104c0,-10.416 -6.712,-19.216 -16,-22.528l0,-26.952c9.288,-3.312 16,-12.112 16,-22.528c0,-2.488 -0.488,-4.848 -1.192,-7.104l27.904,-20.936c3.808,2.552 8.376,4.048 13.288,4.048s9.48,-1.496 13.288,-4.04l27.912,20.928c-0.712,2.264 -1.2,4.624 -1.2,7.112c0,10.416 6.712,19.216 16,22.528l0,26.952c-9.288,3.304 -16,12.104 -16,22.52zm-128,0c0,2.488 0.488,4.848 1.2,7.104l-23.088,17.32c-4.408,-5.112 -10.848,-8.424 -18.112,-8.424s-13.704,3.312 -18.104,8.424l-23.088,-17.32c0.704,-2.256 1.192,-4.616 1.192,-7.104c0,-10.416 -6.712,-19.216 -16,-22.528l0,-26.952c9.288,-3.312 16,-12.112 16,-22.528c0,-2.488 -0.488,-4.848 -1.2,-7.104l27.912,-20.928c3.808,2.544 8.376,4.04 13.288,4.04s9.48,-1.496 13.288,-4.04l27.904,20.936c-0.704,2.264 -1.192,4.616 -1.192,7.104c0,10.416 6.712,19.216 16,22.528l0,26.952c-9.288,3.304 -16,12.104 -16,22.52zm-16,-192c0,-2.488 -0.488,-4.848 -1.2,-7.104l27.912,-20.928c3.808,2.536 8.376,4.032 13.288,4.032c4.912,0 9.48,-1.496 13.288,-4.04l27.912,20.928c-0.712,2.264 -1.2,4.624 -1.2,7.112c0,10.416 6.712,19.216 16,22.528l0,26.952c-9.288,3.312 -16,12.112 -16,22.528c0,2.488 0.488,4.84 1.192,7.104l-27.912,20.936c-3.8,-2.552 -8.368,-4.048 -13.28,-4.048s-9.48,1.496 -13.288,4.04l-27.912,-20.936c0.712,-2.264 1.2,-4.616 1.2,-7.104c0,-10.416 -6.712,-19.216 -16,-22.528l0,-26.952c9.288,-3.304 16,-12.104 16,-22.52zm104,80c-4.408,0 -8,-3.584 -8,-8s3.592,-8 8,-8s8,3.584 8,8s-3.592,8 -8,8zm-64,48c-4.408,0 -8,-3.584 -8,-8s3.592,-8 8,-8c4.408,0 8,3.584 8,8s-3.592,8 -8,8zm128,-16c4.408,0 8,3.584 8,8s-3.592,8 -8,8s-8,-3.584 -8,-8s3.592,-8 8,-8zm-64,-120c4.408,0 8,3.584 8,8s-3.592,8 -8,8s-8,-3.584 -8,-8s3.592,-8 8,-8zm-64,-48c4.408,0 8,3.584 8,8s-3.592,8 -8,8s-8,-3.584 -8,-8s3.592,-8 8,-8zm-64,48c4.408,0 8,3.584 8,8s-3.592,8 -8,8s-8,-3.584 -8,-8s3.592,-8 8,-8zm0,72c4.408,0 8,3.584 8,8s-3.592,8 -8,8s-8,-3.584 -8,-8s3.592,-8 8,-8zm-64,48c4.408,0 8,3.584 8,8s-3.592,8 -8,8s-8,-3.584 -8,-8s3.592,-8 8,-8zm0,88c-4.408,0 -8,-3.584 -8,-8s3.592,-8 8,-8c4.408,0 8,3.584 8,8s-3.592,8 -8,8zm64,40c-4.408,0 -8,-3.584 -8,-8s3.592,-8 8,-8s8,3.584 8,8s-3.592,8 -8,8zm64,-40c-4.408,0 -8,-3.584 -8,-8s3.592,-8 8,-8c4.408,0 8,3.584 8,8s-3.592,8 -8,8zm64,40c-4.408,0 -8,-3.584 -8,-8s3.592,-8 8,-8s8,3.584 8,8s-3.592,8 -8,8zm64,-40c-4.408,0 -8,-3.584 -8,-8s3.592,-8 8,-8s8,3.584 8,8s-3.592,8 -8,8z"/>
  <rect id="svg_6" height="16" width="112" y="32" x="368"/>
  <rect id="svg_7" height="16" width="80" y="64" x="368"/>
  <rect id="svg_8" height="16" width="112" y="32" x="16"/>
  <rect id="svg_9" height="16" width="80" y="64" x="16"/>
  <rect id="svg_10" height="16" width="112" y="416" x="16"/>
  <rect id="svg_11" height="16" width="80" y="448" x="16"/>
  <polygon id="svg_12" points="244.688,432 144,432 144,448 251.312,448 285.656,413.656 274.344,402.344 "/>
  <polygon id="svg_13" points="194.344,93.656 205.656,82.344 171.312,48 144,48 144,64 164.688,64 "/>
  <polygon id="svg_14" points="432,155.312 432,112 416,112 416,148.688 366.344,198.344 377.656,209.656 "/>
  <rect id="svg_15" height="16" width="16" y="376" x="416"/>
  <rect id="svg_16" height="16" width="16" y="424" x="416"/>
  <rect id="svg_17" height="16" width="16" y="400" x="440"/>
  <rect id="svg_18" height="16" width="16" y="400" x="392"/>
  <rect id="svg_19" height="16" width="16" y="136" x="96"/>
  <rect id="svg_20" height="16" width="16" y="184" x="96"/>
  <rect id="svg_21" height="16" width="16" y="160" x="120"/>
  <rect id="svg_22" height="16" width="16" y="160" x="72"/>
  <rect id="svg_23" height="16" width="16" y="216" x="464"/>
  <rect id="svg_24" height="16" width="16" y="296" x="432"/>
  <rect id="svg_25" height="16" width="16" y="384" x="352"/>
  <rect id="svg_26" height="16" width="16" y="64" x="464"/>
  <rect id="svg_27" height="16" width="16" y="64" x="112"/>
  <rect id="svg_28" height="16" width="16" y="248" x="64"/>
  <rect id="svg_29" height="16" width="16" y="448" x="112"/>
  <g id="svg_30"/>
  <g id="svg_31"/>
  <g id="svg_32"/>
  <g id="svg_33"/>
  <g id="svg_34"/>
  <g id="svg_35"/>
  <g id="svg_36"/>
  <g id="svg_37"/>
  <g id="svg_38"/>
  <g id="svg_39"/>
  <g id="svg_40"/>
  <g id="svg_41"/>
  <g id="svg_42"/>
  <g id="svg_43"/>
  <g id="svg_44"/>
 </g>
</svg>