<?xml version="1.0" encoding="iso-8859-1"?>
<!-- Generator: Adobe Illustrator 19.0.0, SVG Export Plug-In . SVG Version: 6.00 Build 0)  -->
<svg version="1.1" id="Capa_1" xmlns="http://www.w3.org/2000/svg" xmlns:xlink="http://www.w3.org/1999/xlink" x="0px" y="0px"
	 viewBox="0 0 504.123 504.123" style="enable-background:new 0 0 504.123 504.123;" xml:space="preserve">
<circle style="fill:#E1E6E8;" cx="252.062" cy="252.062" r="252.062"/>
<polygon style="fill:#FFFFFF;" points="191.409,440.32 330.043,440.32 330.043,7.877 143.36,7.877 191.409,56.714 "/>
<path style="fill:#183651;" d="M330.043,448.197H191.409c-4.726,0-7.877-3.151-7.877-7.877V59.865l-45.686-46.474
	c-2.363-2.363-3.151-5.514-1.575-8.665C137.846,1.575,140.209,0,143.36,0h186.683c4.726,0,7.877,3.151,7.877,7.877V440.32
	C337.92,445.046,334.769,448.197,330.043,448.197z M199.286,432.443h123.668V15.754H162.265L196.923,51.2
	c1.575,1.575,2.363,3.151,2.363,5.514V432.443z"/>
<polyline style="fill:#2AA0DA;" points="191.409,194.56 191.409,440.32 330.043,440.32 330.043,194.56 "/>
<path style="fill:#183651;" d="M330.043,448.197H191.409c-4.726,0-7.877-3.151-7.877-7.877V194.56c0-4.726,3.151-7.877,7.877-7.877
	s7.877,3.151,7.877,7.877v237.883h123.668V194.56c0-4.726,3.151-7.877,7.877-7.877c4.726,0,7.877,3.151,7.877,7.877v245.76
	C337.92,445.046,334.769,448.197,330.043,448.197z"/>
<polygon style="fill:#FFFFFF;" points="191.409,440.32 131.545,496.246 389.12,496.246 330.043,440.32 "/>
<g>
	<path style="fill:#183651;" d="M389.12,504.123H131.545c-3.151,0-6.302-2.363-7.089-4.726c-1.575-3.151-0.788-6.302,1.575-8.665
		l59.077-55.926c1.575-1.575,3.151-2.363,5.514-2.363h139.422c2.363,0,3.938,0.788,5.514,2.363l59.077,55.926
		c2.363,2.363,3.151,5.514,1.575,8.665C395.422,502.548,392.271,504.123,389.12,504.123z M152.025,488.369h218.191l-43.323-40.172
		H194.56L152.025,488.369z"/>
	<path style="fill:#183651;" d="M330.043,66.166h-26.782c-4.726,0-7.877-3.151-7.877-7.877c0-4.726,3.151-7.877,7.877-7.877h26.782
		c4.726,0,7.877,3.151,7.877,7.877C337.92,63.015,334.769,66.166,330.043,66.166z"/>
	<path style="fill:#183651;" d="M330.043,121.305h-26.782c-4.726,0-7.877-3.151-7.877-7.877s3.151-7.877,7.877-7.877h26.782
		c4.726,0,7.877,3.151,7.877,7.877S334.769,121.305,330.043,121.305z"/>
	<path style="fill:#183651;" d="M330.043,176.443h-26.782c-4.726,0-7.877-3.151-7.877-7.877c0-4.726,3.151-7.877,7.877-7.877h26.782
		c4.726,0,7.877,3.151,7.877,7.877C337.92,173.292,334.769,176.443,330.043,176.443z"/>
	<path style="fill:#183651;" d="M330.043,232.369h-26.782c-4.726,0-7.877-3.151-7.877-7.877c0-4.726,3.151-7.877,7.877-7.877h26.782
		c4.726,0,7.877,3.151,7.877,7.877C337.92,228.431,334.769,232.369,330.043,232.369z"/>
	<path style="fill:#183651;" d="M330.043,287.508h-26.782c-4.726,0-7.877-3.151-7.877-7.877s3.151-7.877,7.877-7.877h26.782
		c4.726,0,7.877,3.151,7.877,7.877C337.92,283.569,334.769,287.508,330.043,287.508z"/>
	<path style="fill:#183651;" d="M330.043,342.646h-26.782c-4.726,0-7.877-3.151-7.877-7.877s3.151-7.877,7.877-7.877h26.782
		c4.726,0,7.877,3.151,7.877,7.877C337.92,338.708,334.769,342.646,330.043,342.646z"/>
	<path style="fill:#183651;" d="M330.043,397.785h-26.782c-4.726,0-7.877-3.151-7.877-7.877s3.151-7.877,7.877-7.877h26.782
		c4.726,0,7.877,3.151,7.877,7.877S334.769,397.785,330.043,397.785z"/>
</g>
<circle style="fill:#FFFFFF;" cx="253.637" cy="388.332" r="18.905"/>
<path style="fill:#183651;" d="M253.637,415.114c-14.966,0-26.782-11.815-26.782-26.782s11.815-26.782,26.782-26.782
	s26.782,11.815,26.782,26.782C280.418,403.298,268.603,415.114,253.637,415.114z M253.637,376.517
	c-6.302,0-11.028,4.726-11.028,11.028s4.726,11.028,11.028,11.028c6.302,0,11.028-4.726,11.028-11.028
	C264.665,382.031,259.938,376.517,253.637,376.517z"/>
<circle style="fill:#FFFFFF;" cx="235.52" cy="252.062" r="18.905"/>
<path style="fill:#183651;" d="M235.52,279.631c-14.966,0-26.782-11.815-26.782-26.782c0-14.966,11.815-26.782,26.782-26.782
	c14.966,0,26.782,11.815,26.782,26.782C262.302,267.028,250.486,279.631,235.52,279.631z M235.52,241.034
	c-6.302,0-11.028,4.726-11.028,11.028s4.726,11.028,11.028,11.028c6.302,0,11.028-4.726,11.028-11.028
	C246.548,245.76,241.822,241.034,235.52,241.034z"/>
<g>
	<circle style="fill:#2AA0DA;" cx="237.095" cy="138.634" r="17.329"/>
	<circle style="fill:#2AA0DA;" cx="264.665" cy="61.44" r="17.329"/>
</g>
<g>
	<rect x="411.175" y="176.443" style="fill:#183651;" width="15.754" height="15.754"/>
	<rect x="411.175" y="244.185" style="fill:#183651;" width="15.754" height="15.754"/>
	<rect x="411.175" y="311.926" style="fill:#183651;" width="15.754" height="15.754"/>
	<rect x="77.194" y="176.443" style="fill:#183651;" width="15.754" height="15.754"/>
	<rect x="77.194" y="244.185" style="fill:#183651;" width="15.754" height="15.754"/>
	<rect x="77.194" y="311.926" style="fill:#183651;" width="15.754" height="15.754"/>
</g>
<g>
</g>
<g>
</g>
<g>
</g>
<g>
</g>
<g>
</g>
<g>
</g>
<g>
</g>
<g>
</g>
<g>
</g>
<g>
</g>
<g>
</g>
<g>
</g>
<g>
</g>
<g>
</g>
<g>
</g>
</svg>
