<?xml version="1.0" encoding="iso-8859-1"?>
<!-- Generator: Adobe Illustrator 19.0.0, SVG Export Plug-In . SVG Version: 6.00 Build 0)  -->
<svg version="1.1" id="Capa_1" xmlns="http://www.w3.org/2000/svg" xmlns:xlink="http://www.w3.org/1999/xlink" x="0px" y="0px"
	 viewBox="0 0 504.123 504.123" style="enable-background:new 0 0 504.123 504.123;" xml:space="preserve">
<circle style="fill:#E1E6E8;" cx="165.415" cy="294.597" r="165.415"/>
<path style="fill:#FFFFFF;" d="M472.615,237.095H189.046c-13.391,0-23.631,10.24-23.631,23.631v211.889
	c0,13.391,10.24,23.631,23.631,23.631h283.569c13.391,0,23.631-10.24,23.631-23.631V260.726
	C496.246,247.335,486.006,237.095,472.615,237.095z"/>
<path style="fill:#183651;" d="M472.615,504.123H189.046c-17.329,0-31.508-14.178-31.508-31.508V260.726
	c0-17.329,14.178-31.508,31.508-31.508h283.569c17.329,0,31.508,14.178,31.508,31.508v211.889
	C504.123,489.945,489.945,504.123,472.615,504.123z M189.046,244.972c-8.665,0-15.754,7.089-15.754,15.754v211.889
	c0,8.665,7.089,15.754,15.754,15.754h283.569c8.665,0,15.754-7.089,15.754-15.754V260.726c0-8.665-7.089-15.754-15.754-15.754
	L189.046,244.972L189.046,244.972z"/>
<path style="fill:#FCBD5E;" d="M196.923,425.354V307.988c22.055,0,39.385-17.329,39.385-39.385h189.046
	c0,22.055,17.329,39.385,39.385,39.385v117.366c-22.055,0-39.385,17.329-39.385,39.385H236.308
	C236.308,442.683,218.978,425.354,196.923,425.354z"/>
<g>
	<path style="fill:#183651;" d="M386.757,244.972H274.905c-4.726,0-7.877-3.151-7.877-7.877v-45.686
		c0-4.726,3.151-7.877,7.877-7.877h111.852c4.726,0,7.877,3.151,7.877,7.877v45.686
		C394.634,241.822,390.695,244.972,386.757,244.972z M282.782,229.218h96.098v-29.932h-96.098V229.218z"/>
	<rect x="278.055" y="411.175" style="fill:#183651;" width="15.754" height="15.754"/>
	<rect x="322.954" y="411.175" style="fill:#183651;" width="15.754" height="15.754"/>
	<rect x="367.852" y="411.175" style="fill:#183651;" width="15.754" height="15.754"/>
</g>
<path style="fill:#FFFFFF;" d="M201.649,180.382V35.446h11.815V7.877h-96.098v27.569h11.815v144.935
	c-49.625,15.754-85.858,61.44-85.858,116.578c0,67.742,54.351,122.092,122.092,122.092s122.092-54.351,122.092-122.092
	C287.508,241.822,251.274,196.135,201.649,180.382z"/>
<path style="fill:#183651;" d="M165.415,426.929c-71.68,0-129.969-58.289-129.969-129.969c0-55.138,34.658-103.975,85.858-122.092
	V43.323h-3.938c-4.726,0-7.877-3.151-7.877-7.877V7.877c0-4.726,3.151-7.877,7.877-7.877h96.098c4.726,0,7.877,3.151,7.877,7.877
	v27.569c0,4.726-3.151,7.877-7.877,7.877h-3.938v131.545c51.2,18.117,85.858,66.954,85.858,122.092
	C295.385,368.64,237.095,426.929,165.415,426.929z M125.243,27.569h3.938c4.726,0,7.877,3.151,7.877,7.877v144.935
	c0,3.151-2.363,6.302-5.514,7.877C83.495,202.437,51.2,246.548,51.2,296.96c0,63.015,51.2,114.215,114.215,114.215
	s114.215-51.2,114.215-114.215c0-50.412-32.295-94.523-80.345-109.489c-3.151-0.788-5.514-3.938-5.514-7.877V35.446
	c0-4.726,3.151-7.877,7.877-7.877h3.938V15.754h-80.345V27.569z"/>
<g>
	<path style="fill:#F05F50;" d="M90.585,248.123c-9.452,14.178-14.966,31.508-14.966,49.625c0,49.625,40.172,89.797,89.797,89.797
		s89.797-40.172,89.797-89.797c0-18.117-5.514-35.446-14.966-49.625c0,0-37.022-15.754-74.831,0
		C130.757,263.089,90.585,248.123,90.585,248.123z"/>
	<circle style="fill:#F05F50;" cx="173.292" cy="144.148" r="10.24"/>
	<circle style="fill:#F05F50;" cx="157.538" cy="97.674" r="10.24"/>
	<circle style="fill:#F05F50;" cx="173.292" cy="50.412" r="10.24"/>
</g>
<g>
	<path style="fill:#183651;" d="M454.498,237.095h-15.754v-15.754h15.754V237.095z M454.498,205.588h-15.754v-15.754h15.754V205.588
		z M454.498,174.08h-15.754v-15.754h15.754V174.08z M454.498,142.572h-15.754v-15.754h15.754V142.572z M437.169,113.428
		c-0.788-3.938-3.151-7.877-5.514-11.815l13.391-8.665c3.151,4.726,6.302,11.028,7.877,16.542L437.169,113.428z M422.991,92.16
		c-3.151-2.363-7.089-4.726-11.815-6.302l4.726-14.966c5.514,1.575,11.028,4.726,16.542,8.665L422.991,92.16z M398.572,84.283
		h-15.754V68.529h15.754V84.283z M367.065,84.283h-15.754V68.529h15.754V84.283z M335.557,84.283h-15.754V68.529h15.754V84.283z
		 M304.049,84.283h-15.754V68.529h15.754V84.283z M272.542,84.283h-15.754V68.529h15.754V84.283z M241.034,84.283H225.28V68.529
		h15.754V84.283z M209.526,84.283h-7.877V68.529h7.877V84.283z"/>
	<path style="fill:#183651;" d="M141.785,480.492h-15.754v-15.754h15.754V480.492z M110.277,480.492H94.523v-15.754h15.754V480.492z
		 M78.769,480.492H63.015v-15.754h15.754V480.492z M47.262,480.492h-3.938c-4.726,0-9.452-0.788-14.178-2.363l4.726-14.966
		c3.151,0.788,5.514,1.575,8.665,1.575h3.938v15.754H47.262z M12.603,467.889c-4.726-4.726-7.877-10.24-10.24-15.754l14.966-5.514
		c1.575,3.938,3.938,7.089,6.302,10.24L12.603,467.889z M15.754,434.018H0v-15.754h15.754V434.018z M15.754,402.511H0v-15.754
		h15.754V402.511z M15.754,371.003H0v-15.754h15.754V371.003z M15.754,339.495H0v-15.754h15.754V339.495z M15.754,307.988H0v-15.754
		h15.754V307.988z M15.754,276.48H0v-15.754h15.754V276.48z M15.754,244.972H0v-15.754h15.754V244.972z M15.754,213.465H0v-15.754
		h15.754V213.465z M15.754,181.957H0v-15.754h15.754V181.957z M15.754,150.449H0v-15.754h15.754V150.449z M16.542,120.517
		l-14.966-3.938c1.575-6.302,4.726-11.815,8.665-17.329l11.815,10.24C19.692,112.64,17.329,116.578,16.542,120.517z M31.508,102.4
		l-6.302-14.178c5.514-2.363,11.815-3.938,18.117-3.938v15.754C39.385,100.037,35.446,100.825,31.508,102.4z M103.188,100.037
		H90.585V84.283h12.603V100.037z M74.831,100.037H59.077V84.283h15.754V100.037z"/>
</g>
<g>
</g>
<g>
</g>
<g>
</g>
<g>
</g>
<g>
</g>
<g>
</g>
<g>
</g>
<g>
</g>
<g>
</g>
<g>
</g>
<g>
</g>
<g>
</g>
<g>
</g>
<g>
</g>
<g>
</g>
</svg>
