<svg width="496" height="496" xmlns="http://www.w3.org/2000/svg">

 <g>
  <title>background</title>
  <rect fill="none" id="canvas_background" height="402" width="582" y="-1" x="-1"/>
 </g>
 <g>
  <title>Layer 1</title>
  <path id="svg_1" fill="#6b7b9e" d="m280,315.4l0,-19.4l-48,0l0,19.4c-18.696,5.296 -34.848,16.608 -46.256,31.704l0,0l-10.256,-13.984c-10.064,-13.72 -15.488,-30.296 -15.488,-47.312l0,-37.808l-64,0l0,37.808c0,17.016 -5.424,33.584 -15.488,47.312l-63.592,86.72c-4.128,5.624 -7.232,12.048 -8.352,18.936c-4.264,26.408 16.016,49.224 41.624,49.224l154.264,0c7.576,0 14.944,-1.944 21.44,-5.4c9.4,3.432 19.512,5.4 30.104,5.4c48.6,0 88,-39.4 88,-88c0,-40.272 -27.08,-74.144 -64,-84.6z"/>
  <rect id="svg_2" height="16.001" width="87.548" transform="matrix(-0.5898,0.8076,-0.8076,-0.5898,434.8443,585.9752) " y="395.432" x="24.818"/>
  <rect id="svg_3" height="16.001" width="15.193" transform="matrix(-0.5898,0.8076,-0.8076,-0.5898,453.6633,469.746) " y="342.098" x="99.926"/>
  <path id="svg_4" d="m496,0l-272,0l0,217.472c-9.288,3.312 -16,12.112 -16,22.528c0,10.416 6.712,19.216 16,22.528l0,47.032c-14.296,5.08 -27.288,13.64 -37.76,24.696l-4.304,-5.872c-9.112,-12.432 -13.936,-27.152 -13.936,-42.568l0,-71.288c9.288,-3.312 16,-12.112 16,-22.528c0,-13.232 -10.768,-24 -24,-24l-64,0c-13.232,0 -24,10.768 -24,24c0,10.416 6.712,19.216 16,22.528l0,71.288c0,15.424 -4.824,30.144 -13.936,42.568l-63.6,86.728c-5.256,7.176 -8.552,14.72 -9.792,22.4c-2.376,14.728 1.736,29.6 11.288,40.832c9.56,11.216 23.496,17.656 38.224,17.656l154.264,0c7.832,0 15.352,-1.72 22.136,-4.792c9.632,3.128 19.504,4.792 29.416,4.792c47.472,0 86.904,-34.672 94.552,-80l145.448,0l0,-416zm-264,232l48,0c4.416,0 8,3.592 8,8s-3.584,8 -8,8l-48,0c-4.416,0 -8,-3.592 -8,-8s3.584,-8 8,-8zm-136,-48l64,0c4.416,0 8,3.592 8,8s-3.584,8 -8,8l-64,0c-4.416,0 -8,-3.592 -8,-8s3.584,-8 8,-8zm-45.816,296c-10.04,0 -19.528,-4.392 -26.048,-12.04c-6.6,-7.76 -9.328,-17.664 -7.672,-27.904c0.832,-5.168 3.152,-10.376 6.896,-15.488l63.6,-86.72c11.152,-15.192 17.04,-33.184 17.04,-52.032l0,-69.816l48,0l0,69.816c0,18.848 5.888,36.84 17.032,52.04l64.352,87.736c7.448,10.168 8.68,23.64 3.216,35.168c-5.52,11.688 -18.144,19.24 -32.144,19.24l-154.272,0zm205.816,0c-4.184,0 -8.368,-0.384 -12.52,-1.064c3.032,-3.384 5.624,-7.168 7.592,-11.336c7.968,-16.84 6.144,-36.568 -4.784,-51.48l-50.416,-68.744c10.168,-11.56 23.568,-20.104 38.312,-24.288l5.816,-1.64l0,-57.448l32,0l0,57.448l5.824,1.648c34.256,9.712 58.176,41.328 58.176,76.904c0,44.112 -35.888,80 -80,80zm32,-170.448l0,-47.032c9.288,-3.312 16,-12.112 16,-22.528c0,-13.232 -10.768,-24 -24,-24l-8,0l0,-167.992l176,0l0,352l-96,0c0,-40.648 -26.032,-77.008 -64,-90.448zm192,90.448l-16,0l0,-368l-208,0l0,184l-16,0l0,-200l240,0l0,384z"/>
  <path id="svg_5" d="m288,64l0,48l144,0l0,-48l-144,0zm128,32l-112,0l0,-16l112,0l0,16z"/>
  <path id="svg_6" d="m24,112c13.232,0 24,-10.768 24,-24s-10.768,-24 -24,-24s-24,10.768 -24,24s10.768,24 24,24zm0,-32c4.416,0 8,3.592 8,8s-3.584,8 -8,8s-8,-3.592 -8,-8s3.584,-8 8,-8z"/>
  <path id="svg_7" d="m120,128c0,13.232 10.768,24 24,24s24,-10.768 24,-24s-10.768,-24 -24,-24s-24,10.768 -24,24zm32,0c0,4.408 -3.584,8 -8,8s-8,-3.592 -8,-8s3.584,-8 8,-8s8,3.592 8,8z"/>
  <path id="svg_8" d="m128,48c13.232,0 24,-10.768 24,-24s-10.768,-24 -24,-24s-24,10.768 -24,24s10.768,24 24,24zm0,-32c4.416,0 8,3.592 8,8s-3.584,8 -8,8s-8,-3.592 -8,-8s3.584,-8 8,-8z"/>
  <rect id="svg_9" height="48" width="16" y="208" x="416"/>
  <path id="svg_10" d="m290.552,346.128l-8.64,13.472c13.832,8.872 22.088,23.976 22.088,40.4c0,12.632 -4.864,24.56 -13.712,33.584l11.424,11.2c11.792,-12.032 18.288,-27.944 18.288,-44.784c0,-21.888 -11.008,-42.032 -29.448,-53.872z"/>
  <path id="svg_11" d="m256,352c4.864,0 9.672,0.728 14.288,2.16l4.736,-15.28c-6.152,-1.912 -12.544,-2.88 -19.024,-2.88l0,16z"/>
  <g id="svg_12"/>
  <g id="svg_13"/>
  <g id="svg_14"/>
  <g id="svg_15"/>
  <g id="svg_16"/>
  <g id="svg_17"/>
  <g id="svg_18"/>
  <g id="svg_19"/>
  <g id="svg_20"/>
  <g id="svg_21"/>
  <g id="svg_22"/>
  <g id="svg_23"/>
  <g id="svg_24"/>
  <g id="svg_25"/>
  <g id="svg_26"/>
 </g>
</svg>