<svg viewBox="5 10 53 50" xmlns="http://www.w3.org/2000/svg">
<path fill="none" stroke="#002e4f" stroke-width="2" stroke-miterlimit="10" d="M56.864,45.718c0,3.785-3.068,6.853-6.853,6.853H12.946
	c-3.785,0-6.853-3.068-6.853-6.853V17.632c0-3.785,3.068-6.853,6.853-6.853h37.065c3.785,0,6.853,3.068,6.853,6.853V45.718z"/>
<circle fill="None" stroke="#002e4f" stroke-miterlimit="10" cx="42.903" cy="18.3" r="2.414"/>
<circle fill="None" stroke="#002e4f" stroke-miterlimit="10" cx="49.72" cy="18.3" r="2.414"/>
<rect x="18.584" y="30.109" fill="#002e4f" width="33.55" height="3.131"/>
<rect x="18.584" y="35.816" fill="#002e4f" width="16.775" height="3.131"/>
<rect x="18.584" y="24.189" fill="#002e4f" width="33.55" height="3.131"/>
<g>
	<rect x="10.264" y="18.3" fill="none" width="11.686" height="12.491"/>
	<path fill="#002e4f" d="M15.478,25.467c0,0.014,0,0.031,0,0.05c0,0.019,0,0.031,0,0.035c0,0.005,0,0.017,0,0.036
		c0,0.023,0,0.04,0,0.049c0,0.005-0.002,0.014-0.007,0.028c0,0.024-0.002,0.04-0.007,0.05l-0.007,0.028
		c-0.005,0.028-0.007,0.045-0.007,0.049c-0.004,0-0.009,0.012-0.014,0.036c-0.004,0.019-0.009,0.033-0.014,0.042
		c-0.004,0.009-0.012,0.021-0.021,0.035c-0.01,0.019-0.014,0.031-0.014,0.036c-0.005,0.014-0.014,0.031-0.028,0.049
		c-0.019,0.024-0.024,0.029-0.014,0.014v0.007c-0.019,0.028-0.038,0.054-0.057,0.078l-0.014,0.014
		c-0.019,0.019-0.036,0.038-0.05,0.057c-0.009,0.004-0.019,0.012-0.028,0.021c-0.014,0.014-0.031,0.026-0.049,0.036
		c-0.014,0.014-0.024,0.021-0.028,0.021l-0.014,0.014l-2.947,1.919c-0.137,0.09-0.288,0.135-0.453,0.135
		c-0.302,0-0.536-0.125-0.701-0.375c-0.123-0.193-0.161-0.404-0.113-0.63c0.047-0.222,0.167-0.396,0.361-0.524l1.877-1.226
		l-1.877-1.225c-0.193-0.123-0.314-0.298-0.361-0.524c-0.047-0.227-0.01-0.437,0.113-0.63c0.127-0.189,0.304-0.307,0.531-0.354
		c0.222-0.047,0.429-0.01,0.623,0.113l2.947,1.926h0.007c0.014,0.01,0.031,0.021,0.05,0.036l0.007,0.007l0.007,0.007
		c0.009,0.005,0.023,0.017,0.042,0.036c0.019,0.019,0.026,0.026,0.021,0.021c-0.004-0.009,0.002-0.002,0.021,0.021
		c0.019,0.019,0.031,0.033,0.035,0.042l0.007,0.007l0.007,0.007c0.014,0.019,0.026,0.035,0.036,0.049
		c0.004,0.005,0.004,0.007,0,0.007c-0.01-0.014-0.005-0.01,0.014,0.014c0.014,0.023,0.023,0.04,0.028,0.049
		c0,0.005,0.004,0.017,0.014,0.036c0.009,0.019,0.017,0.033,0.021,0.042c0.005,0.005,0.01,0.019,0.014,0.042l0.014,0.028
		c0,0.009,0.002,0.026,0.007,0.049l0.007,0.028c0.004,0.01,0.007,0.026,0.007,0.05c0.005,0.014,0.007,0.021,0.007,0.021
		S15.478,25.463,15.478,25.467z"/>
</g>
</svg>
