<svg xmlns="http://www.w3.org/2000/svg" viewBox="40 128 62 44">
    <defs>
        <linearGradient gradientTransform="rotate(25)"
                        id="30190931-855e-4ddd-b807-9cb2a01de645" x1="0%" y1="0%" x2="100%" y2="0%">
            <stop offset="0%"
                  style="stop-color: #301802; stop-opacity: 1;"></stop>
            <stop offset="100%"
                  style="stop-color: #846000; stop-opacity: 1;"></stop>
        </linearGradient>
    </defs>
    <g stroke="none" fill="url(#30190931-855e-4ddd-b807-9cb2a01de645)"
       transform="matrix(2.567732334136963,0,0,2.567732334136963,40.00245654199215,119.18669142243904)">
        <path d="M23.757 12.571l-6.843-4.106.854-.543a.5.5 0 0 0 0-.844l-5.5-3.5a.501.501 0 0 0-.537 0l-5.5 3.5a.5.5 0 0 0 0 .844l.854.544-6.842 4.105a.499.499 0 0 0-.003.856l11.5 7a.497.497 0 0 0 .52 0l11.5-7a.502.502 0 0 0-.003-.856zM12 4.593L16.569 7.5 12 10.407 7.431 7.5 12 4.593zm-.269 6.829a.503.503 0 0 0 .537 0l3.703-2.357.659.396L12 12.408 7.369 9.461l.659-.395 3.703 2.356zm-5.32-1.386L11.069 13l-4.696 2.988-4.906-2.987 4.944-2.965zM12 19.414l-4.675-2.846L12 13.593l4.675 2.975L12 19.414zm5.627-3.425L12.931 13l4.658-2.964 4.944 2.966-4.906 2.987z"></path>
    </g>
</svg>
