<svg xmlns="http://www.w3.org/2000/svg" viewBox="0 0 103 90">
    <defs>
        <linearGradient gradientTransform="rotate(25)"
                        id="7bf21f93-95ea-4c68-809b-69b5c0a6bcc8" x1="0%" y1="0%" x2="100%" y2="0%">
            <stop offset="0%"
                  style="stop-color: rgb(8, 199, 214); stop-opacity: 1;"></stop>
            <stop offset="100%"
                  style="stop-color: rgb(2, 2, 62); stop-opacity: 1;"></stop>
        </linearGradient>
    </defs>
    <g id="1a2ec20d-6fe0-4a2f-b5c1-9b0450d797d1"
       transform="matrix(1.2646310329437256,0,0,1.2646310329437256,-12.172308921813965,-20.371173858642578)"
       stroke="none" fill="url(#7bf21f93-95ea-4c68-809b-69b5c0a6bcc8)">
        <path d="M65.059 58.477c.781.781 1.805 1.172 2.828 1.172s2.047-.391 2.828-1.172a4 4 0 0 0 0-5.656L58.757 40.863a3.925 3.925 0 0 0-.62-.506c-.066-.044-.139-.073-.208-.113-.157-.092-.313-.184-.483-.254-.086-.036-.176-.053-.265-.083-.159-.053-.315-.11-.483-.143-.117-.023-.237-.024-.356-.036-.14-.015-.274-.042-.417-.042-.156 0-.303.029-.455.046-.105.012-.211.011-.316.032-.182.036-.354.097-.525.156-.073.025-.148.039-.221.068a4.04 4.04 0 0 0-.549.288c-.046.028-.096.047-.142.077a4.013 4.013 0 0 0-.634.521L41.135 52.82a4 4 0 1 0 5.656 5.656l5.133-5.132v30.341a4 4 0 0 0 8 0V53.343l5.135 5.134z"></path>
        <path d="M59.119 16.518c-11.967 0-22.84 6.983-27.907 17.646-11.696.537-21.044 10.221-21.044 22.048 0 12.169 9.898 22.069 22.068 22.069h11.762a4 4 0 0 0 0-8H32.236c-7.758 0-14.068-6.312-14.068-14.069 0-7.759 6.311-14.071 14.068-14.071.355 0 .744.02 1.258.065l3.062.271 1.05-2.889c3.274-9.014 11.921-15.07 21.514-15.07 12.617 0 22.883 10.265 22.883 22.882 0 9.534-6.006 18.161-14.942 21.468a4 4 0 1 0 2.777 7.502C81.9 71.907 90.004 60.265 90.004 47.4c-.002-17.029-13.857-30.882-30.885-30.882z"></path>
    </g>
</svg>
