<svg xmlns="http://www.w3.org/2000/svg" viewBox="40 127 55 46">
    <defs>
        <linearGradient gradientTransform="rotate(25)"
                        id="51cdbda9-2f5b-41b9-a73a-37e107910aa2" x1="0%" y1="0%" x2="100%" y2="0%">
            <stop offset="0%"
                  style="stop-color: #3D1F44; stop-opacity: 1;"></stop>
            <stop offset="100%"
                  style="stop-color: #1d077f; stop-opacity: 1;"></stop>
        </linearGradient>
    </defs>
    <g stroke="none" fill="url(#51cdbda9-2f5b-41b9-a73a-37e107910aa2)"
       transform="matrix(0.6199955344200134,0,0,0.6199955344200134,36.28002675110241,119.01357921026823)">
        <path style="text-indent:0;text-align:start;line-height:normal;text-transform:none;block-progression:tb;marker:none;-inkscape-font-specification:Sans"
              d="M17.781 13.969A2 2 0 0 0 16 16v7.156C10.342 24.12 6 29.08 6 35c0 5.92 4.342 10.88 10 11.844V84a2 2 0 1 0 4 0V46.844C25.658 45.88 30 40.92 30 35c0-5.92-4.342-10.88-10-11.844V16a2 2 0 0 0-2.219-2.031zm32 0A2 2 0 0 0 48 16v37.156C42.342 54.12 38 59.08 38 65c0 5.92 4.342 10.88 10 11.844V84a2 2 0 1 0 4 0v-7.156C57.658 75.88 62 70.92 62 65c0-5.92-4.342-10.88-10-11.844V16a2 2 0 0 0-2.219-2.031zm32 0A2 2 0 0 0 80 16v16a2 2 0 1 0 4 0V16a2 2 0 0 0-2.219-2.031zM18 27c4.442 0 8 3.558 8 8s-3.558 8-8 8a7.97 7.97 0 0 1-8-8c0-4.442 3.558-8 8-8zm64 11c-6.604 0-12 5.396-12 12 0 5.92 4.342 10.88 10 11.844V84a2 2 0 1 0 4 0V61.844C89.658 60.88 94 55.92 94 50c0-6.604-5.396-12-12-12zm0 4c4.442 0 8 3.558 8 8s-3.558 8-8 8a7.97 7.97 0 0 1-8-8c0-4.442 3.558-8 8-8zM50 57c4.442 0 8 3.558 8 8s-3.558 8-8 8a7.97 7.97 0 0 1-8-8c0-4.442 3.558-8 8-8z"></path>
    </g>
</svg>
