<svg xmlns="http://www.w3.org/2000/svg" viewBox="40 127 36 45">
    <defs>
        <linearGradient gradientTransform="rotate(25)"
                        id="c6ca81ec-da5e-4570-a45c-08d2663b5f00" x1="0%" y1="0%" x2="100%" y2="0%">
            <stop offset="0%"
                  style="stop-color: #443110; stop-opacity: 1;"></stop>
            <stop offset="100%"
                  style="stop-color: #aa104f; stop-opacity: 1;"></stop>
        </linearGradient>
    </defs>
    <g stroke="none" fill="url(#c6ca81ec-da5e-4570-a45c-08d2663b5f00)"
       transform="matrix(0.8703078627586365,0,0,0.8703078627586365,16.05957244960396,104.86322375162729)">
        <path d="M54.666 49.756c-7.186 0-13.032 5.846-13.032 13.032s5.847 13.031 13.032 13.031 13.031-5.846 13.031-13.031-5.845-13.032-13.031-13.032zm0 23.063c-5.532 0-10.032-4.5-10.032-10.031 0-5.532 4.5-10.032 10.032-10.032 5.531 0 10.031 4.5 10.031 10.032 0 5.531-4.5 10.031-10.031 10.031zM34.375 30.514c-3.786 0-6.867 3.081-6.867 6.867s3.081 6.867 6.867 6.867 6.866-3.081 6.866-6.867-3.08-6.867-6.866-6.867zm0 10.734c-2.133 0-3.867-1.734-3.867-3.867s1.734-3.867 3.867-3.867c2.132 0 3.866 1.734 3.866 3.867s-1.734 3.867-3.866 3.867z"></path>
        <circle cx="33.587" cy="61.151" r="5.367"></circle>
        <circle cx="42.15" cy="46.04" r="2.409"></circle>
        <circle cx="50.465" cy="31.021" r="3.114"></circle>
        <circle cx="61.841" cy="41.909" r="4.497"></circle>
    </g>
</svg>
