<svg xmlns="http://www.w3.org/2000/svg" viewBox="0 0 57 90">
    <g id="3439a48b-3cfe-444f-8348-e2874a981fd9"
       transform="matrix(5.486466407775879,0,0,5.486466407775879,-18.013912200927734,-1.1889169216156006)"
       stroke="none" fill="#2E3946">
        <g>
            <path style="line-height:normal;font-variant-ligatures:normal;font-variant-position:normal;font-variant-caps:normal;font-variant-numeric:normal;font-variant-alternates:normal;font-feature-settings:normal;text-indent:0;text-align:start;text-decoration-line:none;text-decoration-style:solid;text-decoration-color:#000;text-transform:none;text-orientation:mixed;shape-padding:0;isolation:auto;mix-blend-mode:normal"
                  d="M5.292.265c-1.02 0-1.852.831-1.852 1.852 0 1.02.831 1.852 1.852 1.852 1.02 0 1.852-.832 1.852-1.852S6.312.265 5.292.265zm6.35 0c-1.02 0-1.852.831-1.852 1.852 0 1.02.831 1.852 1.852 1.852 1.02 0 1.852-.832 1.852-1.852S12.662.265 11.642.265zm-6.35 6.35c-1.02 0-1.852.831-1.852 1.852 0 1.02.831 1.852 1.852 1.852 1.02 0 1.852-.832 1.852-1.852s-.832-1.852-1.852-1.852zm6.35 1.058a.795.795 0 0 0-.794.794.795.795 0 0 0 1.587 0 .795.795 0 0 0-.793-.794zm-6.35 5.292c-1.02 0-1.852.831-1.852 1.852 0 1.02.831 1.852 1.852 1.852 1.02 0 1.852-.832 1.852-1.852s-.832-1.852-1.852-1.852zm6.35 1.058a.795.795 0 0 0-.794.794.795.795 0 0 0 1.587 0 .795.795 0 0 0-.793-.794z"
                  color="#000"></path>
        </g>
    </g>
</svg>
