<svg xmlns="http://www.w3.org/2000/svg" viewBox="40 116 68 68">
    <defs>
        <linearGradient gradientTransform="rotate(25)"
                        id="57cd6bb2-2c56-4b80-8c54-e576d0ac8ed8" x1="0%" y1="0%" x2="100%" y2="0%">
            <stop offset="0%" stop-color="#006678" stop-opacity="1"></stop>
            <stop offset="100%" stop-color="#4FA8FF" stop-opacity="1"></stop>
        </linearGradient>
    </defs>
    <g id="5f409481-e163-43ab-8375-2c2dc2274be3" stroke="none"
       fill="url(#57cd6bb2-2c56-4b80-8c54-e576d0ac8ed8)"
       transform="matrix(2.2314987182617188,0,0,2.2314987182617188,2.0619548742831313,78.59071231600763)">
        <path d="M37.092 22.808a9.93 9.93 0 0 0-7.07-2.929 9.921 9.921 0 0 0-6.329 2.257l-4.985-4.985a.999.999 0 1 0-1.414 1.414l4.985 4.985a9.921 9.921 0 0 0-2.257 6.329 9.928 9.928 0 0 0 2.929 7.07.997.997 0 0 0 1.414 0l12.728-12.728a1 1 0 0 0-.001-1.413zM23.701 34.784a7.934 7.934 0 0 1-1.679-4.905c0-2.137.832-4.146 2.343-5.657a7.948 7.948 0 0 1 5.657-2.343c1.8 0 3.509.59 4.905 1.679L23.701 34.784zM46.992 45.436l-4.279-4.279c3.213-3.923 2.99-9.738-.671-13.398a.999.999 0 0 0-1.414 0L37.8 30.586l-1.415-1.414a.999.999 0 1 0-1.414 1.414L36.386 32l-4.243 4.243-1.414-1.415a.999.999 0 1 0-1.414 1.414l1.414 1.415-2.829 2.828a.999.999 0 0 0 0 1.414 9.934 9.934 0 0 0 7.071 2.929 9.918 9.918 0 0 0 6.328-2.257l4.278 4.278a.997.997 0 0 0 1.414 0 .997.997 0 0 0 .001-1.413zm-16.927-4.288l2.784-2.783.001-.001.001-.001 5.656-5.656 2.784-2.784c2.438 3.136 2.217 7.683-.663 10.563a7.947 7.947 0 0 1-5.656 2.343 7.943 7.943 0 0 1-4.907-1.681z"></path>
    </g>
</svg>
