<svg xmlns="http://www.w3.org/2000/svg" viewBox="40 127 45 45">
    <defs>
        <linearGradient gradientTransform="rotate(25)"
                        id="30190931-855e-4ddd-b807-9cb2a01de649" x1="0%" y1="0%" x2="100%" y2="0%">
            <stop offset="0%"
                  style="stop-color: #29441F; stop-opacity: 1;"></stop>
            <stop offset="100%"
                  style="stop-color: #1f2f50; stop-opacity: 1;"></stop>
        </linearGradient>
    </defs>
    <g stroke="none" fill="url(#30190931-855e-4ddd-b807-9cb2a01de649)"
       transform="matrix(0.6352643370628357,0,0,0.6352643370628357,39.682367841631034,127.14134904120581)">
        <path d="M67.6 48.7c-.2 0-.4 0-.7-.1-1-.4-1.6-1.5-1.2-2.5 1.2-3.3 1.8-6.8 1.8-10.4 0-14.8-10.5-27.8-25-30.8-1.1-.2-1.8-1.3-1.5-2.4.2-1.1 1.3-1.8 2.4-1.5 16.3 3.4 28.1 18 28.1 34.7 0 4-.7 7.9-2 11.7-.3.8-1 1.3-1.9 1.3zM4.4 48.7c-.8 0-1.6-.5-1.9-1.3-1.3-3.8-2-7.7-2-11.7C.5 19 12.3 4.4 28.6.9c1.1-.2 2.1.5 2.4 1.5.2 1.1-.5 2.1-1.5 2.4-14.5 3.1-25 16-25 30.8 0 3.5.6 7 1.8 10.4.4 1-.2 2.2-1.2 2.5-.3.1-.5.2-.7.2zM36 71.1c-9.7 0-18.8-3.9-25.6-10.9-.8-.8-.7-2.1.1-2.8.8-.8 2.1-.7 2.8.1 6 6.2 14.1 9.7 22.7 9.7s16.7-3.4 22.7-9.7c.8-.8 2-.8 2.8-.1.8.8.8 2 .1 2.8-6.8 7.1-15.9 10.9-25.6 10.9z"></path>
        <circle cx="36" cy="36" r="7.7"></circle>
    </g>
</svg>
