<svg xmlns="http://www.w3.org/2000/svg" viewBox="0 0 408 90" class="iconLeft">
    <g fill="#000000"
       transform="matrix(5.4347825050354,0,0,5.4347825050354,143.19212341308594,3.1521756649017334)">
        <path d="M5.82 11.91L5.82 7.31L5.82 7.31Q5.59 7.11 5.14 6.93L5.14 6.93L5.14 6.93Q4.69 6.75 4.16 6.75L4.16 6.75L4.16 6.75Q3.60 6.75 3.20 6.95L3.20 6.95L3.20 6.95Q2.80 7.15 2.55 7.51L2.55 7.51L2.55 7.51Q2.30 7.87 2.18 8.36L2.18 8.36L2.18 8.36Q2.07 8.85 2.07 9.41L2.07 9.41L2.07 9.41Q2.07 10.68 2.70 11.38L2.70 11.38L2.70 11.38Q3.33 12.07 4.38 12.07L4.38 12.07L4.38 12.07Q4.91 12.07 5.27 12.02L5.27 12.02L5.27 12.02Q5.63 11.97 5.82 11.91L5.82 11.91ZM5.82 6.09L5.82 2.41L7.13 2.18L7.13 12.84L7.13 12.84Q6.68 12.96 5.98 13.09L5.98 13.09L5.98 13.09Q5.28 13.22 4.37 13.22L4.37 13.22L4.37 13.22Q3.53 13.22 2.86 12.95L2.86 12.95L2.86 12.95Q2.18 12.68 1.71 12.19L1.71 12.19L1.71 12.19Q1.23 11.70 0.97 11.00L0.97 11.00L0.97 11.00Q0.71 10.29 0.71 9.41L0.71 9.41L0.71 9.41Q0.71 8.57 0.93 7.87L0.93 7.87L0.93 7.87Q1.15 7.17 1.57 6.66L1.57 6.66L1.57 6.66Q1.99 6.16 2.60 5.88L2.60 5.88L2.60 5.88Q3.21 5.60 3.99 5.60L3.99 5.60L3.99 5.60Q4.62 5.60 5.10 5.77L5.10 5.77L5.10 5.77Q5.59 5.94 5.82 6.09L5.82 6.09ZM11.83 12.11L11.83 12.11L11.83 12.11Q12.29 12.11 12.65 12.09L12.65 12.09L12.65 12.09Q13.01 12.07 13.24 12.01L13.24 12.01L13.24 9.84L13.24 9.84Q13.10 9.77 12.79 9.72L12.79 9.72L12.79 9.72Q12.47 9.67 12.03 9.67L12.03 9.67L12.03 9.67Q11.73 9.67 11.40 9.72L11.40 9.72L11.40 9.72Q11.07 9.76 10.80 9.89L10.80 9.89L10.80 9.89Q10.53 10.02 10.35 10.25L10.35 10.25L10.35 10.25Q10.16 10.49 10.16 10.86L10.16 10.86L10.16 10.86Q10.16 11.56 10.61 11.84L10.61 11.84L10.61 11.84Q11.06 12.11 11.83 12.11ZM11.72 5.59L11.72 5.59L11.72 5.59Q12.50 5.59 13.04 5.79L13.04 5.79L13.04 5.79Q13.58 5.99 13.91 6.36L13.91 6.36L13.91 6.36Q14.24 6.73 14.38 7.25L14.38 7.25L14.38 7.25Q14.52 7.76 14.52 8.37L14.52 8.37L14.52 12.92L14.52 12.92Q14.35 12.95 14.05 13.00L14.05 13.00L14.05 13.00Q13.75 13.05 13.37 13.09L13.37 13.09L13.37 13.09Q12.99 13.13 12.55 13.17L12.55 13.17L12.55 13.17Q12.11 13.20 11.68 13.20L11.68 13.20L11.68 13.20Q11.06 13.20 10.54 13.08L10.54 13.08L10.54 13.08Q10.02 12.95 9.65 12.68L9.65 12.68L9.65 12.68Q9.27 12.40 9.06 11.96L9.06 11.96L9.06 11.96Q8.85 11.51 8.85 10.88L8.85 10.88L8.85 10.88Q8.85 10.28 9.09 9.84L9.09 9.84L9.09 9.84Q9.34 9.41 9.76 9.14L9.76 9.14L9.76 9.14Q10.18 8.88 10.74 8.75L10.74 8.75L10.74 8.75Q11.30 8.62 11.91 8.62L11.91 8.62L11.91 8.62Q12.11 8.62 12.32 8.64L12.32 8.64L12.32 8.64Q12.53 8.67 12.72 8.70L12.72 8.70L12.72 8.70Q12.91 8.74 13.05 8.76L13.05 8.76L13.05 8.76Q13.19 8.79 13.24 8.81L13.24 8.81L13.24 8.44L13.24 8.44Q13.24 8.12 13.17 7.80L13.17 7.80L13.17 7.80Q13.10 7.49 12.92 7.25L12.92 7.25L12.92 7.25Q12.74 7 12.43 6.85L12.43 6.85L12.43 6.85Q12.11 6.71 11.61 6.71L11.61 6.71L11.61 6.71Q10.96 6.71 10.48 6.80L10.48 6.80L10.48 6.80Q10.00 6.89 9.76 6.99L9.76 6.99L9.60 5.91L9.60 5.91Q9.86 5.80 10.44 5.69L10.44 5.69L10.44 5.69Q11.03 5.59 11.72 5.59ZM17.89 3.51L17.89 5.77L20.65 5.77L20.65 6.86L17.89 6.86L17.89 10.22L17.89 10.22Q17.89 10.77 17.98 11.12L17.98 11.12L17.98 11.12Q18.06 11.48 18.23 11.68L18.23 11.68L18.23 11.68Q18.40 11.89 18.65 11.97L18.65 11.97L18.65 11.97Q18.90 12.05 19.24 12.05L19.24 12.05L19.24 12.05Q19.82 12.05 20.18 11.92L20.18 11.92L20.18 11.92Q20.54 11.79 20.68 11.73L20.68 11.73L20.93 12.81L20.93 12.81Q20.73 12.91 20.24 13.05L20.24 13.05L20.24 13.05Q19.75 13.20 19.12 13.20L19.12 13.20L19.12 13.20Q18.38 13.20 17.90 13.01L17.90 13.01L17.90 13.01Q17.42 12.82 17.12 12.45L17.12 12.45L17.12 12.45Q16.83 12.07 16.71 11.52L16.71 11.52L16.71 11.52Q16.59 10.96 16.59 10.23L16.59 10.23L16.59 3.74L17.89 3.51ZM24.77 12.11L24.77 12.11L24.77 12.11Q25.23 12.11 25.59 12.09L25.59 12.09L25.59 12.09Q25.94 12.07 26.18 12.01L26.18 12.01L26.18 9.84L26.18 9.84Q26.04 9.77 25.73 9.72L25.73 9.72L25.73 9.72Q25.41 9.67 24.96 9.67L24.96 9.67L24.96 9.67Q24.67 9.67 24.34 9.72L24.34 9.72L24.34 9.72Q24.01 9.76 23.74 9.89L23.74 9.89L23.74 9.89Q23.46 10.02 23.28 10.25L23.28 10.25L23.28 10.25Q23.10 10.49 23.10 10.86L23.10 10.86L23.10 10.86Q23.10 11.56 23.55 11.84L23.55 11.84L23.55 11.84Q24.00 12.11 24.77 12.11ZM24.65 5.59L24.65 5.59L24.65 5.59Q25.44 5.59 25.98 5.79L25.98 5.79L25.98 5.79Q26.52 5.99 26.85 6.36L26.85 6.36L26.85 6.36Q27.17 6.73 27.31 7.25L27.31 7.25L27.31 7.25Q27.45 7.76 27.45 8.37L27.45 8.37L27.45 12.92L27.45 12.92Q27.29 12.95 26.99 13.00L26.99 13.00L26.99 13.00Q26.68 13.05 26.31 13.09L26.31 13.09L26.31 13.09Q25.93 13.13 25.49 13.17L25.49 13.17L25.49 13.17Q25.05 13.20 24.61 13.20L24.61 13.20L24.61 13.20Q24.00 13.20 23.48 13.08L23.48 13.08L23.48 13.08Q22.96 12.95 22.58 12.68L22.58 12.68L22.58 12.68Q22.20 12.40 21.99 11.96L21.99 11.96L21.99 11.96Q21.78 11.51 21.78 10.88L21.78 10.88L21.78 10.88Q21.78 10.28 22.03 9.84L22.03 9.84L22.03 9.84Q22.27 9.41 22.69 9.14L22.69 9.14L22.69 9.14Q23.11 8.88 23.67 8.75L23.67 8.75L23.67 8.75Q24.23 8.62 24.85 8.62L24.85 8.62L24.85 8.62Q25.05 8.62 25.26 8.64L25.26 8.64L25.26 8.64Q25.47 8.67 25.66 8.70L25.66 8.70L25.66 8.70Q25.84 8.74 25.98 8.76L25.98 8.76L25.98 8.76Q26.12 8.79 26.18 8.81L26.18 8.81L26.18 8.44L26.18 8.44Q26.18 8.12 26.11 7.80L26.11 7.80L26.11 7.80Q26.04 7.49 25.86 7.25L25.86 7.25L25.86 7.25Q25.68 7 25.36 6.85L25.36 6.85L25.36 6.85Q25.05 6.71 24.54 6.71L24.54 6.71L24.54 6.71Q23.90 6.71 23.42 6.80L23.42 6.80L23.42 6.80Q22.93 6.89 22.69 6.99L22.69 6.99L22.54 5.91L22.54 5.91Q22.79 5.80 23.38 5.69L23.38 5.69L23.38 5.69Q23.97 5.59 24.65 5.59ZM30.83 3.51L30.83 5.77L33.59 5.77L33.59 6.86L30.83 6.86L30.83 10.22L30.83 10.22Q30.83 10.77 30.91 11.12L30.91 11.12L30.91 11.12Q31.00 11.48 31.16 11.68L31.16 11.68L31.16 11.68Q31.33 11.89 31.58 11.97L31.58 11.97L31.58 11.97Q31.84 12.05 32.17 12.05L32.17 12.05L32.17 12.05Q32.76 12.05 33.12 11.92L33.12 11.92L33.12 11.92Q33.47 11.79 33.61 11.73L33.61 11.73L33.87 12.81L33.87 12.81Q33.67 12.91 33.18 13.05L33.18 13.05L33.18 13.05Q32.69 13.20 32.06 13.20L32.06 13.20L32.06 13.20Q31.32 13.20 30.84 13.01L30.84 13.01L30.84 13.01Q30.35 12.82 30.06 12.45L30.06 12.45L30.06 12.45Q29.76 12.07 29.65 11.52L29.65 11.52L29.65 11.52Q29.53 10.96 29.53 10.23L29.53 10.23L29.53 3.74L30.83 3.51ZM36.54 5.77L36.54 13.05L35.24 13.05L35.24 5.77L36.54 5.77ZM35.88 4.45L35.88 4.45L35.88 4.45Q35.53 4.45 35.29 4.22L35.29 4.22L35.29 4.22Q35.04 3.99 35.04 3.60L35.04 3.60L35.04 3.60Q35.04 3.21 35.29 2.97L35.29 2.97L35.29 2.97Q35.53 2.74 35.88 2.74L35.88 2.74L35.88 2.74Q36.23 2.74 36.48 2.97L36.48 2.97L36.48 2.97Q36.72 3.21 36.72 3.60L36.72 3.60L36.72 3.60Q36.72 3.99 36.48 4.22L36.48 4.22L36.48 4.22Q36.23 4.45 35.88 4.45ZM41.15 12.10L40.96 13.19L40.96 13.19Q39.76 13.16 39.26 12.67L39.26 12.67L39.26 12.67Q38.75 12.18 38.75 11.14L38.75 11.14L38.75 2.41L40.05 2.18L40.05 10.93L40.05 10.93Q40.05 11.26 40.11 11.47L40.11 11.47L40.11 11.47Q40.17 11.68 40.29 11.80L40.29 11.80L40.29 11.80Q40.42 11.93 40.63 11.99L40.63 11.99L40.63 11.99Q40.84 12.05 41.15 12.10L41.15 12.10ZM42.20 9.42L42.20 9.42L42.20 9.42Q42.20 8.46 42.48 7.74L42.48 7.74L42.48 7.74Q42.76 7.01 43.22 6.54L43.22 6.54L43.22 6.54Q43.68 6.06 44.28 5.82L44.28 5.82L44.28 5.82Q44.88 5.59 45.51 5.59L45.51 5.59L45.51 5.59Q46.98 5.59 47.77 6.50L47.77 6.50L47.77 6.50Q48.55 7.42 48.55 9.30L48.55 9.30L48.55 9.30Q48.55 9.38 48.55 9.51L48.55 9.51L48.55 9.51Q48.55 9.65 48.54 9.76L48.54 9.76L43.55 9.76L43.55 9.76Q43.64 10.89 44.21 11.48L44.21 11.48L44.21 11.48Q44.79 12.07 46.00 12.07L46.00 12.07L46.00 12.07Q46.69 12.07 47.16 11.95L47.16 11.95L47.16 11.95Q47.63 11.83 47.87 11.72L47.87 11.72L48.05 12.81L48.05 12.81Q47.81 12.94 47.22 13.08L47.22 13.08L47.22 13.08Q46.62 13.22 45.86 13.22L45.86 13.22L45.86 13.22Q44.91 13.22 44.22 12.93L44.22 12.93L44.22 12.93Q43.53 12.64 43.08 12.14L43.08 12.14L43.08 12.14Q42.63 11.63 42.41 10.94L42.41 10.94L42.41 10.94Q42.20 10.25 42.20 9.42ZM43.58 8.71L47.19 8.71L47.19 8.71Q47.21 7.83 46.75 7.26L46.75 7.26L46.75 7.26Q46.30 6.69 45.50 6.69L45.50 6.69L45.50 6.69Q45.05 6.69 44.71 6.87L44.71 6.87L44.71 6.87Q44.37 7.04 44.13 7.32L44.13 7.32L44.13 7.32Q43.89 7.60 43.76 7.97L43.76 7.97L43.76 7.97Q43.62 8.33 43.58 8.71L43.58 8.71Z"></path>
    </g>
    <defs>
        <linearGradient gradientTransform="rotate(25)"
                        id="30190931-855e-4ddd-b807-9cb2a01de649" x1="0%" y1="0%" x2="100%" y2="0%">
            <stop offset="0%"
                  style="stop-color: rgb(132, 61, 72); stop-opacity: 1;"></stop>
            <stop offset="100%"
                  style="stop-color: rgb(205, 151, 142); stop-opacity: 1;"></stop>
        </linearGradient>
    </defs>
    <g transform="matrix(5.293976306915283,0,0,5.293976306915283,0.4786979854106903,-18.028818130493164)"
       stroke="none" fill="url(#30190931-855e-4ddd-b807-9cb2a01de649)">
        <path d="M23.757 12.571l-6.843-4.106.854-.543a.5.5 0 0 0 0-.844l-5.5-3.5a.501.501 0 0 0-.537 0l-5.5 3.5a.5.5 0 0 0 0 .844l.854.544-6.842 4.105a.499.499 0 0 0-.003.856l11.5 7a.497.497 0 0 0 .52 0l11.5-7a.502.502 0 0 0-.003-.856zM12 4.593L16.569 7.5 12 10.407 7.431 7.5 12 4.593zm-.269 6.829a.503.503 0 0 0 .537 0l3.703-2.357.659.396L12 12.408 7.369 9.461l.659-.395 3.703 2.356zm-5.32-1.386L11.069 13l-4.696 2.988-4.906-2.987 4.944-2.965zM12 19.414l-4.675-2.846L12 13.593l4.675 2.975L12 19.414zm5.627-3.425L12.931 13l4.658-2.964 4.944 2.966-4.906 2.987z"></path>
    </g>
</svg>
